{"glyphs":{"0":{"ha":990,"x_min":22,"x_max":943,"o":"m 864 782 q 938 436 942 640 q 851 97 933 235 q 624 -47 764 -50 l 624 -50 l 606 -49 q 556 -42 600 -47 q 503 -37 513 -37 q 457 -31 494 -36 q 406 -23 419 -26 q 362 -13 393 -19 q 315 0 331 -7 q 275 16 299 7 q 233 37 251 25 q 197 61 214 49 q 57 596 22 197 l 57 596 q 290 897 79 808 q 579 949 417 950 l 613 949 l 628 947 l 628 946 q 864 782 779 938 m 301 868 q 297 867 300 868 l 294 865 q 314 863 314 863 q 324 861 319 863 q 329 861 328 861 l 328 861 l 329 861 q 332 861 331 861 q 335 861 333 861 q 350 861 340 861 q 393 861 363 861 q 433 863 407 861 q 482 913 457 893 q 301 868 381 901 m 267 851 q 160 768 201 818 q 257 776 229 775 l 258 776 l 260 776 q 265 775 260 776 q 281 774 269 775 q 324 768 315 769 q 375 761 331 767 q 403 817 388 792 q 421 846 411 832 q 393 846 406 846 q 350 844 368 846 q 335 844 338 844 q 332 844 333 844 q 329 844 331 844 q 326 846 326 846 q 322 846 325 846 q 313 847 318 846 q 288 850 307 847 q 276 851 283 850 q 267 851 269 851 m 146 751 q 97 643 113 704 q 135 632 117 638 q 213 618 190 618 l 214 619 l 214 618 l 215 618 q 217 619 215 618 q 219 619 218 619 q 235 619 225 619 q 281 622 258 621 q 329 625 299 624 q 368 746 344 690 q 321 753 343 750 q 298 755 313 753 q 278 758 283 757 q 270 759 275 758 q 264 760 265 760 q 257 761 260 761 q 146 751 228 760 m 94 628 q 89 592 90 608 q 86 556 88 576 q 193 551 163 550 l 194 551 l 196 551 q 200 551 197 551 q 217 550 206 550 q 264 549 236 550 q 314 547 288 547 q 325 610 318 579 q 282 607 299 607 q 236 604 250 604 q 219 603 226 603 q 215 603 217 603 q 213 603 213 603 q 131 618 188 603 q 94 628 113 622 m 85 540 q 82 464 82 500 q 143 458 100 463 q 197 453 178 454 q 217 451 210 451 q 221 450 218 451 q 222 450 221 450 q 225 450 225 450 l 229 450 q 240 450 232 450 q 275 451 256 451 q 306 453 290 453 q 310 513 307 483 q 313 532 311 521 q 263 533 275 532 q 215 535 235 533 q 200 535 203 535 q 194 536 199 535 q 193 536 194 536 q 85 540 160 535 m 83 447 q 88 364 83 403 q 111 365 100 365 q 139 368 129 368 q 148 369 146 368 q 151 369 150 369 q 154 368 153 369 l 156 368 l 157 368 q 163 368 158 368 q 171 367 164 368 q 183 365 178 365 q 243 358 206 363 q 307 351 267 356 q 304 438 304 393 q 276 436 285 436 q 242 435 257 435 q 229 435 233 435 l 225 435 q 222 435 222 435 l 219 435 q 214 436 215 435 q 196 438 207 436 q 142 443 190 438 q 83 447 115 444 m 89 349 q 97 297 92 321 q 147 294 128 296 q 197 292 186 292 q 214 290 210 290 q 219 290 218 290 q 224 289 222 290 l 225 289 q 229 288 226 289 q 243 285 233 288 q 283 278 264 281 q 319 271 299 275 q 310 336 313 303 q 279 339 303 336 q 240 343 256 342 q 181 350 204 347 q 161 351 164 351 q 158 353 160 353 q 154 353 156 353 q 151 353 153 353 q 149 353 150 353 q 139 353 147 353 q 113 350 126 351 q 89 349 103 350 m 101 281 q 125 206 111 240 q 169 193 146 200 q 229 176 228 176 l 228 176 l 231 176 q 235 175 232 175 q 253 175 242 175 q 303 172 264 174 q 351 171 325 172 q 347 181 347 181 q 324 254 333 215 q 281 263 297 258 q 240 269 246 269 q 225 272 232 271 q 218 274 219 274 l 219 274 l 218 274 q 215 275 217 275 q 213 275 214 275 q 196 276 208 275 q 146 279 179 276 q 101 281 119 281 m 135 186 q 203 97 161 133 q 257 94 236 94 q 307 92 290 92 q 324 90 315 90 q 329 90 326 90 q 333 89 332 89 q 339 88 333 89 q 351 85 346 86 q 390 78 375 81 q 401 76 394 76 q 410 74 407 75 q 358 156 379 110 q 303 157 322 157 q 251 158 271 158 q 235 160 239 160 q 229 160 232 160 q 225 161 226 161 q 165 178 222 161 q 147 183 160 179 q 135 186 135 186 m 225 81 q 507 -6 310 18 q 426 54 463 18 q 388 63 408 58 q 349 69 354 68 q 335 72 347 69 q 328 74 329 74 l 329 74 l 328 74 q 322 75 325 74 q 306 75 318 75 q 256 78 289 76 q 225 81 242 79 m 907 438 q 836 767 911 633 q 613 915 756 914 l 596 915 l 596 918 q 583 918 588 918 l 583 917 q 429 801 501 922 q 340 510 358 681 q 375 192 321 328 q 579 -1 438 40 l 576 -14 q 592 -15 576 -14 l 592 -14 l 608 -15 q 610 -15 610 -15 l 611 -15 q 825 113 742 -26 q 907 438 903 243 m 700 544 q 731 458 725 508 q 717 368 738 404 q 635 326 690 324 q 558 371 583 329 q 543 457 538 407 q 571 540 547 504 q 632 581 596 581 q 642 582 638 582 q 700 544 675 581 m 633 550 q 601 529 617 550 l 678 522 q 675 526 675 525 q 640 550 658 550 q 636 550 638 550 l 635 550 l 633 550 m 592 515 q 574 454 578 488 l 694 479 q 686 506 692 493 l 592 515 m 636 358 q 683 376 668 357 l 590 379 q 636 358 606 358 m 693 392 q 700 454 704 417 q 699 464 700 458 l 574 439 q 582 394 574 414 l 693 392 z "},"1":{"ha":717,"x_min":63,"x_max":649,"o":"m 647 743 q 649 447 649 635 q 648 355 649 403 q 647 266 647 307 q 647 185 647 225 q 647 114 647 146 q 647 58 647 82 q 646 20 646 35 q 646 6 646 6 q 639 -8 646 -3 q 632 -12 636 -11 q 619 -15 626 -14 q 583 -15 607 -17 q 540 -12 565 -15 q 503 -14 529 -12 q 446 -17 476 -15 q 373 -19 415 -18 q 297 -22 331 -21 q 154 -24 206 -25 q 104 -21 122 -24 q 88 -17 94 -19 q 74 -8 78 -14 q 71 -4 72 -7 q 69 1 69 -1 q 68 11 68 4 q 65 39 67 21 q 64 133 64 72 q 68 421 64 257 q 79 714 72 593 q 88 817 83 779 q 92 850 89 838 q 99 871 94 865 q 107 879 101 875 q 115 883 110 881 q 139 892 124 888 q 207 911 168 901 q 346 931 292 931 q 364 931 356 931 l 364 929 q 368 929 365 929 q 400 928 379 931 q 489 917 432 925 q 581 901 531 911 q 629 893 619 894 q 638 888 635 892 q 640 883 639 885 q 642 878 642 881 q 643 869 643 875 q 644 840 644 860 q 647 743 646 807 m 214 881 q 156 865 182 874 q 182 861 167 864 q 231 856 224 856 q 240 855 233 856 q 247 853 246 854 q 256 851 254 853 l 256 853 q 258 853 257 853 q 269 853 264 853 q 301 856 279 853 q 339 858 319 857 q 342 899 340 876 q 214 881 289 897 m 118 814 q 117 800 118 808 q 146 796 133 797 q 175 792 165 793 q 186 792 182 792 q 189 790 188 792 l 189 792 q 189 790 189 790 q 192 792 189 792 q 194 792 193 792 q 197 792 196 792 q 215 793 204 792 q 265 797 233 794 q 336 803 301 800 q 339 842 338 831 q 303 839 317 840 q 271 838 281 838 q 260 836 264 836 q 256 836 257 836 q 253 837 254 836 q 246 838 251 838 q 229 840 236 839 q 181 846 203 843 q 125 853 149 850 q 122 844 124 847 q 118 814 121 833 m 115 785 q 111 719 113 757 q 167 718 143 718 q 217 715 201 717 q 233 715 226 715 q 238 715 235 715 q 239 715 238 715 q 242 715 242 715 q 246 715 244 715 q 257 715 249 715 q 289 717 268 715 q 332 719 308 718 q 335 788 333 746 q 267 782 311 785 q 217 778 235 779 q 206 777 213 778 q 199 776 200 776 q 193 776 197 776 l 192 775 q 188 775 190 775 q 185 775 185 775 q 174 776 179 776 q 143 781 163 778 q 115 785 129 783 m 110 703 q 107 658 108 682 q 136 656 118 657 q 167 651 167 651 q 176 650 174 651 q 182 650 182 650 l 182 650 l 183 650 q 189 650 186 650 q 207 650 194 650 q 258 651 222 650 q 328 654 292 653 q 331 703 331 692 q 290 701 310 703 q 257 700 269 700 q 246 699 249 699 q 244 699 246 699 q 242 699 243 699 q 239 700 240 699 l 239 699 l 238 700 q 232 700 233 700 q 215 700 228 700 q 165 701 200 701 q 110 703 149 703 m 107 643 q 104 593 106 619 q 139 592 126 592 q 174 589 161 590 q 186 589 185 589 q 193 588 192 588 l 192 588 l 193 588 q 199 588 194 588 q 215 589 207 589 q 263 592 232 589 q 325 594 293 593 q 326 638 325 601 q 258 636 285 636 q 207 635 224 635 q 189 633 194 633 q 183 633 185 633 q 179 635 181 633 q 175 635 179 635 q 164 636 171 635 q 135 640 157 638 q 125 641 131 640 q 115 642 119 642 q 107 643 110 643 m 104 578 q 101 511 103 544 q 121 514 111 513 q 146 515 136 514 q 156 515 150 515 q 156 515 156 515 q 158 515 157 515 q 161 515 160 515 l 163 515 l 164 515 q 166 515 164 515 q 169 514 168 515 q 178 513 171 514 q 189 513 185 513 q 201 511 194 513 q 215 509 208 510 q 230 508 221 508 q 246 507 239 507 q 319 499 267 504 q 324 579 322 542 q 264 575 300 578 q 215 574 233 574 q 199 572 207 572 q 193 572 196 572 q 190 572 192 572 l 189 572 q 185 574 186 572 q 174 574 183 574 q 139 576 146 575 q 104 578 121 576 m 101 496 q 100 450 100 472 q 115 447 104 449 q 138 442 125 444 q 160 439 150 440 q 210 429 193 433 q 233 425 231 426 l 233 425 l 235 425 l 238 426 q 249 426 242 426 q 281 432 264 429 q 317 438 296 433 q 318 469 317 449 q 318 483 318 475 q 243 492 294 486 q 188 497 201 496 q 168 499 178 499 q 161 500 164 500 q 158 500 158 500 l 156 500 q 147 500 153 500 q 122 497 138 499 q 101 496 111 497 m 99 421 q 97 336 97 378 q 113 335 106 336 q 131 332 124 333 q 140 331 138 331 l 140 329 q 141 329 140 329 q 142 329 142 329 l 140 329 q 142 329 142 329 q 149 329 146 329 q 169 331 158 329 q 233 332 190 331 q 311 333 265 332 q 315 421 313 375 q 283 417 297 418 q 250 411 261 413 q 239 410 244 411 q 235 410 236 410 q 231 410 232 410 q 228 410 231 410 q 219 413 225 411 q 207 414 213 414 q 157 424 168 421 q 99 433 133 428 q 99 430 99 432 q 99 425 99 428 q 99 421 99 422 m 97 321 q 96 235 96 276 q 136 235 118 235 q 174 235 154 235 q 188 233 181 235 q 192 233 188 233 q 194 233 193 233 l 196 233 q 199 233 197 233 q 201 233 200 233 q 217 232 204 232 q 261 228 225 231 q 306 225 279 226 q 310 318 308 265 q 233 315 265 317 q 169 314 192 315 q 149 314 160 314 q 142 314 143 314 q 139 314 140 314 q 136 315 138 314 q 128 317 136 315 q 110 319 122 317 q 97 321 103 321 m 96 219 q 96 150 94 182 q 176 150 143 150 q 240 149 215 149 q 261 149 254 149 q 268 149 264 149 q 271 149 269 149 q 272 147 272 149 q 299 140 276 147 q 301 140 300 140 q 303 139 303 140 q 304 169 304 153 q 306 208 304 185 q 260 213 283 211 q 215 217 225 215 q 200 217 204 217 q 197 218 199 218 q 194 218 194 218 q 192 218 193 218 l 192 218 l 190 218 q 186 218 190 218 q 174 218 181 218 q 136 219 154 219 q 96 219 115 219 m 99 15 q 138 21 119 18 q 175 28 161 25 q 189 29 183 29 q 193 29 192 29 q 196 29 196 31 l 197 29 q 201 31 199 29 q 215 32 206 31 q 258 36 235 33 q 303 42 279 39 l 303 43 q 301 71 301 51 q 303 124 301 90 q 294 125 301 124 q 269 132 274 131 q 267 133 268 132 q 261 133 267 133 q 239 133 251 133 q 176 133 224 133 q 96 135 136 135 q 97 40 96 75 q 99 15 97 24 m 296 10 q 350 11 321 10 q 333 15 340 13 q 321 18 326 17 q 313 22 314 21 q 307 26 310 24 q 261 21 282 24 q 218 15 236 18 q 203 14 207 15 q 197 14 200 14 l 196 14 q 193 14 194 14 q 194 14 193 14 l 193 14 q 190 14 192 14 q 178 13 183 13 q 150 8 167 11 q 152 8 150 8 q 154 7 154 7 q 296 10 204 6 m 617 447 q 615 743 617 631 q 614 839 615 806 q 613 864 613 854 q 575 871 590 868 q 485 886 525 879 q 397 897 428 894 q 374 899 383 899 q 349 468 361 690 q 335 168 339 276 q 333 71 333 104 q 333 47 333 56 q 342 44 338 46 q 376 38 354 42 q 482 24 422 31 q 542 18 514 21 l 543 18 q 585 15 567 17 q 615 17 604 15 q 615 50 615 21 q 615 120 615 79 q 616 213 615 161 q 617 326 617 264 q 617 447 617 389 z "},"2":{"ha":1053,"x_min":49,"x_max":1003,"o":"m 1000 143 q 985 7 1001 60 l 981 -3 l 404 -24 l 404 -25 l 101 -31 l 101 -15 q 128 238 104 126 q 242 374 144 311 q 261 386 250 379 q 188 382 221 383 q 113 382 140 381 q 88 383 96 382 q 78 385 82 383 q 65 392 69 386 l 64 393 l 64 396 q 56 443 58 410 q 53 626 49 511 q 133 803 56 729 q 308 900 197 863 q 643 953 453 949 q 649 953 644 953 q 676 954 661 954 q 801 931 736 954 q 915 863 867 907 q 971 788 951 829 q 992 692 990 747 q 967 575 994 638 l 788 257 q 878 260 824 263 q 940 253 914 257 q 964 247 954 250 q 979 239 974 243 q 990 222 986 235 q 994 201 993 214 q 1000 143 999 176 m 960 214 l 958 215 q 960 215 960 215 l 960 214 m 318 869 q 232 833 271 854 q 238 833 233 833 q 246 833 243 833 q 288 832 268 833 q 301 832 296 832 q 307 832 304 832 q 310 831 308 831 q 314 831 313 831 q 326 832 318 831 q 364 833 342 832 q 407 835 385 833 q 489 903 442 876 q 500 910 494 907 q 318 869 399 897 m 154 781 q 104 713 122 749 q 163 707 135 710 q 214 701 194 703 q 231 699 229 700 q 238 699 233 699 q 240 700 238 699 q 258 704 250 701 q 300 714 292 711 q 346 725 326 719 q 393 818 364 776 q 365 817 379 818 q 328 815 340 817 q 314 815 321 815 q 310 815 313 815 q 307 815 307 815 l 306 815 q 301 815 304 815 q 286 817 296 815 q 244 818 275 817 q 206 818 229 818 q 154 781 176 800 m 83 625 q 83 608 83 615 q 106 606 103 606 q 132 601 122 603 q 147 600 146 600 l 149 600 q 156 600 150 600 q 178 600 161 600 q 244 603 206 601 q 325 607 276 604 q 342 707 328 661 q 304 699 321 703 q 279 692 294 696 q 261 689 264 689 q 240 683 242 683 q 238 683 239 683 q 236 683 236 683 q 231 683 235 683 q 213 685 224 685 q 161 690 201 686 q 97 697 132 694 q 83 625 85 664 m 90 418 q 128 439 110 429 q 160 456 147 450 q 172 461 168 460 q 176 463 175 463 q 178 464 178 464 l 179 464 l 179 464 q 182 464 181 464 q 181 464 181 464 q 186 467 183 465 q 204 475 192 469 q 260 503 224 485 q 326 536 290 518 q 325 592 325 564 q 244 588 276 589 q 178 585 203 586 q 156 585 163 585 q 149 585 150 585 l 146 585 q 144 585 144 585 q 131 586 143 585 q 104 589 121 588 q 83 592 93 590 q 86 446 82 501 q 90 418 89 429 m 181 449 q 179 449 179 449 q 181 449 181 449 m 186 414 q 199 414 190 414 l 383 503 q 374 504 375 503 q 344 511 356 506 q 332 521 338 515 q 267 489 294 503 q 211 461 232 471 q 192 453 199 456 q 186 450 189 451 q 183 449 185 450 q 182 449 182 449 q 178 447 179 447 q 167 442 175 446 q 135 425 154 435 q 113 413 124 419 q 186 414 142 413 m 239 415 q 338 422 303 419 l 339 415 q 390 440 365 428 q 431 460 417 454 q 446 467 440 464 q 450 469 449 468 q 451 469 451 469 l 453 469 q 456 471 454 471 q 467 478 460 474 q 497 501 478 486 q 506 507 500 503 q 447 503 475 504 q 417 501 433 501 l 239 415 m 639 596 q 632 594 638 597 q 608 582 621 592 q 565 524 576 558 l 561 514 l 553 513 q 536 511 546 513 q 507 489 519 499 q 475 465 486 474 q 464 458 468 460 q 460 456 461 456 q 458 455 458 456 q 456 454 457 454 l 456 454 q 453 454 454 454 q 456 454 454 454 q 451 453 453 453 q 438 446 446 450 q 397 426 421 439 q 374 415 385 421 l 613 494 q 644 551 638 526 q 639 596 656 582 l 639 596 m 258 347 q 229 326 243 338 l 415 400 l 536 413 q 594 472 569 444 l 313 378 q 258 347 283 364 m 158 231 q 158 228 158 229 q 157 225 157 226 q 169 228 164 226 q 193 233 185 232 q 203 236 199 235 q 206 236 204 236 q 208 236 208 236 l 208 236 q 210 236 210 236 q 208 236 210 236 q 210 236 210 236 q 217 236 214 236 q 238 239 225 238 q 301 247 260 242 q 376 258 338 253 q 513 392 419 310 q 514 393 513 392 q 517 394 515 394 l 419 385 l 197 297 q 158 231 165 264 m 154 208 q 142 126 147 171 q 172 131 160 129 q 206 136 194 135 q 218 138 213 138 q 222 139 221 139 l 224 139 q 226 139 224 139 l 228 138 q 233 138 232 138 q 250 136 239 136 q 299 131 256 135 q 349 125 304 131 q 344 151 347 140 q 342 175 343 167 q 340 182 342 179 q 340 190 340 188 l 343 203 q 360 236 347 217 q 363 240 361 238 q 304 232 329 236 q 240 224 263 226 q 218 221 225 222 q 211 221 215 221 q 208 219 210 219 q 207 221 207 219 l 207 221 q 206 221 206 221 q 207 221 206 221 q 204 219 206 221 q 197 218 203 219 q 174 213 188 217 q 154 208 164 211 m 140 110 q 136 46 138 78 q 178 47 157 46 q 219 47 207 47 q 233 47 228 47 q 238 47 236 47 q 242 47 240 47 l 243 47 q 247 47 244 47 q 264 47 251 47 q 310 46 281 46 q 363 46 332 46 q 356 85 358 65 q 351 110 354 93 q 297 115 325 113 q 247 119 254 119 q 231 122 236 121 l 229 122 l 226 122 q 222 122 224 122 l 224 122 q 219 122 222 122 q 208 121 214 122 q 175 115 197 119 q 140 110 157 113 m 133 1 l 369 6 q 365 31 367 18 q 310 31 332 31 q 263 31 281 31 q 247 32 251 31 q 242 32 244 32 q 238 32 239 32 q 233 32 236 32 q 219 32 228 32 q 178 31 207 32 q 135 29 154 31 q 133 1 133 14 m 957 28 q 968 142 969 75 q 964 196 968 174 q 961 213 963 207 q 958 215 960 214 l 954 217 q 935 221 946 219 q 876 228 910 226 q 761 219 796 233 l 721 204 l 939 588 q 894 840 1001 740 q 790 901 851 879 q 676 924 729 924 q 669 924 676 924 l 669 922 q 660 922 667 922 q 635 919 654 922 q 597 913 615 917 q 552 899 578 908 q 504 876 526 889 q 357 540 342 783 q 358 539 358 540 q 378 535 365 536 q 446 533 403 531 q 539 543 493 536 q 589 607 554 581 q 624 625 607 621 q 658 619 646 631 q 675 542 692 592 q 533 368 653 472 q 386 219 422 271 q 372 194 375 204 q 372 191 372 193 q 372 185 372 189 q 372 186 372 186 q 372 185 372 186 q 372 179 372 182 q 376 156 374 169 q 386 90 379 132 q 400 7 393 51 l 957 28 z "},"3":{"ha":938,"x_min":38,"x_max":892,"o":"m 769 454 q 863 336 835 408 q 876 189 892 264 q 797 45 861 107 q 629 -33 733 -17 l 629 -33 q 627 -33 628 -33 q 626 -33 626 -33 q 604 -35 617 -35 q 197 21 333 -53 q 53 282 51 99 l 53 283 q 60 297 53 292 q 69 304 63 301 q 93 314 78 310 q 158 325 118 319 q 250 335 203 332 l 246 476 q 165 479 200 478 q 104 485 126 482 q 82 489 90 486 q 72 492 76 490 q 63 503 65 496 l 61 506 l 61 507 q 210 878 39 778 q 568 947 322 944 q 628 950 597 950 l 628 947 q 630 947 628 947 q 632 947 632 947 l 649 947 l 649 946 q 797 883 738 940 q 871 738 856 828 q 859 579 885 657 q 769 454 833 501 m 439 910 q 258 868 329 899 q 306 867 268 868 q 376 865 319 867 q 439 910 404 892 m 225 851 q 135 763 167 817 l 303 754 q 358 849 324 808 l 360 850 l 361 850 q 306 851 331 851 q 229 853 258 853 q 227 852 228 853 q 225 851 226 851 m 126 747 q 104 690 113 719 q 188 672 181 674 l 189 672 l 193 672 q 206 675 197 674 q 244 685 219 678 q 285 696 264 689 q 297 739 290 718 l 126 747 m 100 675 q 93 626 96 651 q 275 626 133 626 q 282 678 278 653 q 247 669 263 674 q 210 660 225 664 q 194 657 200 658 q 185 657 188 656 q 100 675 176 658 m 92 521 q 117 526 101 522 q 189 544 146 533 q 274 567 229 556 q 274 610 274 589 q 92 611 131 611 q 92 521 89 569 m 167 511 q 199 509 182 510 q 228 508 215 508 q 250 508 240 508 q 263 507 260 507 l 276 507 l 276 504 l 399 522 q 332 529 360 524 q 279 553 296 538 q 193 529 233 540 q 129 514 153 519 q 167 511 146 513 m 515 553 l 515 549 l 513 544 q 508 539 511 542 l 510 539 q 533 551 519 551 l 588 557 q 589 567 588 561 l 515 568 l 515 553 m 592 621 l 532 619 q 522 600 525 610 q 518 583 519 592 l 592 582 q 593 603 593 593 q 592 621 593 613 m 546 635 l 589 636 q 589 638 589 638 q 575 644 585 646 q 546 635 558 644 m 514 358 q 503 361 507 360 q 496 368 499 364 q 494 374 494 371 q 492 381 493 376 q 490 401 490 389 q 489 417 489 408 q 279 403 338 407 l 281 336 q 285 342 283 339 q 335 363 297 357 q 400 367 360 367 l 485 363 l 497 361 l 499 349 q 499 346 499 347 l 601 347 q 601 349 601 347 q 601 350 601 350 q 564 353 583 351 q 528 357 540 356 q 514 358 519 358 m 526 285 l 597 303 q 600 313 600 308 q 603 331 601 321 l 503 331 q 511 307 506 318 q 526 285 518 294 m 589 283 l 543 274 q 557 271 550 271 l 558 271 q 588 282 576 271 q 588 283 588 282 q 589 283 589 283 m 499 517 q 500 522 499 519 l 278 489 l 279 418 q 489 432 329 421 q 490 458 489 446 q 499 517 492 494 m 163 294 q 107 285 128 290 l 274 294 q 275 306 274 300 l 267 306 q 163 294 222 303 m 85 268 q 97 182 86 221 q 285 214 161 193 q 276 258 279 238 q 275 279 275 268 l 85 268 m 103 168 q 168 76 124 114 l 339 92 q 317 129 326 110 q 289 199 300 161 q 103 168 136 174 m 213 47 q 296 15 247 29 l 388 38 q 350 76 367 56 l 188 63 q 213 47 200 54 m 329 8 q 454 -6 385 -3 q 403 25 426 7 l 329 8 m 846 194 q 831 334 860 267 q 733 440 801 401 l 711 453 l 733 467 q 826 580 797 506 q 840 732 854 654 q 775 861 826 811 q 632 915 719 915 l 617 914 l 617 915 q 592 915 600 915 q 569 915 583 915 q 382 828 449 901 q 304 572 304 740 q 338 560 317 565 q 403 553 365 554 q 464 557 438 553 q 483 561 476 558 q 483 561 483 561 q 493 610 485 588 q 518 653 501 636 q 574 676 540 674 q 617 650 604 678 q 624 603 625 632 q 622 572 624 588 q 617 547 619 556 l 615 538 l 613 528 l 535 521 q 535 519 535 521 q 528 507 531 517 q 521 457 522 489 q 521 403 519 429 q 522 389 522 396 q 532 388 528 389 q 567 385 546 386 l 617 381 l 629 379 l 632 367 q 631 307 636 338 q 611 261 625 279 q 558 239 592 239 q 510 257 531 239 q 483 294 494 271 q 469 332 475 311 q 399 335 433 335 q 339 332 363 335 q 310 322 317 328 q 308 319 310 322 q 306 306 306 313 q 307 263 304 288 q 344 143 315 200 q 603 -3 424 -8 q 625 -1 619 -3 q 776 67 719 14 q 846 194 832 121 z "},"4":{"ha":1078,"x_min":44,"x_max":1032,"o":"m 1028 344 q 1031 315 1031 333 q 1026 242 1031 286 q 1013 136 1021 189 l 1011 122 l 956 125 l 951 -39 l 946 -44 q 935 -50 942 -47 q 924 -51 931 -50 q 892 -54 911 -53 q 806 -56 856 -56 q 719 -50 756 -54 q 688 -46 700 -49 q 676 -44 681 -46 q 672 -43 675 -43 q 633 -46 660 -44 q 569 -44 604 -46 q 511 -40 535 -43 q 492 -37 500 -39 q 485 -36 488 -36 q 481 -33 482 -35 q 472 -25 475 -31 l 472 -22 l 469 53 q 218 47 419 54 q 108 46 142 44 q 72 49 85 46 q 58 53 64 50 q 46 68 49 58 l 46 69 l 46 72 q 51 249 49 156 q 61 475 57 433 q 85 519 64 492 q 133 575 103 542 q 281 713 189 631 q 435 842 357 779 q 525 913 504 899 q 536 918 529 915 q 550 921 542 919 q 592 926 565 924 q 710 936 635 932 q 943 944 825 942 l 944 944 q 957 936 953 944 q 958 932 958 933 q 960 931 958 932 q 960 928 960 929 q 960 924 960 926 q 960 907 960 917 q 957 849 958 890 q 953 668 956 797 q 944 379 944 418 q 972 378 960 379 q 996 375 986 376 q 1015 368 1008 372 l 1015 368 q 1028 344 1025 361 m 711 904 q 632 899 667 901 l 701 890 q 708 894 703 892 q 718 899 713 897 q 740 906 726 901 q 711 904 724 906 m 543 886 q 481 839 529 878 q 661 838 546 839 q 690 875 678 858 l 567 892 q 557 890 561 892 q 546 888 549 889 q 544 888 544 888 l 543 886 m 454 818 q 388 763 422 792 l 589 746 q 649 822 625 792 q 461 824 510 824 q 454 818 458 821 m 371 749 q 306 693 338 721 l 343 700 l 344 700 l 521 661 q 539 683 529 671 q 559 709 549 696 q 576 732 569 722 l 371 749 m 283 672 q 188 585 228 624 q 465 592 271 586 q 478 607 472 600 q 510 647 492 624 l 344 683 q 307 676 324 681 q 283 672 290 674 m 110 500 q 101 488 106 494 l 397 504 q 453 576 421 533 q 172 568 243 569 q 156 553 163 560 q 110 500 126 521 m 93 472 q 89 415 90 456 q 115 414 92 415 q 211 410 160 411 q 331 404 260 407 q 381 481 340 425 q 383 484 382 482 q 386 488 385 486 l 93 472 m 88 400 q 83 288 86 353 l 247 308 l 324 282 q 325 357 324 321 q 328 385 326 375 q 328 386 328 385 q 328 389 328 388 q 210 394 239 393 q 115 399 190 394 q 88 400 103 399 m 82 247 q 81 200 82 226 q 118 201 94 200 q 213 207 144 203 q 324 213 274 210 q 324 265 324 236 l 246 293 l 83 271 q 82 247 82 254 m 79 79 l 329 154 q 326 167 328 157 q 325 197 325 178 q 213 190 268 194 q 118 186 164 188 q 81 183 92 185 q 78 81 79 140 l 78 79 l 79 79 m 486 83 l 500 83 q 515 89 507 86 q 583 115 542 99 q 621 129 600 122 l 336 136 l 335 140 l 124 76 q 217 78 156 76 q 486 83 433 86 m 660 -12 l 661 17 q 590 17 624 17 q 526 15 551 15 q 503 14 514 14 l 501 14 l 503 -7 q 515 -10 510 -8 q 571 -12 538 -11 q 632 -14 604 -14 q 660 -12 647 -14 m 661 32 l 664 129 l 661 129 q 589 100 625 115 q 521 75 553 86 q 500 67 508 69 l 501 29 q 526 31 510 29 q 590 32 554 31 q 661 32 624 32 m 994 244 q 999 315 1000 288 q 997 339 999 331 q 996 343 997 340 q 990 344 993 344 q 969 347 982 346 q 928 347 953 347 l 913 347 l 913 363 q 921 669 913 385 q 926 850 925 797 q 928 907 928 890 q 928 910 928 908 q 897 906 913 908 q 824 893 861 900 q 751 876 779 883 q 729 869 738 872 q 724 867 725 868 q 503 588 724 867 q 406 463 439 507 q 360 390 367 410 q 358 389 358 390 q 358 382 358 386 q 357 356 357 372 q 356 278 356 319 q 356 199 354 231 q 358 169 357 181 q 358 169 358 169 q 358 167 358 168 l 696 160 l 692 -15 q 693 -15 693 -15 q 722 -19 704 -18 q 807 -24 758 -22 q 890 -24 856 -25 q 919 -21 908 -22 l 921 -21 l 925 157 l 985 154 q 994 244 992 203 m 708 526 q 708 504 708 518 q 708 451 710 483 l 703 379 l 703 367 l 689 365 q 624 361 656 363 q 579 360 594 360 q 563 363 568 361 q 552 368 556 364 q 547 378 549 372 q 550 389 547 383 q 572 422 554 396 q 614 479 593 453 q 656 532 639 514 q 674 549 667 543 q 685 553 679 553 q 690 553 688 553 q 696 551 693 553 q 704 543 701 549 q 708 526 707 538 m 674 396 q 675 417 674 406 l 606 415 q 599 404 601 408 q 589 392 596 400 q 622 392 604 390 q 674 396 647 393 m 676 453 q 676 464 676 457 l 642 465 q 640 463 642 465 q 639 461 639 461 q 617 431 628 447 l 675 432 q 676 453 676 443 m 678 479 q 678 504 678 493 q 678 507 678 506 q 678 510 678 508 q 653 481 668 499 l 678 479 z "},"5":{"ha":1006,"x_min":58,"x_max":956,"o":"m 860 608 q 953 333 953 539 q 894 97 954 201 q 669 -36 817 -37 q 663 -36 667 -36 l 660 -37 q 327 -17 454 -62 q 135 117 200 28 q 83 214 101 161 q 64 299 65 267 l 63 329 l 63 335 l 67 339 q 76 344 69 343 q 86 347 81 346 q 113 353 96 350 q 193 363 143 357 q 367 378 276 371 q 401 381 374 379 q 461 382 432 382 q 519 381 497 382 q 540 376 532 379 q 550 372 546 375 q 554 368 551 371 q 564 369 560 368 q 604 372 581 371 q 640 375 618 374 q 632 401 636 389 q 608 435 621 429 q 545 444 588 442 q 460 445 503 446 q 368 446 417 444 l 368 446 q 316 449 346 447 q 247 453 286 451 q 186 457 207 456 q 108 463 133 460 q 83 465 93 464 q 75 467 78 465 q 71 468 72 467 q 64 474 67 469 l 60 478 l 60 483 q 60 681 60 579 q 64 822 61 767 q 69 875 67 854 q 78 908 72 900 q 97 919 83 915 q 122 925 106 922 q 199 933 150 929 q 418 942 279 939 l 732 946 l 764 946 q 825 944 803 946 q 856 942 846 944 q 868 939 863 940 q 881 928 876 935 l 881 926 l 914 682 l 897 681 q 578 661 796 669 l 574 635 q 860 608 771 676 m 856 910 m 382 910 q 250 906 307 908 l 381 907 q 382 910 382 908 m 344 479 q 346 494 344 485 q 221 489 299 493 q 206 488 215 489 q 194 488 196 488 q 243 485 213 486 q 299 481 274 483 q 344 479 325 479 m 346 510 q 349 557 347 533 l 90 579 q 92 499 90 533 q 122 500 103 499 q 221 504 158 501 q 346 510 267 507 m 350 572 q 354 651 351 614 l 92 643 q 90 594 92 618 l 350 572 m 356 679 q 360 743 358 713 q 236 739 294 742 q 138 735 172 736 q 103 732 115 733 q 93 731 96 731 q 92 679 92 706 q 92 658 92 672 l 354 668 q 356 679 356 671 m 361 758 q 364 796 363 778 l 189 835 l 96 817 q 93 746 94 786 q 101 747 97 747 q 136 750 115 749 q 236 754 174 753 q 361 758 294 757 m 374 883 q 376 892 375 888 l 103 888 q 100 871 101 878 q 96 832 99 856 l 189 851 l 365 813 q 367 831 367 822 q 374 883 371 864 m 565 353 q 558 353 561 353 q 572 281 558 308 q 574 281 572 281 q 575 281 575 281 q 613 286 586 282 q 644 290 631 288 q 646 332 647 310 q 643 360 646 346 q 606 357 614 357 q 565 353 581 354 m 640 274 q 615 269 631 272 q 581 265 590 267 q 614 249 593 249 q 639 269 631 249 q 640 274 639 271 m 93 318 q 99 275 94 297 q 131 281 111 278 q 226 293 165 286 q 344 307 282 300 q 349 346 346 326 q 197 332 265 339 q 118 322 147 326 q 93 318 103 319 m 103 260 q 119 206 110 232 l 243 238 l 347 221 q 344 292 343 256 q 228 278 281 285 q 133 265 169 271 q 103 260 113 261 m 160 135 q 172 118 165 126 l 371 129 q 356 174 361 151 q 349 206 351 189 l 244 221 l 126 190 q 160 135 140 161 m 186 103 q 301 25 233 54 l 426 47 q 378 114 396 75 l 186 103 m 331 14 q 529 -15 415 -15 q 442 32 478 3 q 441 33 442 33 q 440 33 440 33 l 331 14 m 867 113 q 922 332 924 210 q 842 583 921 522 q 560 599 760 646 l 539 594 l 549 692 l 563 692 q 879 710 800 701 l 851 911 q 824 914 842 913 q 788 915 808 915 l 788 913 q 599 904 694 910 q 467 896 515 900 q 421 892 436 893 q 407 889 413 890 q 404 878 406 885 q 399 828 401 860 q 386 676 393 771 q 376 476 381 583 q 440 477 397 476 q 509 477 483 478 q 566 474 535 476 q 618 464 597 471 l 619 464 q 661 413 644 454 q 678 335 675 376 q 668 258 679 289 q 615 217 651 218 q 543 267 567 217 q 526 347 528 300 q 517 349 522 349 q 461 351 496 351 q 403 350 432 351 q 381 349 392 349 q 386 181 367 258 q 461 57 406 103 q 542 13 494 29 q 656 -3 590 -3 l 656 -6 l 658 -6 q 669 -6 663 -6 q 867 113 799 -7 z "},"6":{"ha":979,"x_min":46,"x_max":936,"o":"m 829 567 q 932 318 926 504 q 844 58 935 158 q 564 -39 744 -51 q 235 47 356 -37 q 72 269 114 132 q 49 442 46 351 q 70 611 51 533 q 119 753 89 689 q 347 924 178 872 q 629 960 465 960 q 763 956 668 960 l 764 956 l 765 956 q 788 936 778 951 q 801 906 794 924 q 818 822 811 872 q 825 738 825 776 q 824 706 825 718 q 817 681 822 689 l 813 672 l 803 674 q 767 672 789 675 q 721 659 746 668 q 674 639 696 650 q 600 571 618 608 q 829 567 743 624 m 629 929 q 426 911 517 929 l 583 904 q 647 929 615 918 q 629 929 638 929 m 357 894 q 221 828 275 869 q 251 832 239 829 q 322 838 307 838 q 357 835 331 838 q 406 828 376 832 q 453 819 428 824 q 536 879 490 853 q 554 889 544 885 l 371 899 q 367 897 369 897 q 361 895 364 896 q 357 894 358 894 m 147 739 q 140 724 146 735 l 228 718 l 386 744 q 439 806 410 778 q 403 813 419 810 q 354 819 372 817 q 322 822 331 822 q 253 815 308 822 q 200 810 229 813 q 147 739 167 778 m 135 708 q 115 654 124 683 q 133 653 124 654 q 222 644 165 649 q 331 635 271 640 q 375 726 347 683 l 228 701 l 135 708 m 110 640 q 90 554 97 597 q 115 554 101 554 q 201 551 149 553 q 310 547 250 550 q 325 619 315 585 q 221 629 268 624 q 132 638 165 633 q 110 640 119 639 m 88 539 q 81 443 81 490 l 100 458 l 103 458 q 211 442 157 449 q 288 431 260 435 q 306 429 297 431 q 303 478 304 454 q 307 532 304 506 q 201 536 251 535 q 115 538 147 538 q 88 539 97 539 m 81 422 q 90 331 82 375 l 317 333 q 307 414 310 372 q 286 415 299 414 q 208 426 256 419 q 104 442 150 435 l 81 422 m 101 279 q 128 214 113 244 l 339 236 q 319 318 328 275 l 93 315 q 101 279 97 294 m 135 199 q 192 122 158 156 l 378 140 q 344 221 358 178 l 135 199 m 207 107 q 310 40 251 67 l 421 72 q 386 126 401 97 l 207 107 m 333 31 q 501 -4 407 3 q 442 47 469 17 q 432 58 438 53 l 333 31 m 822 79 q 901 318 903 169 q 813 542 896 486 q 583 531 731 594 l 561 521 l 561 546 q 660 667 564 615 q 793 706 732 704 q 793 708 793 707 q 794 738 794 719 q 788 818 793 775 q 771 896 781 865 q 761 919 767 911 q 758 924 760 922 q 551 851 651 910 q 335 478 342 731 q 464 69 342 203 q 549 6 503 26 q 576 -6 563 -1 q 583 -7 579 -6 q 579 -8 581 -7 q 822 79 735 -15 m 682 408 q 706 347 701 383 q 693 279 708 310 q 635 236 674 244 l 632 236 l 629 236 q 581 275 597 242 q 567 336 567 301 q 579 397 567 372 q 625 431 596 428 q 633 432 629 432 q 682 408 663 432 m 628 400 q 610 386 617 399 l 661 385 q 658 389 660 386 q 633 401 647 401 q 629 400 632 400 l 628 400 m 665 294 q 668 301 665 296 l 607 292 q 608 290 607 290 q 608 289 608 289 q 632 268 618 272 q 665 294 654 274 m 672 318 q 674 344 675 331 q 668 368 672 357 l 603 371 q 597 338 597 354 q 601 306 597 321 l 672 318 z "},"7":{"ha":956,"x_min":40,"x_max":908,"o":"m 896 900 q 907 831 907 881 q 900 721 907 788 q 854 426 888 600 q 794 144 825 271 q 769 51 779 86 q 758 24 764 33 q 754 14 757 17 q 746 4 750 7 l 744 3 l 743 3 q 601 -22 713 -7 q 525 -32 593 -24 q 485 -37 490 -36 l 483 -37 l 482 -37 q 333 -32 401 -36 q 243 -22 278 -28 q 211 -14 222 -18 q 188 6 192 -7 l 186 10 l 328 497 q 206 488 267 490 q 104 483 142 483 q 68 486 81 483 q 54 489 60 488 q 42 504 43 494 q 40 526 40 510 q 40 563 40 540 q 46 661 42 606 q 51 760 49 719 q 56 796 54 782 q 60 819 58 813 q 72 832 63 826 q 85 838 76 835 q 122 847 99 842 q 229 865 161 856 q 383 885 301 875 q 543 913 433 901 q 744 922 643 922 q 840 918 803 922 q 872 914 860 917 q 885 910 879 913 q 896 901 892 907 l 896 900 m 88 804 m 86 792 q 85 771 86 783 l 350 792 q 357 850 353 822 q 233 835 289 842 q 129 817 168 825 q 96 808 107 813 q 89 806 92 807 q 86 792 88 799 m 83 756 q 78 682 81 724 l 207 682 l 346 713 q 347 743 347 729 q 350 776 349 758 l 83 756 m 72 526 q 72 522 72 525 q 232 585 111 538 q 354 635 282 606 q 353 640 354 638 q 347 669 349 651 q 346 697 346 681 l 208 667 l 76 667 q 76 663 76 665 q 76 660 76 660 q 72 561 74 604 q 72 526 72 540 m 204 518 q 239 521 219 519 q 357 578 304 553 q 433 614 401 600 q 372 618 394 614 l 371 618 l 369 619 q 364 621 367 619 q 238 571 299 594 q 94 515 138 532 q 104 514 99 514 q 204 518 140 514 m 282 524 q 349 531 349 531 l 371 533 l 511 565 l 604 633 q 532 624 556 626 q 475 617 499 619 q 456 608 468 614 q 364 564 421 592 q 282 524 324 544 m 544 489 l 579 465 q 604 556 597 528 q 624 628 618 604 l 518 550 l 367 517 l 354 476 q 372 478 364 476 q 443 482 397 479 l 542 489 l 544 489 m 575 449 l 540 474 q 533 473 539 474 q 519 472 528 472 q 499 471 510 472 q 473 469 488 469 q 444 467 458 468 q 374 461 401 464 q 350 460 360 461 l 336 413 l 563 406 q 575 449 569 429 m 332 397 l 308 318 l 458 317 l 529 282 q 542 332 535 307 q 558 390 550 360 l 332 397 m 304 303 l 278 214 q 282 213 281 213 q 311 206 293 210 q 392 185 340 199 q 496 156 442 171 q 525 267 507 204 l 454 301 l 304 303 m 465 22 q 472 60 468 38 q 356 67 432 63 q 260 74 267 72 q 238 75 244 74 l 221 15 q 221 15 221 15 q 249 8 231 11 q 335 -1 281 3 q 464 -6 393 -4 q 464 -6 464 -6 q 465 22 464 6 m 482 103 q 492 140 486 118 q 388 169 436 157 q 307 190 340 182 q 278 197 289 196 q 274 199 276 197 l 242 90 q 253 89 246 90 q 260 89 258 89 q 356 82 269 88 q 476 75 403 79 q 482 103 479 88 m 728 29 m 869 724 q 876 831 876 790 q 869 882 876 865 q 865 883 868 882 q 838 888 856 886 q 744 890 801 890 q 546 881 644 890 q 392 854 438 871 l 390 854 l 389 853 q 379 742 381 796 q 379 672 376 697 q 382 650 379 658 q 383 647 382 649 q 529 654 425 642 q 604 664 549 657 q 631 668 619 667 q 639 668 636 668 q 646 668 643 669 q 657 661 653 667 q 660 656 658 658 q 660 650 660 653 q 658 643 660 647 q 654 621 657 635 q 635 547 649 597 q 605 441 626 517 q 572 324 583 365 q 513 96 532 176 q 497 17 501 44 q 494 -4 494 4 q 521 -1 501 -3 q 553 3 525 0 q 597 8 581 7 q 728 31 696 22 q 731 35 729 35 q 739 61 733 43 q 764 153 750 94 q 824 432 794 276 q 869 724 856 606 z "},"8":{"ha":1071,"x_min":32,"x_max":1024,"o":"m 639 567 q 603 617 617 588 q 593 676 588 649 q 635 724 599 710 q 669 731 651 732 q 701 724 686 731 q 746 676 732 708 q 747 608 761 647 q 693 546 733 569 l 689 543 l 685 543 q 639 567 664 543 m 682 575 q 719 619 711 594 q 708 618 714 618 q 672 619 694 618 q 635 622 656 621 q 660 590 646 603 q 682 575 671 579 m 647 694 q 625 675 629 688 l 701 686 q 688 696 694 692 q 669 700 679 700 q 647 696 658 700 l 647 694 m 713 672 l 624 658 q 628 638 624 649 q 673 635 651 636 q 708 635 694 635 q 721 635 717 635 q 722 635 721 635 q 717 664 722 650 q 713 672 715 667 m 731 331 q 769 271 758 308 q 768 197 783 229 q 697 150 750 158 q 617 187 643 139 q 606 289 590 235 q 668 346 621 343 q 682 349 675 349 q 731 331 707 350 m 671 314 q 644 296 656 314 l 708 308 q 685 318 696 318 q 678 315 681 317 l 675 314 l 671 314 m 740 210 q 744 226 743 217 q 738 226 742 226 q 693 229 728 228 q 633 233 671 231 q 651 191 636 207 q 692 181 665 175 l 692 181 q 740 210 729 186 m 739 242 q 744 242 742 242 q 740 261 743 251 q 722 294 735 279 l 636 278 q 632 249 633 264 q 693 244 658 247 q 739 242 710 244 m 972 382 q 1018 196 1022 311 q 897 17 1014 82 q 646 -37 793 -42 q 422 -56 524 -60 l 419 -56 q 246 -18 321 -50 l 244 -18 q 240 -16 243 -17 q 236 -14 238 -15 q 65 176 101 46 q 89 396 32 293 q 201 494 131 469 q 87 601 126 533 q 63 739 47 668 q 181 883 81 829 q 456 943 283 939 l 456 944 l 482 944 q 686 929 576 944 l 690 929 q 876 893 800 931 q 992 706 990 838 q 963 569 1000 644 q 867 465 928 497 q 972 382 935 436 m 482 913 q 239 876 336 913 q 433 878 322 876 q 507 913 465 900 q 482 913 493 913 l 482 913 m 194 856 q 108 774 135 822 q 178 781 138 776 q 244 788 239 788 q 276 781 253 788 q 318 765 293 775 q 351 753 335 760 q 410 858 365 818 q 411 860 410 860 q 413 861 413 861 q 203 860 235 860 q 194 856 197 857 m 93 732 q 97 656 85 694 l 351 660 q 347 722 347 690 l 347 724 q 349 738 347 726 q 313 751 329 744 q 271 765 288 761 q 244 772 251 772 q 179 765 239 772 q 100 758 133 760 q 93 732 96 746 m 158 561 q 164 564 161 563 q 189 576 174 569 l 221 596 l 224 597 l 386 560 q 354 644 364 597 l 103 639 q 158 561 121 596 m 172 550 q 257 507 210 521 l 413 521 q 397 540 404 531 l 226 581 q 196 563 210 571 q 172 550 182 556 m 426 507 l 260 492 l 260 490 l 454 485 q 429 504 440 494 q 428 506 429 506 q 426 507 426 507 m 258 474 q 167 442 207 474 q 193 440 179 440 q 296 442 232 440 q 421 443 354 442 q 464 469 440 458 l 258 475 l 258 474 m 117 381 q 104 354 110 368 q 149 346 124 350 q 172 341 160 343 q 190 338 183 339 q 197 336 197 336 q 236 354 215 346 q 313 375 285 375 q 361 379 340 375 q 401 428 378 407 q 296 425 344 426 q 193 425 232 425 q 150 426 165 425 q 117 381 131 407 m 99 340 q 86 268 88 306 q 107 271 94 268 q 183 281 139 275 l 290 297 l 294 297 l 326 269 q 351 363 331 321 q 313 360 333 360 q 243 340 288 360 l 203 321 l 200 319 l 197 319 q 146 331 172 325 q 99 340 111 338 m 94 185 q 108 149 100 167 q 239 161 151 149 q 332 174 283 167 q 328 201 329 189 q 325 250 325 225 l 290 281 q 284 280 289 281 q 273 278 279 279 q 256 276 267 278 q 235 273 246 275 q 212 269 225 271 q 186 265 199 268 q 110 256 143 260 q 86 251 92 253 q 94 185 86 217 m 165 69 q 190 64 174 68 q 201 61 196 63 q 211 59 207 60 q 219 57 215 58 q 222 56 222 56 l 356 111 q 336 158 343 133 q 242 144 288 151 q 117 133 157 133 q 165 69 136 97 m 249 14 q 274 4 260 10 l 424 38 q 364 97 388 64 l 224 40 l 221 40 q 192 47 207 43 q 249 14 218 28 m 303 -6 q 453 -25 369 -24 l 501 -4 q 494 -1 494 -1 q 442 26 467 11 l 303 -6 m 494 -24 q 549 -19 522 -22 q 524 -11 536 -17 l 494 -24 m 986 197 q 947 364 992 301 q 818 449 906 424 l 764 465 l 818 479 q 935 583 893 500 q 957 649 950 615 q 961 704 964 683 l 961 706 q 863 865 960 818 q 685 897 790 900 l 683 897 q 679 897 682 897 q 675 897 676 896 q 669 897 671 897 l 668 897 q 664 897 667 897 q 629 897 643 897 q 529 886 574 897 q 431 836 468 871 q 378 722 386 793 q 450 528 378 593 q 484 503 467 513 q 511 490 501 493 l 521 488 l 521 457 q 429 411 474 447 q 358 206 342 339 l 358 204 q 506 28 368 85 q 643 -6 574 0 l 646 -6 q 882 44 785 -11 q 986 197 983 101 z "},"9":{"ha":1004,"x_min":28,"x_max":954,"o":"m 915 731 q 951 458 954 628 q 822 86 946 224 q 511 -35 700 -50 l 506 -36 q 374 -54 440 -46 q 283 -65 315 -62 q 253 -67 264 -67 q 242 -66 246 -67 q 235 -64 238 -65 q 229 -60 232 -62 q 225 -49 225 -56 l 225 -50 l 225 -47 q 224 -40 225 -44 q 222 -28 224 -36 q 221 -15 221 -19 q 211 57 214 26 q 208 129 207 103 q 214 156 210 146 q 221 168 217 164 q 236 175 228 175 q 363 211 288 179 q 419 253 397 225 q 422 257 421 254 q 401 258 422 257 q 375 259 379 258 q 351 260 371 260 q 322 263 331 261 q 294 267 313 264 q 264 272 276 269 q 236 280 251 275 q 207 290 221 285 q 94 380 139 319 q 40 542 49 440 q 108 778 28 685 q 294 889 174 851 q 493 922 382 917 q 565 925 528 925 l 589 931 l 590 925 q 607 925 604 925 q 642 926 624 926 q 658 926 650 926 l 658 926 q 915 731 846 913 m 304 860 q 254 842 278 851 q 431 854 321 846 q 451 871 442 864 q 483 890 467 881 q 304 860 382 883 m 132 757 q 128 751 132 756 q 154 751 140 750 q 225 761 185 753 l 313 785 l 315 785 l 367 769 q 414 836 386 807 q 217 822 268 826 q 132 757 165 794 m 117 736 q 75 635 85 692 q 106 635 86 635 q 206 635 140 635 q 332 633 269 633 q 360 756 335 700 l 315 768 q 229 746 275 756 q 156 736 186 738 q 117 736 132 735 m 72 543 q 72 538 72 542 q 72 535 72 535 q 135 542 99 536 q 194 551 171 547 l 217 556 l 219 557 l 340 517 q 333 576 335 546 q 332 617 332 594 q 206 619 268 618 q 106 619 139 619 q 72 619 86 619 q 72 543 68 583 m 119 396 q 371 424 175 401 q 344 499 354 457 l 218 540 q 75 519 135 522 q 119 396 85 444 m 192 332 q 317 354 228 338 q 406 371 356 361 q 379 408 390 389 q 131 382 197 388 q 192 332 156 351 m 218 319 q 326 294 263 301 q 444 335 357 304 q 418 358 431 344 q 319 339 367 347 q 217 321 251 326 q 218 319 217 321 m 365 292 q 406 290 381 290 q 438 288 431 289 q 454 278 449 288 q 458 268 458 274 q 486 274 472 271 q 563 292 507 279 q 656 313 604 300 q 656 324 656 318 q 566 299 614 300 q 469 319 518 297 q 463 324 468 319 q 365 292 400 303 m 374 182 q 364 178 371 181 q 365 178 364 178 q 454 193 407 185 q 461 201 457 197 q 488 214 469 208 q 519 221 500 218 q 553 226 529 222 q 585 232 576 231 q 651 296 638 243 q 567 276 600 283 q 490 258 522 267 q 456 251 463 253 q 443 233 451 243 q 374 182 417 200 m 240 126 q 240 107 239 118 q 242 107 242 107 q 269 114 247 108 q 349 133 304 122 q 450 158 393 144 q 450 176 450 169 q 368 163 408 169 q 290 150 321 154 q 261 146 272 147 q 244 144 249 144 q 243 144 244 144 q 240 126 240 139 m 243 60 q 244 42 243 51 l 464 64 q 463 74 464 68 q 451 143 454 114 q 353 118 396 129 q 274 99 304 107 q 246 92 249 93 q 240 90 244 92 q 243 60 242 76 m 371 -24 q 483 -8 425 -17 q 479 6 482 -3 q 468 49 474 24 l 247 26 q 251 -10 249 8 q 256 -35 253 -17 q 281 -33 265 -35 q 371 -24 313 -31 m 506 -4 q 508 -4 506 -4 q 510 -4 510 -4 q 504 -4 507 -3 l 506 -4 m 921 460 q 886 719 922 622 q 657 894 825 882 q 642 894 649 894 q 608 893 625 894 l 607 893 q 599 893 603 893 q 585 893 594 893 q 569 893 576 893 q 471 846 515 878 q 364 578 350 757 q 485 347 378 400 q 574 331 529 326 q 654 358 619 335 q 656 361 656 361 q 668 364 661 364 q 682 354 676 363 q 686 338 685 349 q 683 292 689 317 q 653 235 676 261 q 592 201 631 210 q 556 196 581 200 q 525 190 532 192 q 496 183 507 188 q 482 179 488 182 q 482 174 482 176 q 482 150 481 165 q 493 81 483 122 q 510 14 500 43 q 515 -4 513 3 q 799 107 688 -17 q 921 460 914 236 m 661 689 q 679 599 674 646 q 683 550 683 568 q 679 529 682 538 q 663 513 675 515 q 601 522 632 507 q 554 593 558 543 l 554 593 q 597 676 553 643 q 618 690 607 685 q 635 699 629 696 l 642 700 l 657 706 l 661 689 m 635 664 q 617 652 625 658 q 603 639 608 646 l 640 639 q 635 664 639 651 m 585 594 q 603 558 588 571 l 647 601 q 644 622 646 613 l 592 624 q 585 594 585 610 m 651 551 q 650 582 653 563 l 615 550 q 651 543 632 542 q 651 551 651 547 z "},"\u0000":{"ha":0,"x_min":0,"x_max":0,"o":""},"\n":{"ha":0,"x_min":0,"x_max":0,"o":""},"\r":{"ha":0,"x_min":0,"x_max":0,"o":""}," ":{"ha":586,"x_min":0,"x_max":0,"o":""},"!":{"ha":722,"x_min":53,"x_max":660,"o":"m 136 435 q 101 439 114 438 q 90 442 94 440 q 85 444 86 443 q 76 453 78 447 q 75 460 75 456 q 74 465 74 463 q 72 485 74 472 q 69 547 71 507 q 63 732 67 614 l 54 996 l 54 997 q 71 1021 56 1010 q 99 1035 81 1028 q 181 1063 131 1049 q 358 1094 294 1096 q 371 1094 365 1094 l 371 1094 q 547 1073 500 1081 q 619 1057 594 1065 q 643 1044 635 1051 q 653 1035 650 1040 q 656 1019 657 1028 l 656 1022 l 654 485 l 649 479 q 631 471 643 475 q 604 463 619 467 q 531 444 572 453 q 396 425 443 425 l 379 425 q 236 429 308 426 q 136 435 172 432 m 542 1042 q 371 1063 494 1050 l 379 457 l 381 457 q 524 475 422 453 q 596 492 564 483 q 619 500 611 496 q 622 500 621 500 q 622 501 622 501 l 625 1019 q 610 1026 619 1024 q 542 1042 588 1035 m 349 457 l 347 525 q 283 515 313 519 q 225 506 251 510 q 203 503 210 504 q 192 501 194 501 q 183 503 189 501 q 172 506 179 503 q 139 511 163 507 q 106 518 114 517 q 101 518 103 518 q 104 486 103 501 q 104 471 104 476 q 106 470 106 471 q 107 469 107 469 q 139 467 118 468 q 238 461 175 463 q 349 457 292 458 m 86 992 q 86 988 86 992 q 86 978 86 985 q 86 963 86 971 l 340 1001 l 340 1063 q 189 1033 276 1058 q 111 1007 140 1019 q 89 994 96 1000 q 86 992 86 993 m 88 947 q 88 936 88 943 q 88 922 88 929 q 88 907 88 914 l 342 901 l 340 986 l 88 947 m 89 892 q 90 824 90 860 q 118 828 103 825 q 130 828 122 828 q 142 831 138 829 q 149 831 146 831 q 153 832 153 832 q 157 832 154 832 q 164 831 160 831 q 188 829 169 831 q 256 824 217 826 q 343 817 279 822 l 342 886 l 89 892 m 92 808 q 93 749 92 781 q 135 750 107 749 q 229 754 168 751 q 344 760 283 757 l 343 801 q 254 808 318 803 q 186 814 207 813 q 163 815 168 815 q 160 815 161 815 q 156 815 157 815 q 154 815 156 815 q 153 815 154 815 q 151 815 151 815 q 143 815 149 815 q 133 813 142 814 q 121 813 125 813 q 92 808 99 810 m 94 733 q 96 668 94 700 q 129 669 115 668 q 172 670 139 669 q 224 671 206 671 q 346 674 344 674 l 344 744 q 231 739 285 742 q 136 735 179 736 q 94 733 107 733 m 97 653 q 99 611 97 626 q 101 611 99 611 q 133 613 111 611 q 228 614 154 613 q 346 617 265 615 l 346 657 q 225 656 344 657 q 129 653 206 654 q 117 653 124 653 q 106 653 111 653 q 97 653 100 653 m 100 549 q 101 542 101 547 q 101 535 101 538 q 108 533 106 535 q 142 526 119 532 q 175 521 169 521 q 186 518 182 519 l 192 518 q 201 518 193 518 q 222 521 208 519 q 281 531 247 525 q 347 542 313 536 l 346 601 q 228 599 272 600 q 135 596 156 597 q 103 596 111 596 q 99 596 99 596 q 100 549 100 567 m 646 368 l 660 367 l 653 104 l 647 100 q 626 93 640 96 q 597 89 615 92 q 519 85 564 86 q 436 86 474 85 q 383 92 401 89 l 103 94 l 101 110 q 96 214 97 160 q 96 293 94 263 q 100 325 97 313 q 110 350 103 342 q 133 361 117 357 q 167 367 146 364 q 264 374 203 371 q 490 378 356 378 q 504 378 499 378 q 521 378 514 378 q 646 368 582 378 m 351 124 l 351 153 l 129 160 q 132 126 131 142 l 351 124 m 351 168 l 353 206 l 128 201 q 129 175 128 189 l 351 168 m 353 221 l 353 274 q 246 263 299 268 q 158 253 192 257 q 126 250 138 251 q 126 217 126 233 l 353 221 m 353 290 l 354 310 l 129 311 q 127 292 128 301 q 126 265 126 282 q 156 268 136 267 q 244 278 182 271 q 353 290 290 283 m 357 325 q 379 346 363 336 q 265 343 314 344 q 169 336 204 340 q 140 331 151 333 q 133 328 139 331 q 132 326 133 328 l 357 325 m 622 125 l 628 339 q 521 347 571 346 q 504 347 511 347 q 492 347 500 347 q 428 333 461 344 q 394 319 407 326 q 385 311 390 317 l 383 125 l 383 124 q 438 118 399 119 q 518 117 474 115 q 594 121 563 117 q 621 124 610 122 q 622 124 621 124 q 622 125 622 125 z "},"\"":{"ha":1067,"x_min":42,"x_max":1028,"o":"m 500 892 q 507 738 506 811 q 508 683 508 704 q 507 664 507 672 q 504 650 506 654 l 504 642 q 501 642 504 642 l 500 640 l 494 639 q 268 601 354 613 q 132 588 182 589 q 85 589 101 586 q 68 593 75 590 q 54 610 57 597 q 49 644 51 619 q 46 699 47 665 q 43 842 44 754 q 42 1050 42 943 l 42 1058 l 46 1064 q 103 1099 61 1086 q 182 1113 133 1107 q 256 1118 199 1114 q 279 1121 272 1119 q 286 1121 283 1121 q 288 1122 288 1122 l 289 1124 l 293 1124 q 390 1125 301 1124 q 411 1126 404 1126 q 428 1126 421 1126 q 450 1122 444 1125 q 464 1113 458 1121 q 472 1093 468 1106 q 483 1042 478 1075 q 500 892 493 985 m 68 1040 q 68 1034 68 1039 q 68 1024 68 1029 q 68 1013 68 1019 q 68 999 68 1006 l 283 1047 q 285 1082 283 1068 q 283 1082 285 1082 q 282 1081 282 1082 q 257 1079 274 1081 q 183 1074 203 1075 q 108 1060 138 1068 q 68 1040 82 1053 m 68 982 q 69 932 69 936 l 139 953 l 282 969 q 282 1024 282 999 q 283 1028 282 1025 q 283 1032 283 1031 l 68 982 m 69 917 q 69 856 69 886 q 186 858 93 857 q 226 859 206 858 q 263 860 246 860 q 282 861 279 860 q 282 896 282 882 q 282 954 282 922 l 140 938 l 69 917 m 69 840 q 72 742 71 783 q 83 743 78 742 q 125 750 100 746 l 179 763 l 181 763 l 286 758 q 285 771 286 764 q 283 844 283 804 q 186 843 193 843 q 69 840 101 840 m 78 635 q 85 638 81 636 q 113 647 93 640 q 192 676 140 657 q 290 711 236 692 q 289 726 290 714 q 288 743 288 733 l 181 746 q 126 735 171 743 q 85 728 101 731 q 72 725 76 726 q 74 701 72 707 q 76 649 74 668 q 78 635 76 642 m 265 640 q 382 658 319 647 q 336 669 354 664 q 311 679 321 674 q 294 696 299 686 q 194 661 226 672 q 115 632 147 644 q 99 626 100 626 q 131 626 113 625 q 265 640 181 628 m 481 685 q 481 736 482 704 q 474 888 479 808 q 458 1032 467 978 q 449 1076 453 1061 q 444 1085 447 1081 q 442 1085 444 1085 q 436 1085 440 1085 q 428 1086 432 1086 q 411 1086 421 1086 q 392 1086 403 1086 q 357 1085 390 1086 q 306 1085 324 1085 q 304 1022 304 1060 q 303 896 303 965 q 307 774 304 824 q 310 731 308 747 q 310 722 310 726 q 312 716 311 718 q 313 714 313 714 q 313 713 313 714 q 319 708 317 710 q 340 700 328 704 q 406 685 365 692 q 471 676 436 681 q 479 675 472 676 q 481 675 481 675 q 481 685 481 683 m 1024 1060 q 1025 908 1028 1003 q 1019 754 1024 828 q 1015 699 1018 721 q 1014 681 1014 689 q 1010 667 1013 671 l 1007 658 l 1000 657 q 785 621 863 632 q 654 608 703 610 q 610 610 626 607 q 594 615 600 611 q 581 632 583 619 q 575 667 578 642 q 572 721 574 689 q 569 864 571 778 q 568 1072 568 965 l 568 1081 l 572 1086 q 629 1121 588 1108 q 708 1135 660 1129 q 782 1140 728 1136 q 806 1142 799 1142 q 813 1143 811 1143 q 814 1144 814 1143 l 815 1146 l 819 1146 q 926 1147 821 1146 q 950 1147 942 1147 q 971 1147 961 1149 q 996 1144 990 1147 q 1010 1133 1004 1143 q 1017 1113 1014 1125 q 1024 1060 1021 1094 m 594 1063 q 594 1021 594 1047 l 810 1069 q 811 1104 810 1090 q 808 1103 810 1103 q 783 1101 801 1103 q 710 1094 728 1097 q 635 1082 664 1090 q 594 1063 608 1074 m 594 1004 q 596 953 594 982 l 763 969 l 808 999 q 808 1046 808 1024 q 809 1050 808 1047 q 810 1054 810 1053 l 594 1004 m 596 865 q 596 859 596 863 q 596 853 596 856 q 596 847 596 850 q 596 842 596 844 q 636 847 607 843 q 714 863 668 854 q 808 881 761 871 q 808 918 808 897 q 808 982 808 950 l 765 954 l 596 938 q 596 865 596 899 m 597 825 q 599 763 597 792 q 629 765 611 764 l 663 771 l 813 779 q 811 793 813 788 q 810 864 810 824 q 715 847 760 856 q 638 832 671 839 q 597 825 607 826 m 604 656 q 611 660 611 660 q 639 669 624 664 q 718 699 669 681 q 817 733 758 713 q 815 749 817 738 q 814 764 814 756 l 663 756 q 661 756 663 756 q 656 755 660 756 q 649 753 653 754 q 640 752 646 753 q 631 750 635 751 q 599 747 610 747 q 600 724 599 732 q 603 671 600 692 q 604 656 603 663 m 782 660 q 897 678 836 668 q 857 690 874 683 q 836 701 844 696 q 821 718 825 708 q 721 683 763 697 q 642 654 668 664 q 624 647 632 651 q 654 647 636 647 q 782 660 701 649 m 999 910 q 997 1056 1000 1001 q 992 1100 994 1086 q 990 1107 990 1104 l 989 1107 q 971 1108 986 1108 q 950 1108 963 1108 q 928 1108 944 1108 q 888 1108 925 1108 q 832 1106 851 1107 q 831 1044 831 1082 q 829 918 829 986 q 833 796 831 846 q 836 753 835 769 q 837 744 836 749 q 838 738 838 740 q 839 735 839 735 l 844 729 q 863 721 851 725 q 915 706 883 713 q 969 694 940 699 q 983 693 976 694 q 986 693 985 693 l 988 694 q 989 704 989 700 q 993 758 992 725 q 999 910 997 831 z "},"#":{"ha":1446,"x_min":54,"x_max":1397,"o":"m 997 668 l 1004 664 l 1008 579 l 1007 575 q 997 567 1004 569 q 990 564 994 565 q 975 563 985 563 q 932 559 957 560 q 890 558 907 558 q 875 560 882 558 q 869 560 872 560 q 865 563 867 561 q 857 569 860 564 l 856 572 l 857 668 l 868 671 q 929 679 893 679 q 968 676 950 679 q 997 668 988 674 m 888 643 l 888 635 l 975 628 l 975 643 q 963 644 968 644 q 929 647 947 647 q 888 643 907 647 m 971 593 q 974 593 972 593 q 976 594 976 593 l 976 613 l 888 619 l 888 590 q 889 590 888 590 q 892 590 890 590 q 931 590 907 589 q 971 593 956 592 m 983 594 l 985 596 q 983 594 983 594 m 1397 392 q 1396 360 1397 372 q 1390 338 1394 344 l 1386 329 l 1228 332 l 1226 282 l 1225 278 q 1181 244 1214 261 q 1115 219 1151 231 q 1049 207 1078 210 q 997 221 1011 206 l 996 222 q 982 225 992 224 q 932 238 963 231 q 881 250 913 242 l 879 247 q 840 217 868 232 q 782 192 815 203 q 720 178 749 182 q 674 178 692 174 q 475 110 551 133 q 371 86 408 90 q 333 85 347 82 q 318 90 324 86 q 307 106 308 96 l 306 108 l 310 157 q 224 154 264 156 q 149 156 176 153 q 121 158 131 157 q 110 161 114 160 q 97 171 101 165 q 94 182 96 175 q 92 196 93 188 q 89 232 90 210 q 86 332 88 271 l 85 472 l 85 478 l 89 483 q 99 489 92 486 q 108 493 101 490 q 135 503 118 497 q 210 525 164 513 q 314 553 268 540 q 313 564 314 558 q 310 578 313 569 q 308 579 310 578 q 281 578 299 579 q 258 577 274 578 q 228 576 242 576 q 201 576 214 576 q 124 576 150 575 q 97 579 107 576 q 86 582 90 581 q 74 597 75 588 l 56 935 l 58 939 q 69 946 63 944 q 78 949 72 947 q 101 953 86 951 q 168 957 125 956 q 237 960 190 958 q 303 964 283 963 l 296 1022 l 297 1025 q 310 1046 299 1035 q 332 1063 318 1053 q 390 1093 354 1076 q 453 1118 422 1108 q 494 1128 482 1128 q 496 1128 496 1128 q 497 1128 497 1128 q 503 1128 501 1128 l 854 1086 q 869 1088 864 1088 q 886 1083 879 1086 l 893 1079 l 893 1082 l 899 1081 l 897 1075 q 1015 1068 956 1071 q 1106 1068 1064 1068 q 1226 1078 1178 1082 l 1242 1076 l 1239 913 l 1315 915 l 1318 914 q 1340 894 1331 910 q 1354 863 1349 882 q 1371 779 1364 829 q 1379 694 1378 733 q 1378 663 1379 675 q 1372 639 1376 646 l 1368 632 l 1233 633 l 1233 608 l 1333 613 l 1336 613 q 1358 592 1349 608 q 1372 560 1365 579 q 1389 476 1382 526 q 1397 392 1396 431 m 81 917 l 81 918 q 81 917 81 917 m 893 1054 l 893 956 q 903 956 900 956 q 916 956 907 956 q 931 958 925 957 q 964 961 953 960 l 964 988 l 896 990 l 896 1006 l 967 1003 q 1014 1042 979 1025 q 1042 1053 1026 1047 q 1014 1053 1029 1053 q 894 1058 953 1054 l 893 1054 m 892 939 l 892 896 l 964 899 l 964 944 q 957 944 963 944 q 944 944 951 944 q 932 943 938 943 q 904 940 914 940 q 892 939 899 940 m 349 1036 q 335 1025 340 1031 l 604 1004 q 606 1010 606 1007 q 615 1024 607 1018 q 626 1029 619 1026 q 657 1040 638 1035 q 743 1061 689 1050 q 765 1065 753 1063 l 496 1097 q 463 1089 482 1096 q 403 1065 435 1079 q 349 1036 369 1050 m 604 989 l 329 1010 l 336 954 l 601 894 q 608 894 604 894 q 606 933 607 913 q 604 976 604 958 q 604 989 604 981 m 169 926 q 154 925 160 925 l 515 879 q 526 888 518 883 q 542 890 532 889 q 543 891 542 890 q 544 892 544 892 l 338 938 l 339 935 l 322 933 q 243 929 299 932 q 169 926 188 926 m 539 858 m 88 918 l 94 799 q 163 810 117 803 q 208 815 189 813 q 235 818 229 818 q 253 817 238 818 q 289 811 265 814 q 390 797 324 807 q 522 779 457 789 q 514 833 517 811 q 513 857 513 849 q 511 864 511 861 l 88 918 m 96 783 l 99 713 q 103 713 99 713 q 119 713 110 713 q 172 715 140 714 q 329 719 225 717 q 532 724 440 722 q 525 763 528 744 q 389 782 460 772 q 286 796 326 790 q 251 800 264 799 l 235 803 q 210 800 231 803 q 165 793 194 797 q 96 783 117 786 m 100 696 l 104 624 q 122 626 111 625 q 178 636 143 631 q 335 657 235 644 q 540 682 431 669 q 539 683 540 682 q 539 685 539 685 q 535 707 538 693 q 535 708 535 707 q 329 703 449 707 q 174 699 226 700 q 119 697 140 699 q 104 697 110 697 q 100 696 101 697 m 308 610 q 326 608 321 610 l 335 607 l 336 599 l 565 657 q 556 660 560 658 q 546 667 549 663 q 336 642 433 654 q 179 621 240 629 q 125 611 144 615 q 110 608 117 610 q 125 607 117 608 q 201 607 151 606 q 227 608 213 607 q 257 608 242 608 q 279 610 272 608 q 308 610 297 610 m 607 651 l 340 583 q 343 569 343 575 q 344 558 344 564 l 346 558 q 374 561 356 560 q 449 569 401 565 q 532 576 489 574 l 532 581 l 546 583 q 585 585 554 585 q 614 585 604 585 l 614 651 q 611 651 614 651 q 607 651 608 651 m 568 689 l 568 689 l 568 689 m 329 524 q 247 503 308 519 q 340 525 285 511 q 468 556 403 540 q 462 555 465 556 q 456 554 458 554 q 450 554 453 554 q 375 546 403 550 q 349 543 357 544 q 344 542 347 543 q 343 536 344 539 q 329 524 339 526 m 117 458 q 117 428 117 449 q 168 435 136 431 q 328 454 215 440 q 543 481 472 472 q 535 556 539 515 q 343 510 435 531 q 194 475 251 488 q 139 463 161 467 q 117 458 124 460 m 117 413 q 118 333 117 374 l 556 403 q 546 465 550 428 q 329 439 360 442 q 171 418 214 424 q 117 413 144 415 m 142 200 q 200 218 163 206 q 368 276 264 239 q 572 349 460 308 q 564 367 568 354 q 558 388 561 375 l 118 318 q 121 233 119 265 q 124 199 122 211 q 124 194 124 196 q 142 200 131 196 m 325 189 l 342 190 q 522 281 385 214 q 632 333 583 310 q 604 333 617 333 q 589 336 596 335 q 586 338 588 336 q 374 261 472 296 q 206 204 267 224 q 151 186 174 193 q 222 185 179 185 l 325 189 m 668 210 l 669 335 q 529 267 585 293 q 342 172 381 194 l 338 115 l 339 115 q 367 117 347 114 q 465 140 403 121 q 668 208 542 163 l 668 210 m 986 240 q 990 240 988 240 q 993 239 992 240 l 990 307 l 882 301 l 881 267 q 936 253 907 260 q 986 240 964 246 m 882 317 l 989 322 l 989 336 l 882 339 l 882 317 m 1365 363 q 1365 392 1365 374 q 1358 472 1364 428 q 1342 551 1351 519 q 1332 576 1338 567 q 1328 582 1331 579 l 1201 576 l 1203 665 l 1347 663 l 1347 664 l 1347 665 q 1347 693 1347 675 q 1340 774 1346 731 q 1324 853 1333 822 q 1314 878 1319 869 q 1310 883 1313 881 l 1207 879 l 1210 1047 q 1094 1035 1156 1047 q 1028 1014 1054 1025 q 996 990 1004 1003 l 994 869 l 861 864 l 861 1050 q 750 1031 803 1042 q 667 1011 697 1019 q 640 1001 649 1006 q 636 1000 639 1001 q 635 976 635 990 q 638 935 636 958 l 642 881 l 643 863 l 625 864 q 579 863 603 864 q 547 860 558 863 q 543 860 546 860 l 543 858 q 546 838 543 851 q 554 775 549 811 q 565 713 560 740 q 569 692 568 700 q 571 689 569 690 q 574 688 574 688 q 597 683 582 685 l 631 682 l 644 681 l 644 556 l 631 554 q 585 553 619 553 q 567 553 578 553 q 576 472 571 513 q 588 401 582 431 q 594 376 590 386 q 597 367 596 371 q 607 365 601 365 q 639 365 619 364 l 683 369 l 701 372 l 700 208 q 715 210 708 208 q 773 222 743 213 q 825 244 803 232 q 850 261 842 253 l 851 369 l 1018 367 l 1024 240 q 1047 239 1035 238 q 1106 250 1072 240 q 1167 272 1140 260 q 1196 293 1186 283 l 1197 364 l 1365 361 q 1365 363 1365 363 z "},"$":{"ha":1200,"x_min":53,"x_max":1163,"o":"m 1160 800 q 1160 758 1163 775 q 1146 729 1156 738 q 1126 717 1140 722 q 1100 708 1115 713 q 1029 694 1068 699 q 958 690 988 689 q 931 694 942 692 q 908 710 914 700 q 872 743 897 726 q 854 751 861 751 l 854 753 q 854 738 853 749 q 919 671 864 710 q 952 648 928 664 q 994 619 976 632 q 1029 592 1013 606 q 1108 476 1093 536 q 1074 306 1128 400 q 956 207 1042 246 l 964 -4 l 961 -8 q 949 -18 957 -14 q 938 -22 944 -21 q 903 -29 924 -25 q 807 -37 863 -35 q 710 -39 751 -40 q 672 -35 688 -37 q 651 -28 657 -32 q 551 -9 603 -21 q 453 15 500 3 q 397 31 407 28 l 386 33 l 385 44 q 386 61 385 47 q 388 85 388 76 q 388 99 388 92 q 239 89 321 86 q 174 94 201 90 q 132 107 143 100 q 121 122 125 111 q 115 140 118 129 q 103 194 110 160 q 79 349 90 257 q 64 506 68 438 q 61 563 61 542 q 63 582 61 575 q 65 599 63 593 q 93 614 72 611 q 128 617 106 617 q 217 610 153 615 q 282 606 263 606 q 263 617 276 608 q 246 629 250 626 q 165 693 197 664 q 88 795 118 739 q 56 922 57 851 q 90 1033 54 992 q 175 1081 121 1067 q 269 1092 211 1090 q 333 1096 324 1094 q 332 1113 333 1103 q 329 1134 332 1117 q 326 1160 326 1151 q 344 1192 326 1178 q 379 1208 357 1201 q 478 1225 415 1219 q 543 1228 508 1228 q 597 1229 578 1229 l 617 1229 l 649 1228 q 747 1243 658 1228 q 876 1256 832 1256 q 917 1254 901 1256 q 931 1251 925 1253 q 946 1240 942 1249 l 947 1238 l 942 1092 q 961 1089 954 1092 q 1067 1028 1024 1078 q 1136 910 1111 978 q 1160 800 1157 853 m 922 1221 l 921 1221 l 922 1221 m 639 1063 l 638 1156 q 508 1142 565 1147 q 404 1132 449 1136 q 361 1128 371 1129 q 363 1117 363 1122 q 364 1090 365 1100 q 364 1086 364 1089 q 517 1074 407 1083 q 639 1063 593 1067 m 363 1167 q 357 1160 357 1163 q 360 1143 357 1157 q 403 1147 376 1144 q 507 1157 449 1151 q 638 1171 585 1165 l 638 1197 l 615 1199 q 604 1199 610 1199 q 481 1193 538 1199 q 389 1178 421 1189 q 363 1167 371 1174 m 271 1061 q 199 1054 226 1060 q 203 1053 200 1054 l 206 1053 q 349 1039 260 1047 q 533 1018 438 1029 q 546 1026 539 1022 q 597 1051 569 1040 q 515 1058 572 1053 q 356 1071 392 1069 q 344 1065 350 1067 q 271 1061 333 1064 m 114 1013 q 96 982 103 999 q 106 982 101 982 q 185 979 139 981 q 263 976 218 978 q 303 975 300 975 q 315 974 306 975 q 338 969 325 972 q 399 957 360 965 q 467 943 432 950 q 517 1004 486 978 q 347 1022 429 1014 q 204 1038 260 1032 q 157 1042 176 1040 q 114 1013 131 1031 m 86 922 q 97 854 88 888 q 443 869 232 854 q 460 929 447 900 q 394 942 426 936 q 335 954 354 950 q 314 958 321 957 q 303 960 306 960 q 263 961 299 960 q 183 963 218 963 q 106 967 139 965 q 90 967 97 967 q 86 922 86 947 m 150 756 q 451 750 203 756 q 440 822 442 785 q 442 853 440 838 q 103 839 236 839 q 150 756 118 796 m 231 679 q 372 683 293 682 q 464 682 428 683 q 485 681 476 681 q 457 735 468 707 q 429 735 454 735 q 369 737 404 736 q 295 738 333 738 q 220 740 257 739 q 164 740 183 740 q 188 717 175 728 q 231 679 207 697 m 264 656 q 319 614 314 621 q 324 611 322 613 q 331 610 328 610 q 375 599 347 606 q 496 567 424 586 q 614 532 560 549 q 643 524 632 526 q 638 528 642 525 q 563 590 578 576 q 496 664 522 626 q 464 667 483 665 q 385 668 432 668 q 372 668 381 668 q 250 664 314 667 q 264 656 258 660 m 214 579 q 149 585 168 583 q 153 583 150 583 q 265 563 203 574 q 376 543 331 550 q 417 538 401 540 q 428 538 422 538 l 429 540 q 457 553 438 551 q 489 550 469 553 q 503 549 494 550 q 499 549 501 549 q 495 551 497 550 q 492 551 493 551 q 371 583 421 571 q 329 593 346 590 q 321 581 326 585 q 293 574 313 574 q 214 579 274 574 m 94 508 q 96 489 96 499 q 259 489 104 489 q 429 489 414 489 q 428 521 428 510 q 415 522 422 522 q 375 528 399 525 q 263 547 326 535 q 150 568 199 558 q 93 581 110 576 l 93 579 q 93 563 93 572 q 94 508 92 542 m 97 474 q 107 379 101 432 q 109 380 108 379 q 111 381 110 381 q 151 386 119 382 q 269 406 189 393 q 432 433 317 414 q 429 474 431 449 q 262 474 415 474 q 97 474 108 474 m 110 353 q 121 271 115 310 q 306 286 164 272 q 442 300 372 293 q 436 365 439 328 q 432 417 435 388 q 272 390 349 403 q 154 371 201 379 q 114 365 128 367 q 110 364 113 364 l 108 364 q 110 353 110 357 m 128 233 q 174 236 142 235 q 294 243 218 239 q 446 251 376 249 q 443 285 444 267 q 307 271 367 276 q 124 254 167 257 q 128 233 125 243 m 151 132 l 151 133 q 342 167 197 138 q 460 190 400 178 q 454 206 457 196 q 449 236 451 218 q 420 235 444 236 q 362 232 396 233 q 294 228 328 231 q 175 221 215 224 q 131 218 143 219 q 133 200 132 210 q 144 149 139 168 q 150 135 147 139 q 151 132 150 133 m 390 132 q 404 129 397 133 q 574 165 454 138 q 515 167 539 165 q 490 171 500 168 q 469 176 476 172 q 346 151 408 164 q 197 124 250 132 q 239 121 217 121 q 390 132 325 118 m 415 115 q 417 111 417 113 q 418 85 419 101 q 418 82 418 83 q 418 81 418 81 q 650 111 492 85 q 650 165 650 163 q 647 165 649 165 q 415 115 488 129 m 417 57 q 472 42 418 57 q 566 19 525 28 q 650 4 607 10 q 650 94 650 35 q 418 65 492 68 q 417 58 417 61 q 417 57 417 57 m 936 10 l 938 11 l 936 11 q 936 10 936 10 m 1128 764 q 1129 797 1131 776 q 1107 899 1126 846 q 1073 970 1093 939 q 1022 1026 1053 1001 q 954 1058 990 1051 q 925 1061 944 1061 l 910 1063 l 915 1222 q 913 1222 913 1222 q 876 1225 900 1225 q 753 1211 833 1224 q 668 1199 669 1199 l 671 1036 l 657 1035 q 561 999 608 1029 q 472 822 468 940 q 583 613 475 711 q 657 553 597 600 q 682 531 675 539 q 690 519 688 525 q 692 501 694 510 q 679 488 689 492 q 665 485 674 485 q 636 486 654 483 q 560 503 614 489 q 483 519 506 517 q 458 521 468 522 q 467 367 461 446 q 478 251 472 294 q 485 213 481 226 q 488 203 486 207 q 496 201 492 201 q 518 199 504 200 q 581 196 543 196 l 664 197 l 681 197 l 681 181 q 682 -4 681 38 q 711 -7 693 -6 q 806 -6 750 -10 q 899 3 860 -3 q 929 8 918 6 q 930 8 929 8 q 932 8 931 8 l 924 226 l 933 232 q 1047 321 1017 267 l 1047 321 q 1078 468 1094 404 q 1008 568 1065 519 q 976 593 994 581 q 935 622 958 606 q 900 646 911 639 q 824 728 836 692 l 822 729 l 822 732 q 826 768 819 756 q 842 782 832 778 q 860 783 850 785 q 890 769 874 781 q 933 726 919 749 l 933 726 q 939 725 936 725 q 960 721 947 722 q 1025 725 988 719 q 1092 738 1061 729 q 1114 746 1106 742 q 1124 750 1122 749 l 1125 751 l 1125 753 l 1125 754 l 1128 764 z "},"%":{"ha":1621,"x_min":64,"x_max":1601,"o":"m 1219 1004 l 1224 997 l 813 68 l 806 65 q 785 65 796 63 l 785 64 q 783 65 783 65 q 775 68 783 65 q 535 131 657 86 q 438 174 474 153 q 407 196 418 185 q 392 225 392 210 q 396 247 392 232 q 408 281 400 260 q 451 382 424 318 q 583 663 499 486 l 775 1056 l 779 1064 l 789 1065 q 1007 1071 958 1071 l 1008 1071 l 1010 1071 q 1122 1047 1067 1061 q 1182 1029 1158 1039 q 1203 1019 1194 1025 q 1219 1004 1215 1013 m 799 1033 q 795 1027 799 1033 q 788 1013 792 1021 q 778 992 785 1006 q 765 967 772 979 l 963 978 q 993 1039 976 1004 q 799 1033 942 1039 m 757 950 q 718 871 746 926 l 908 868 q 956 963 932 917 l 757 950 m 711 854 q 681 793 701 836 l 854 760 q 900 853 886 825 l 711 854 m 674 779 q 642 711 663 756 l 824 697 q 830 710 826 703 q 835 722 833 717 q 841 733 838 726 q 847 746 844 740 l 674 779 m 611 649 q 600 626 604 633 q 624 624 610 626 q 694 614 651 619 q 775 600 736 607 q 792 635 776 601 q 815 682 800 650 l 633 696 q 611 649 625 679 m 593 613 q 563 547 588 599 q 572 547 565 547 q 582 549 579 547 q 660 550 619 549 q 753 553 661 550 q 768 586 758 567 q 692 597 736 590 q 621 608 649 604 q 593 613 606 611 m 556 532 q 521 457 538 494 q 522 456 521 457 q 531 453 526 454 q 542 449 536 451 q 553 444 549 446 q 583 433 572 438 q 601 428 597 429 q 622 429 606 428 q 657 433 636 431 q 696 438 681 436 q 744 538 717 482 q 661 535 713 536 q 582 532 619 533 q 556 532 560 532 m 481 368 q 479 365 479 368 q 490 365 485 365 q 564 364 514 365 q 658 361 657 361 q 688 421 675 394 q 658 418 674 419 q 624 414 638 415 q 600 413 606 413 q 578 419 594 414 q 547 431 568 422 q 518 440 518 440 q 515 442 517 442 q 514 442 514 442 q 481 368 493 399 m 472 350 q 449 297 458 319 q 479 289 461 294 q 542 269 504 282 q 607 249 574 260 q 647 336 622 283 q 650 340 649 338 q 651 344 651 343 q 563 347 640 346 q 489 350 514 350 q 472 350 482 350 m 426 238 q 424 231 425 235 q 440 228 431 229 q 507 214 467 222 q 585 197 550 204 q 588 204 586 200 q 600 235 592 215 q 536 256 567 246 q 474 274 500 267 q 443 282 456 279 q 438 269 440 276 q 426 238 429 250 m 454 200 q 546 160 488 181 q 674 121 604 139 q 625 149 643 138 q 600 164 610 157 q 592 171 596 167 q 585 181 586 175 q 585 181 585 181 q 504 199 538 192 q 438 213 465 207 q 436 213 436 213 q 435 213 436 213 q 454 200 443 206 m 790 97 l 1186 993 q 1169 1000 1181 996 q 1115 1017 1150 1008 q 1026 1036 1075 1028 q 819 621 926 838 q 675 322 726 431 q 629 222 644 257 q 617 193 621 203 q 617 192 617 193 q 617 190 617 192 q 618 189 618 189 q 640 175 626 183 q 706 139 664 161 q 790 97 744 119 m 464 919 l 463 919 q 418 942 433 922 q 408 982 406 958 q 424 1017 411 1001 q 454 1033 438 1032 q 457 1033 456 1033 q 460 1033 458 1033 q 497 1017 481 1033 q 517 981 511 1001 q 510 940 521 957 q 465 919 496 921 l 464 919 m 449 996 q 442 986 444 992 l 479 989 q 475 994 476 992 q 460 1001 467 1001 l 458 1001 q 449 996 453 1001 m 443 961 q 465 951 450 953 q 483 958 479 951 q 486 974 488 964 l 440 969 q 443 961 440 964 m 429 796 l 428 796 q 373 799 415 797 q 308 803 331 801 q 252 809 286 804 q 192 822 218 814 q 100 881 131 842 q 71 997 64 925 q 165 1124 78 1085 q 328 1153 228 1153 l 326 1153 q 461 1140 393 1153 q 465 1140 464 1140 q 587 1088 538 1138 q 636 968 636 1038 q 612 881 636 921 q 547 819 588 842 q 457 796 506 796 q 451 796 454 796 q 445 796 449 796 q 439 796 442 796 l 439 796 q 429 796 433 796 m 326 1121 q 186 1100 242 1121 q 257 1100 206 1100 q 347 1101 308 1100 q 364 1111 356 1107 q 379 1119 371 1115 q 326 1121 353 1121 m 156 1083 q 111 1035 124 1064 q 128 1036 117 1035 q 206 1043 158 1039 q 299 1051 267 1047 q 328 1085 311 1069 q 258 1085 282 1085 q 185 1083 210 1083 q 158 1083 168 1083 q 157 1083 158 1083 q 156 1083 156 1083 m 101 994 q 100 981 101 988 q 275 958 157 976 q 276 972 275 965 q 290 1035 278 1006 q 207 1026 250 1031 q 129 1021 163 1022 q 106 1018 118 1019 q 101 994 103 1007 m 168 865 q 256 871 196 867 q 306 875 267 871 q 276 943 282 906 q 101 965 157 961 q 125 900 103 926 q 168 865 140 879 m 204 851 q 353 832 254 836 q 318 860 333 844 q 257 856 288 857 q 204 851 226 853 m 307 971 q 372 856 303 899 q 442 828 404 836 q 449 827 446 828 q 455 826 453 826 q 457 826 457 826 q 562 868 518 826 q 606 968 606 910 q 564 1066 606 1025 q 463 1110 522 1107 q 379 1085 418 1106 q 307 971 311 1046 m 1417 328 q 1548 266 1496 324 q 1600 131 1600 208 q 1542 -6 1600 51 q 1400 -64 1483 -62 l 1382 -62 l 1375 -62 q 1076 -4 1165 -56 q 993 161 988 47 l 993 163 q 1090 314 1008 267 q 1244 347 1150 347 q 1247 347 1244 347 q 1249 347 1249 347 q 1399 331 1307 347 l 1400 331 q 1410 329 1407 329 l 1417 328 m 1244 317 q 1175 311 1207 317 q 1215 308 1192 310 q 1281 306 1243 308 q 1292 311 1286 308 q 1300 314 1297 313 q 1249 317 1274 317 q 1244 317 1247 317 m 1106 286 q 1049 231 1068 265 q 1136 239 1076 232 q 1204 247 1174 243 q 1215 261 1210 254 q 1253 292 1231 279 q 1241 292 1247 292 q 1227 293 1235 293 q 1214 293 1219 293 q 1142 296 1172 294 q 1136 296 1139 296 q 1131 296 1133 296 q 1126 296 1128 296 q 1106 286 1115 292 m 1024 158 q 1024 140 1024 149 l 1185 124 q 1182 164 1182 143 q 1194 229 1181 200 q 1139 224 1163 226 q 1040 214 1064 215 q 1024 158 1029 190 m 1093 22 q 1107 15 1100 18 l 1222 25 q 1188 108 1197 61 l 1025 124 q 1093 22 1032 58 m 1138 3 q 1271 -25 1190 -17 q 1233 11 1250 -10 l 1138 3 m 1400 -32 q 1520 16 1471 -32 q 1569 131 1569 64 q 1526 244 1569 196 q 1415 297 1482 293 l 1406 297 q 1396 300 1404 299 q 1303 282 1346 297 q 1239 240 1261 267 q 1214 165 1211 210 l 1214 164 q 1299 -6 1214 44 q 1383 -32 1342 -31 l 1400 -32 m 1442 172 q 1454 132 1453 156 q 1443 92 1456 108 q 1401 69 1429 71 l 1400 69 l 1399 69 q 1363 96 1374 74 q 1356 138 1353 114 q 1368 176 1357 160 q 1403 196 1382 196 q 1406 196 1403 196 l 1406 196 q 1442 172 1428 193 m 1393 158 q 1388 142 1389 151 l 1418 151 q 1415 156 1417 153 q 1403 164 1410 164 l 1401 164 q 1393 158 1397 164 m 1418 110 q 1422 131 1424 118 q 1422 136 1422 133 l 1386 125 q 1390 111 1388 117 q 1401 101 1394 103 q 1418 110 1413 101 z "},"&":{"ha":1236,"x_min":39,"x_max":1206,"o":"m 1201 443 q 1204 421 1204 435 q 1197 364 1204 397 q 1182 311 1190 335 q 1175 292 1178 299 q 1169 285 1172 288 q 1165 281 1168 282 q 1157 274 1163 276 q 1143 271 1151 271 q 1113 272 1133 269 q 1036 281 1057 279 q 1017 190 1035 238 q 1022 189 1021 189 q 1072 175 1061 179 q 1119 132 1107 160 q 1113 44 1133 97 q 1032 -12 1099 1 q 896 -21 981 -24 q 801 -15 854 -19 q 706 -6 747 -10 q 644 -1 664 -1 q 599 1 621 -1 q 535 5 583 3 q 461 9 488 7 q 393 15 435 11 q 316 27 351 19 q 247 44 281 35 q 103 129 154 74 q 58 203 74 161 q 42 297 42 246 q 42 310 42 304 l 40 310 l 40 324 l 42 324 q 93 443 49 397 q 207 504 133 485 q 313 524 232 511 q 335 528 326 525 q 314 538 326 532 q 242 571 264 558 q 140 751 138 632 q 176 843 142 804 q 260 894 206 875 q 472 924 342 924 q 560 921 519 924 q 585 918 574 919 q 596 917 593 917 l 608 915 l 610 915 l 611 915 q 621 915 615 915 q 628 914 626 914 l 629 914 q 869 857 771 901 l 871 856 q 879 840 879 850 q 878 829 879 836 q 869 807 876 821 q 836 749 857 781 q 794 692 814 715 q 774 672 783 679 q 751 661 763 663 q 707 663 738 660 q 669 667 676 665 q 651 660 657 667 q 644 638 646 653 q 643 618 643 629 l 1190 467 l 1189 461 q 1201 443 1199 457 m 1065 471 l 644 588 q 646 581 646 585 q 646 575 646 576 l 678 575 q 711 551 699 575 q 722 519 718 538 q 763 511 733 518 q 835 490 792 503 q 913 465 871 479 q 976 468 942 467 q 1065 471 1019 469 m 639 276 l 782 290 q 785 315 785 303 q 776 314 782 315 q 758 314 764 313 q 747 317 751 314 l 628 310 q 639 276 632 290 m 778 275 l 649 263 q 650 260 649 261 l 651 258 l 651 257 q 654 257 653 257 q 665 251 657 254 q 703 245 681 247 q 743 244 725 243 q 752 245 747 244 q 760 247 757 246 q 763 247 763 247 q 778 275 771 256 m 624 324 l 740 332 q 740 338 740 335 q 756 378 747 354 l 618 381 q 619 367 618 372 q 624 324 619 344 m 760 393 q 772 429 769 422 l 714 453 q 694 446 706 446 l 631 440 q 622 421 625 429 q 619 396 621 410 l 760 393 m 721 467 l 781 442 q 786 444 783 443 q 801 451 792 449 q 847 460 818 456 q 874 463 860 461 q 831 475 853 469 q 760 496 788 489 q 724 504 738 501 q 722 471 725 485 q 721 467 721 468 m 269 867 q 261 863 264 864 q 474 878 388 872 q 503 893 488 886 q 472 894 485 894 q 269 867 346 894 m 197 822 q 181 796 186 810 q 186 798 182 797 q 193 799 190 799 q 258 811 219 804 l 353 826 l 354 826 l 411 815 q 450 861 426 842 q 226 846 353 856 q 197 822 210 835 m 169 751 q 171 719 169 735 q 200 721 183 721 q 283 721 232 721 q 385 721 331 721 l 385 724 q 404 801 388 767 l 353 811 q 261 796 333 808 q 196 785 219 789 q 174 781 183 782 q 169 751 169 767 m 199 654 q 201 654 200 654 q 210 654 204 654 q 238 650 219 653 q 317 639 267 646 q 399 625 350 633 q 385 706 386 661 q 283 706 333 706 q 200 706 232 706 q 174 706 183 706 q 194 653 179 676 l 194 654 q 199 654 196 654 m 325 565 q 343 557 336 560 q 429 568 375 561 q 406 608 415 586 q 314 624 350 618 q 235 636 264 632 q 208 639 218 638 q 204 640 207 639 q 257 596 224 617 q 325 565 278 585 m 369 533 q 371 521 372 528 q 490 518 411 519 q 483 522 488 521 q 442 554 457 538 q 363 544 406 550 q 369 533 368 539 m 214 475 q 168 458 189 468 q 192 458 176 458 q 296 460 235 460 q 436 460 390 460 q 444 469 440 465 q 481 503 458 485 q 360 506 396 506 q 353 503 357 504 q 317 494 342 499 q 214 475 238 482 m 114 422 q 101 407 107 415 q 138 403 121 406 q 246 389 178 397 q 296 383 269 386 q 340 377 322 379 q 373 373 358 375 q 392 371 388 371 q 425 444 401 411 q 296 444 367 444 q 192 444 231 444 q 156 443 168 444 q 144 443 151 443 q 140 443 142 443 q 114 422 126 433 m 93 393 q 72 324 75 364 l 382 321 q 388 356 385 339 q 243 375 344 361 q 135 389 185 382 q 97 393 110 392 q 93 393 96 393 m 97 189 l 389 215 q 381 285 381 249 q 382 306 381 294 l 71 308 q 71 299 71 301 q 97 189 72 235 m 257 72 q 279 79 264 75 q 344 97 299 85 q 426 121 394 111 q 392 200 403 157 l 106 174 q 125 149 114 161 q 257 72 171 100 m 283 65 q 517 36 365 44 q 450 90 478 57 q 436 108 443 99 q 421 103 435 107 q 387 94 407 100 q 349 83 367 89 q 283 65 317 74 m 1168 371 q 1175 421 1175 401 q 1174 435 1175 431 q 1169 436 1171 436 q 1156 438 1164 438 q 1108 440 1138 439 q 978 439 1050 442 q 851 429 901 436 q 810 422 824 426 q 800 419 804 421 q 792 398 797 413 q 783 370 788 383 q 775 344 779 357 q 793 345 786 346 q 804 342 800 344 q 815 326 814 338 q 810 278 817 306 q 781 224 800 240 l 781 224 q 744 214 769 215 q 700 215 725 213 q 657 224 675 218 q 639 231 646 226 q 628 242 631 235 q 589 365 593 281 q 593 426 588 400 q 618 468 601 460 l 621 469 l 692 475 q 693 478 693 478 q 693 507 696 489 q 685 536 692 525 q 678 544 681 544 l 618 546 l 618 558 q 614 640 613 628 q 629 679 618 665 q 669 696 643 696 l 671 696 q 701 694 683 696 q 730 691 718 692 q 749 692 742 690 q 756 696 750 692 q 772 711 763 701 q 811 765 790 733 q 843 819 832 796 q 849 833 846 826 q 628 883 758 872 q 618 885 625 883 q 611 885 613 885 l 610 885 l 607 885 l 607 885 q 514 865 558 885 q 414 722 421 826 q 463 575 415 624 q 499 549 476 561 q 526 526 522 533 l 528 524 l 528 519 q 521 499 529 510 q 506 486 515 494 q 467 450 479 464 q 411 285 410 388 q 472 110 411 179 q 657 29 539 35 l 656 28 q 720 24 678 28 q 810 15 763 19 q 897 8 858 10 q 1025 17 978 6 q 1085 54 1076 28 l 1085 54 q 1092 119 1101 96 q 1060 147 1085 136 q 1015 161 1051 150 q 996 168 1001 164 q 986 178 989 172 q 986 194 983 186 q 1002 246 996 214 q 1006 293 1008 278 l 1004 311 l 1021 310 q 1115 303 1049 310 q 1142 300 1135 300 q 1143 300 1142 300 l 1144 306 l 1149 306 q 1154 321 1151 311 q 1168 371 1163 343 z "},"'":{"ha":561,"x_min":40,"x_max":521,"o":"m 521 756 q 519 701 521 722 q 518 682 519 690 q 515 665 518 671 l 513 657 l 506 656 q 274 621 399 636 q 132 610 183 610 q 83 611 101 608 q 67 615 74 613 q 53 633 56 621 q 47 668 50 643 q 44 722 46 689 q 42 865 43 776 q 40 1072 40 965 l 40 1081 l 44 1086 q 101 1121 60 1108 q 181 1135 132 1131 q 254 1142 199 1138 q 278 1143 271 1142 q 285 1144 283 1143 q 286 1144 286 1144 l 288 1146 l 292 1146 q 399 1149 293 1146 q 422 1149 413 1149 q 443 1149 435 1149 q 468 1146 463 1149 q 482 1135 476 1144 q 490 1115 486 1128 q 500 1063 496 1097 q 514 911 508 1006 q 521 756 519 829 m 67 1063 q 67 1021 67 1042 l 282 1071 q 283 1104 282 1090 q 281 1104 282 1104 q 256 1101 272 1103 q 182 1096 201 1099 q 107 1082 136 1092 q 67 1063 81 1075 m 67 1006 q 68 953 67 976 l 175 953 l 281 1003 q 281 1046 281 1028 q 281 1050 281 1047 q 282 1054 282 1053 l 67 1006 m 68 865 q 68 842 68 853 q 108 849 81 844 q 186 863 135 854 q 281 881 229 871 q 281 918 281 900 q 281 986 281 953 l 176 938 l 68 938 q 68 865 68 899 m 69 826 q 71 764 69 794 q 82 765 76 765 q 124 774 99 768 l 178 785 l 179 785 l 285 782 q 283 794 285 786 q 282 865 282 825 q 188 847 228 856 q 110 833 144 839 q 69 826 81 828 m 83 660 q 111 671 96 665 q 190 699 142 682 q 289 733 235 714 q 288 749 289 738 q 286 765 286 756 l 179 769 q 125 758 167 767 q 83 750 100 753 q 71 749 75 749 q 72 724 71 729 q 75 672 72 692 q 76 657 75 665 q 83 660 79 658 m 271 661 q 397 678 329 668 q 335 692 358 685 q 310 701 319 697 q 293 719 297 710 q 193 683 254 706 q 114 656 144 667 q 96 649 101 651 q 132 649 111 647 q 271 661 183 650 m 493 703 q 493 756 494 722 q 488 908 493 828 q 475 1054 482 1000 q 465 1100 471 1085 q 463 1107 464 1104 l 461 1107 q 460 1108 463 1107 q 453 1109 458 1108 q 442 1110 447 1110 q 422 1110 435 1110 q 400 1110 414 1110 q 358 1108 393 1110 q 304 1107 324 1107 q 303 1046 303 1083 q 301 919 301 988 q 306 797 303 847 q 308 754 307 771 q 309 745 308 750 q 310 738 310 740 q 311 736 311 736 q 318 731 315 733 q 339 722 325 726 q 404 708 364 715 q 469 699 435 703 q 493 697 482 699 q 493 703 493 700 z "},"(":{"ha":819,"x_min":42,"x_max":810,"o":"m 804 60 q 801 32 810 49 q 785 4 796 19 q 731 -57 764 -24 q 668 -112 697 -90 q 642 -131 653 -124 q 615 -136 626 -139 l 611 -136 q 486 -139 550 -140 q 285 -96 344 -135 q 244 -47 265 -83 q 207 32 226 -17 q 136 251 174 117 q 50 628 76 469 q 57 747 43 668 q 94 903 69 814 q 190 1168 144 1076 q 265 1215 204 1194 q 385 1244 311 1232 q 571 1269 474 1261 l 575 1269 q 588 1271 581 1271 q 697 1236 629 1271 q 743 1208 724 1222 q 758 1196 753 1201 q 768 1179 767 1188 l 769 1175 l 767 1169 q 653 879 719 1085 q 601 700 618 776 q 588 579 582 615 q 668 354 614 483 q 764 143 722 225 l 804 61 l 804 60 m 275 1186 q 219 1154 226 1169 q 200 1113 211 1139 l 515 1143 q 551 1236 533 1193 q 390 1214 464 1226 q 275 1186 319 1201 m 193 1097 q 171 1036 182 1068 l 469 1024 q 508 1126 489 1074 l 193 1097 m 165 1021 q 129 911 146 967 q 135 911 131 911 q 174 914 150 911 q 286 922 218 917 q 438 936 346 928 q 453 981 446 961 q 464 1008 457 989 l 165 1021 m 125 894 q 100 801 110 846 q 141 801 115 801 q 185 800 167 800 q 203 800 203 800 l 400 825 q 432 919 414 868 q 288 907 340 911 q 174 897 219 901 q 135 896 149 896 q 125 894 129 894 m 88 742 q 79 674 81 703 q 122 671 93 672 q 226 665 164 669 q 281 663 253 664 q 331 660 308 661 q 356 658 353 658 q 361 692 357 669 q 383 772 368 724 q 394 810 388 788 l 204 783 q 96 786 129 785 q 88 742 92 763 m 81 633 q 94 560 85 608 q 97 560 96 560 q 100 560 99 560 q 133 564 111 561 q 232 575 178 568 q 360 590 324 586 q 356 639 356 618 q 356 642 356 640 q 225 650 283 646 q 122 656 160 653 q 79 657 97 657 q 81 633 79 643 m 99 544 q 119 447 108 497 l 396 438 q 394 442 394 440 q 363 575 372 521 q 235 560 285 565 q 136 549 165 551 q 101 544 110 546 q 99 544 100 544 m 124 431 q 154 308 139 368 q 156 308 154 308 q 160 308 158 308 q 194 314 174 311 q 293 332 232 321 q 419 356 347 342 q 400 421 408 392 l 124 431 m 167 260 q 182 208 174 236 q 465 217 244 208 q 424 342 442 283 q 296 317 367 329 q 197 299 236 306 q 163 293 175 294 q 160 293 161 293 q 158 293 158 293 q 167 260 164 271 m 186 193 q 219 89 203 136 l 493 140 q 475 189 482 169 q 474 194 475 190 q 471 201 472 199 q 186 193 239 193 m 236 44 q 251 8 244 25 l 535 26 q 499 125 515 75 l 225 74 q 236 44 231 58 m 488 -107 q 585 -106 535 -108 q 540 11 565 -54 l 258 -7 q 272 -32 265 -21 q 301 -69 289 -61 q 488 -107 354 -104 m 774 44 q 775 50 774 47 q 557 571 618 357 l 557 572 l 556 574 q 571 707 550 615 q 622 889 589 785 q 735 1175 686 1081 q 725 1183 731 1179 q 683 1208 708 1194 q 588 1240 621 1239 q 586 1239 588 1240 q 483 969 532 1103 q 413 764 438 844 q 392 685 399 717 q 386 643 385 654 l 388 642 l 388 640 q 424 450 388 581 q 504 199 454 344 q 618 -104 558 46 l 628 -103 q 650 -87 636 -97 q 708 -35 676 -67 q 760 24 740 -3 q 774 44 769 36 z "},")":{"ha":765,"x_min":29,"x_max":733,"o":"m 632 1003 q 721 658 732 760 q 554 172 714 525 q 478 14 518 94 q 418 -110 439 -67 l 396 -151 l 394 -154 l 393 -162 l 379 -162 q 158 -64 286 -164 q 69 25 103 -19 q 32 115 31 76 l 32 118 l 33 121 q 124 339 79 224 q 185 508 163 439 q 208 625 210 593 q 142 856 203 685 q 97 975 128 896 q 72 1047 75 1036 q 76 1069 68 1058 q 90 1086 81 1078 q 136 1118 106 1100 q 276 1193 186 1149 l 483 1288 l 497 1293 l 504 1281 q 632 1003 571 1153 m 482 1253 l 483 1251 q 482 1253 483 1253 m 153 1092 q 129 1076 139 1083 l 335 1125 q 342 1144 336 1133 q 357 1167 346 1154 q 401 1213 372 1186 q 410 1221 407 1218 q 290 1165 344 1192 q 153 1092 201 1121 m 103 1054 q 119 1006 106 1043 l 383 999 q 367 1042 374 1022 q 346 1090 351 1076 q 338 1110 339 1106 l 103 1054 m 126 986 q 161 894 149 931 l 419 913 q 390 983 407 943 l 126 989 q 126 986 126 988 m 172 865 q 189 815 182 836 l 442 853 q 425 897 433 875 l 167 879 q 172 865 169 872 m 194 800 q 228 692 217 735 l 476 750 q 447 838 465 789 l 194 800 m 239 628 q 238 593 240 613 l 488 610 q 493 633 492 624 q 479 735 499 665 l 231 676 q 239 628 238 647 m 214 500 q 206 472 211 488 l 443 483 q 451 503 449 496 q 483 594 471 557 l 235 578 q 214 500 229 549 m 153 328 q 142 297 147 314 l 383 336 q 438 467 414 408 l 200 456 q 153 328 181 399 m 135 281 q 107 213 119 244 l 317 186 q 372 313 346 250 q 374 316 374 314 q 375 319 375 318 l 135 281 m 100 199 q 64 114 79 147 l 258 60 q 269 82 265 75 q 296 139 281 106 q 310 172 304 158 l 100 199 m 178 -39 q 350 -128 271 -111 q 310 -64 328 -93 q 271 4 283 -22 q 258 31 261 21 q 256 43 256 38 q 254 44 256 43 l 65 97 q 94 44 72 74 q 178 -39 125 3 m 690 661 q 604 992 700 756 q 486 1246 550 1121 q 424 1190 456 1221 q 381 1146 396 1164 q 369 1129 372 1136 q 367 1124 368 1126 q 367 1121 367 1124 q 370 1113 368 1118 q 375 1101 372 1107 q 394 1053 379 1090 q 453 911 433 961 q 507 753 489 818 q 524 628 531 669 q 481 492 518 589 q 401 300 450 411 q 324 126 364 214 q 297 69 311 97 q 286 46 289 51 q 288 42 288 43 q 299 18 290 33 q 336 -49 311 -7 q 379 -115 356 -79 q 525 186 456 32 q 690 661 683 532 l 690 661 z "},"*":{"ha":1054,"x_min":32,"x_max":1028,"o":"m 1025 931 q 1022 875 1028 906 q 1010 824 1018 843 q 999 804 1004 811 q 976 796 988 793 l 907 799 l 932 758 q 938 744 938 753 q 935 732 938 739 q 921 710 931 722 q 871 667 903 690 q 811 629 839 643 q 783 618 794 621 q 760 617 769 615 l 643 628 q 611 585 625 601 q 578 557 592 561 q 574 554 576 556 q 567 551 571 553 q 544 544 557 549 q 481 526 515 536 q 413 513 442 517 q 363 510 376 507 q 347 521 354 511 q 335 538 342 526 q 311 582 325 554 q 289 626 299 604 q 281 642 285 635 q 276 653 278 650 l 276 656 l 285 739 q 174 736 226 736 q 89 742 121 738 q 58 747 69 743 q 46 754 51 750 q 36 767 39 760 l 36 769 l 33 1039 l 36 1043 q 58 1057 42 1051 q 89 1064 69 1061 q 171 1072 119 1068 q 285 1076 206 1074 l 238 1147 l 258 1151 q 374 1164 282 1158 q 558 1171 468 1169 q 646 1176 615 1182 l 801 1206 l 801 1207 l 808 1207 l 817 1208 l 817 1207 l 818 1207 q 838 1201 826 1207 q 860 1189 849 1197 q 908 1151 883 1174 q 951 1108 935 1129 q 967 1088 961 1097 q 974 1065 974 1075 l 974 1060 l 904 976 l 1003 979 l 1007 976 q 1025 931 1022 964 m 771 1168 l 675 1150 l 694 1122 l 696 1128 q 707 1129 699 1128 q 726 1132 715 1131 q 746 1136 736 1135 q 749 1140 747 1138 q 751 1143 750 1142 q 771 1168 761 1157 m 733 1118 q 731 1117 732 1118 q 729 1117 729 1117 q 710 1114 717 1114 q 701 1113 704 1113 l 717 1090 q 733 1118 724 1103 m 375 1133 q 339 1131 357 1132 l 460 1121 q 467 1131 461 1126 q 476 1138 469 1135 q 375 1133 424 1136 m 463 1104 l 294 1118 l 307 1100 q 350 1096 315 1100 q 418 1086 378 1092 q 479 1076 439 1082 l 463 1104 m 489 1058 q 415 1069 449 1065 q 347 1079 375 1076 q 318 1083 331 1082 l 335 1060 q 454 1026 371 1051 q 519 1006 485 1017 q 521 1006 521 1006 q 522 1006 521 1006 l 489 1058 m 172 1040 q 108 1035 135 1038 l 326 1014 q 335 1021 329 1018 q 346 1024 339 1022 q 368 1025 354 1025 q 418 1021 389 1024 q 319 1047 346 1042 l 315 1047 q 257 1044 307 1046 q 172 1040 207 1043 m 65 1024 l 65 950 q 206 961 97 951 q 244 965 224 963 q 277 968 264 967 q 303 970 290 969 q 322 972 317 971 q 324 999 322 986 l 65 1024 m 65 933 l 65 889 q 204 892 86 889 q 322 893 303 893 q 321 928 321 908 q 321 956 321 940 q 207 946 263 951 q 65 933 94 936 m 72 779 q 107 788 85 782 q 208 813 140 796 q 331 842 254 824 q 329 847 331 843 q 324 869 326 856 q 324 878 324 874 q 301 877 318 878 q 258 876 285 876 q 206 875 231 876 q 174 875 192 875 q 144 875 157 875 q 118 874 132 875 q 95 874 104 874 q 78 874 86 874 q 67 874 69 874 l 67 779 q 69 779 68 779 q 72 779 71 779 m 174 768 q 301 771 243 767 l 321 772 l 319 768 l 483 819 q 461 821 468 819 q 390 822 417 821 q 364 825 375 824 q 344 829 350 826 l 343 829 q 213 797 265 810 q 110 772 149 782 q 106 772 108 772 l 103 771 q 174 768 132 768 m 318 751 l 310 674 l 428 761 q 428 767 428 764 q 432 775 429 771 q 443 786 435 781 q 456 794 447 790 l 318 751 m 317 640 q 318 636 317 639 q 319 632 319 633 q 326 635 322 633 q 333 638 331 636 q 397 658 363 647 q 442 674 418 665 q 469 683 465 682 q 433 746 450 717 l 310 654 q 317 640 313 647 m 335 603 l 504 628 q 481 667 493 644 q 478 668 479 667 q 478 671 478 669 q 401 644 461 664 q 339 622 356 628 q 332 619 336 621 q 326 618 328 618 q 335 603 331 613 m 535 574 q 537 574 536 574 q 538 575 538 575 q 521 600 532 583 q 513 613 518 604 l 343 588 q 363 554 354 567 q 371 540 367 546 q 372 540 371 540 q 407 543 388 540 q 474 557 435 547 q 535 574 507 565 m 664 657 l 735 651 l 715 690 l 682 688 q 664 657 674 674 m 692 704 l 707 706 l 700 718 q 697 714 699 717 q 694 708 696 711 q 692 704 693 706 m 992 879 q 994 928 996 907 q 990 947 993 939 l 836 942 l 940 1069 q 939 1072 940 1071 q 928 1088 936 1079 q 888 1128 913 1107 q 843 1164 864 1149 q 825 1174 832 1169 q 819 1175 824 1174 q 804 1160 813 1168 q 776 1124 790 1144 q 735 1054 742 1076 l 725 1022 l 642 1146 q 572 1142 615 1149 l 574 1135 q 515 1119 543 1129 q 494 1111 503 1115 l 585 961 l 550 968 q 429 988 496 979 q 367 993 390 993 q 354 993 360 993 q 353 928 353 960 q 354 874 353 894 q 358 858 356 864 q 358 857 358 857 q 367 856 363 856 q 393 854 376 854 q 461 851 419 851 l 554 851 l 607 851 l 564 822 q 490 779 563 822 q 463 761 471 768 l 461 761 q 507 682 483 722 q 547 617 529 644 q 568 586 558 599 q 588 604 578 594 q 622 651 601 622 q 688 758 656 703 l 701 785 l 772 649 q 775 649 774 649 q 797 657 785 651 q 851 691 822 669 q 897 731 881 713 q 906 743 903 738 l 847 833 l 976 826 q 981 836 978 831 q 992 879 988 853 z "},"+":{"ha":933,"x_min":42,"x_max":897,"o":"m 894 646 q 894 588 897 621 q 889 533 893 556 q 882 514 886 521 q 876 504 879 508 q 863 499 871 499 l 783 496 l 786 381 l 786 378 q 776 367 783 372 q 768 363 774 364 q 744 354 760 358 q 681 339 718 346 q 615 329 644 332 q 590 329 600 328 q 574 332 578 329 q 410 328 481 329 q 313 329 347 328 q 278 332 292 331 q 267 333 271 332 q 253 342 257 336 q 247 367 247 350 q 249 394 247 378 q 250 410 249 399 q 165 414 204 413 q 92 421 119 418 q 65 426 75 424 q 56 431 60 428 q 44 443 47 435 q 43 453 43 446 q 43 465 43 458 q 44 500 43 478 q 50 597 46 536 l 61 733 q 69 749 61 743 q 81 754 74 751 q 104 758 89 757 q 174 765 131 763 q 244 768 207 768 q 269 769 253 768 l 272 826 l 276 831 q 310 851 285 842 q 336 863 335 863 q 346 865 339 865 q 356 867 350 865 q 386 867 367 867 q 615 861 456 867 q 724 857 674 858 q 776 854 769 854 l 783 853 l 783 818 l 782 696 l 875 696 l 881 692 q 894 646 892 679 m 610 829 q 432 835 501 833 q 481 828 456 831 q 579 813 517 822 q 586 819 581 817 q 594 824 589 822 q 610 829 600 826 m 604 794 q 603 793 604 794 l 604 794 m 303 814 l 303 813 q 575 775 379 803 q 575 783 575 783 q 575 797 575 792 q 478 813 525 804 q 394 825 425 819 q 349 833 360 831 q 321 822 347 833 q 303 814 311 818 m 303 796 l 300 753 q 450 726 333 747 q 575 714 511 717 q 575 744 575 728 q 575 752 575 747 q 575 758 575 757 q 303 796 393 785 m 176 735 q 139 732 156 733 q 150 731 146 731 q 276 715 196 724 q 344 710 301 713 q 404 707 388 708 q 420 707 410 707 q 435 707 431 707 q 446 707 439 707 l 478 707 q 447 711 463 710 q 296 738 325 732 l 283 738 l 279 738 q 246 738 264 738 q 176 735 207 736 m 92 722 q 85 647 89 689 q 96 649 89 647 q 119 649 106 649 q 146 649 131 649 q 279 644 199 649 q 450 635 360 640 l 447 690 l 447 693 q 426 693 444 693 q 403 694 408 693 q 343 697 388 696 q 275 700 299 697 q 149 714 194 708 q 103 721 119 718 q 92 722 94 722 m 82 596 q 79 551 81 574 q 146 546 97 550 q 189 542 179 542 q 213 539 208 539 q 228 540 215 539 q 260 543 233 540 q 349 551 292 546 q 454 561 408 557 q 453 593 453 576 q 450 618 451 607 q 278 628 364 624 q 146 633 199 632 q 132 633 140 633 q 97 632 111 633 q 85 632 90 632 q 82 596 83 614 m 75 463 q 93 465 81 464 q 147 472 114 468 q 292 488 201 479 q 463 503 372 494 q 458 526 461 511 q 457 546 457 535 q 350 536 411 542 q 261 528 303 531 q 229 525 246 526 q 213 524 217 524 q 188 525 208 524 q 144 531 176 526 q 78 536 97 535 q 75 499 76 511 q 75 464 75 478 l 75 463 m 275 364 q 275 364 275 364 q 274 364 275 364 l 275 364 m 269 442 l 288 440 l 288 438 q 296 438 293 438 q 332 442 308 439 q 435 454 369 446 q 563 472 490 463 l 563 474 q 533 476 544 475 q 501 481 515 479 q 483 482 486 482 q 471 488 476 482 q 469 488 471 488 q 293 472 367 479 q 149 457 204 463 q 104 451 122 454 q 167 446 129 449 l 269 442 m 563 363 l 563 369 q 425 368 540 369 q 278 367 308 367 q 279 363 279 364 q 280 363 279 363 q 282 363 281 363 q 313 360 293 361 q 410 360 350 360 q 563 363 478 360 m 424 383 q 563 385 479 385 l 563 457 q 438 439 496 447 q 333 426 372 431 q 297 422 310 424 q 283 421 286 421 q 279 392 282 408 q 279 382 279 388 q 424 383 310 382 m 864 589 q 864 643 865 619 q 858 665 863 654 l 751 664 l 753 824 q 749 824 751 824 q 745 824 747 824 q 742 825 743 825 q 678 815 706 822 q 624 801 643 807 q 607 796 613 797 q 606 782 607 790 q 606 744 606 768 l 606 693 l 607 678 l 479 676 q 483 596 481 633 q 490 531 486 554 q 493 513 492 519 q 497 513 494 513 q 501 512 499 513 q 504 511 503 511 q 538 508 519 510 l 579 503 l 593 500 l 593 364 l 593 363 l 594 360 q 613 361 601 360 q 675 369 640 363 q 736 383 711 376 q 756 390 749 388 l 750 525 l 856 529 q 858 540 857 533 q 864 589 863 560 z "},",":{"ha":732,"x_min":36,"x_max":692,"o":"m 688 333 q 690 242 692 296 q 685 151 689 192 q 679 118 682 131 q 675 107 678 111 q 671 97 674 100 q 656 75 667 90 q 628 38 644 58 q 550 -57 592 -8 q 469 -142 503 -111 q 438 -168 450 -160 q 424 -175 429 -174 q 403 -174 413 -179 q 294 -187 343 -182 q 228 -193 253 -192 q 203 -192 213 -193 q 183 -186 189 -192 q 176 -178 179 -183 q 172 -168 174 -174 q 169 -146 171 -160 q 169 -103 168 -124 q 181 -61 169 -90 q 203 -10 188 -44 q 224 40 219 29 q 228 51 225 42 q 221 51 221 51 q 190 49 213 50 q 156 46 168 47 q 88 44 111 43 q 61 47 71 44 q 50 53 54 50 q 40 65 42 57 q 39 110 36 76 q 44 175 40 138 q 53 239 49 211 q 63 281 58 271 q 69 290 64 286 q 76 294 72 292 q 93 300 82 297 q 143 313 110 306 q 297 342 199 325 q 608 393 432 365 q 642 397 629 397 q 646 399 644 399 l 647 399 q 653 397 650 399 q 665 392 660 396 q 681 368 675 386 q 688 333 685 354 m 392 326 q 318 314 347 319 q 326 313 321 314 q 368 308 346 311 q 375 317 369 313 q 385 324 378 319 q 392 326 389 325 m 90 267 q 90 265 90 265 q 90 264 90 264 l 169 272 l 353 249 q 364 293 358 276 q 324 297 344 296 q 256 303 279 303 q 150 282 192 292 q 101 269 118 275 q 90 267 96 268 m 356 125 m 85 235 q 78 192 81 215 l 342 197 q 349 233 344 213 l 169 257 l 86 247 q 85 235 85 240 m 75 172 q 71 131 72 149 q 111 126 93 128 q 144 122 128 125 q 156 122 151 122 q 160 121 158 121 l 161 121 q 163 122 163 121 q 166 122 164 122 q 169 122 168 122 q 192 126 179 124 q 257 136 214 129 q 299 143 274 139 q 333 149 325 147 q 339 182 335 164 l 76 175 l 75 174 l 75 172 m 218 82 q 240 83 233 83 q 250 82 246 83 q 256 81 253 82 q 303 100 272 88 q 331 111 314 104 q 331 114 331 111 q 331 122 331 118 q 331 133 331 126 q 260 121 282 125 q 194 111 224 115 q 172 107 181 108 q 165 106 169 107 q 161 106 163 106 q 154 106 160 106 q 143 107 144 107 q 110 111 124 108 q 69 114 101 111 q 69 112 69 114 q 69 108 69 110 q 69 78 68 92 q 89 75 76 76 q 153 78 111 74 q 176 79 164 78 q 199 81 188 81 q 218 82 211 82 m 200 -104 q 200 -125 200 -114 q 203 -125 201 -125 q 228 -121 213 -124 q 299 -107 254 -115 q 393 -87 342 -99 q 389 -61 390 -72 l 313 -60 q 257 -82 286 -71 q 217 -97 233 -92 q 201 -103 207 -101 l 200 -103 q 200 -104 200 -104 m 292 -157 q 400 -142 340 -151 q 394 -106 397 -124 q 394 -103 394 -104 q 303 -122 343 -114 q 231 -136 260 -131 q 206 -140 215 -139 q 200 -140 203 -140 q 200 -143 200 -142 q 203 -160 201 -154 l 203 -161 q 206 -161 204 -161 q 226 -161 214 -162 q 292 -157 251 -161 m 388 -21 q 403 35 390 -6 q 331 13 368 24 q 265 -7 296 3 q 242 -14 251 -11 q 235 -15 236 -15 q 234 -17 235 -17 q 233 -17 233 -17 q 231 -22 233 -18 q 210 -72 215 -57 q 206 -85 207 -78 q 211 -83 208 -85 q 251 -68 225 -78 l 308 -44 l 310 -43 l 388 -44 q 388 -21 388 -31 m 408 57 q 419 96 417 83 q 420 99 419 97 q 421 100 421 100 q 396 97 413 99 q 364 93 375 94 q 350 94 356 93 q 340 97 343 96 q 310 85 321 89 q 264 67 279 72 q 264 65 264 67 q 261 49 264 60 q 253 29 258 42 q 242 3 249 19 q 261 8 247 4 q 326 28 285 15 q 407 53 365 40 q 408 57 408 56 m 658 243 q 656 331 660 296 q 651 358 654 349 q 649 365 650 365 l 647 367 l 646 367 l 646 367 l 646 363 q 515 332 581 349 q 426 306 458 317 q 400 296 408 300 q 396 293 397 294 q 372 190 385 253 q 363 138 365 158 q 361 125 363 132 q 363 125 363 125 q 392 128 371 125 q 422 132 415 131 q 435 132 431 132 q 443 129 440 131 q 453 119 450 126 q 454 111 454 117 q 453 104 454 108 q 450 89 453 99 q 439 49 447 76 q 419 -25 421 -14 q 421 -56 418 -32 q 426 -101 422 -75 q 431 -135 429 -119 q 447 -119 439 -128 q 526 -36 479 -89 q 604 57 568 11 q 631 92 621 78 q 643 113 642 107 l 644 115 l 646 117 q 646 118 646 117 q 649 125 647 121 q 653 156 651 136 q 658 243 658 194 z "},"-":{"ha":890,"x_min":31,"x_max":857,"o":"m 840 746 l 856 746 l 856 729 q 836 586 851 668 q 817 503 828 535 q 804 472 811 483 q 786 450 796 456 l 782 449 l 310 460 l 308 460 q 265 461 306 460 q 182 465 215 463 q 96 479 129 471 q 36 511 49 490 l 32 517 l 85 731 l 88 733 q 107 740 93 738 q 132 743 117 742 q 210 749 160 746 q 442 751 296 751 q 840 746 683 751 m 211 717 q 165 715 185 715 q 236 701 190 710 q 351 679 301 689 q 356 683 353 682 q 361 688 357 685 q 375 690 367 689 q 414 697 389 694 q 543 713 457 703 q 618 719 579 715 q 442 719 536 719 q 211 717 296 719 m 111 708 l 97 651 q 124 650 106 650 q 155 650 142 650 q 171 650 168 650 q 183 649 174 650 q 204 646 193 647 q 263 638 222 643 q 333 628 307 632 l 346 665 q 233 686 282 676 q 142 703 176 697 q 111 708 122 707 m 289 492 l 294 511 q 201 513 250 513 q 86 514 125 514 q 103 508 94 511 q 185 497 135 501 q 265 493 219 494 q 289 492 265 493 m 300 528 l 315 572 q 180 564 260 569 q 74 557 100 558 l 67 529 q 85 529 75 529 q 201 529 117 531 q 300 528 258 528 m 78 574 q 321 589 132 576 l 329 613 q 261 622 294 618 q 203 631 228 626 q 182 633 186 632 q 171 633 174 633 q 153 634 167 633 q 120 635 139 635 q 93 635 101 635 l 78 574 m 806 592 q 822 707 815 647 q 669 692 775 703 q 546 681 564 682 q 418 667 460 672 q 382 660 393 663 q 376 658 381 660 l 321 490 l 772 479 q 778 486 775 482 q 788 513 782 496 q 806 592 797 543 z "},".":{"ha":710,"x_min":33,"x_max":676,"o":"m 669 381 q 675 325 676 365 q 667 249 674 293 q 653 174 661 208 q 638 122 644 136 l 638 121 l 638 119 q 625 111 633 114 q 614 108 621 110 q 586 107 603 107 q 507 107 553 106 q 429 114 461 110 q 400 119 411 117 q 389 122 393 121 q 386 124 388 124 q 201 122 272 121 q 96 126 133 122 q 60 131 72 128 q 46 136 51 133 q 35 153 35 142 q 36 196 35 163 q 42 265 39 231 q 50 332 46 306 q 56 356 53 347 q 58 365 57 361 q 65 375 61 371 q 79 381 69 378 q 94 382 85 382 q 143 386 111 385 q 289 390 196 389 q 596 393 419 393 q 599 393 597 393 q 603 393 601 393 q 608 393 606 393 l 621 393 q 647 392 636 393 q 663 389 657 392 l 667 386 l 669 381 m 69 222 q 68 203 69 213 l 378 192 q 378 232 376 213 l 172 204 l 171 204 q 119 214 146 208 q 82 221 96 218 q 69 222 76 221 m 201 153 q 378 156 271 153 q 378 176 378 163 l 67 188 q 67 161 67 172 q 67 161 67 161 q 99 157 78 158 q 201 153 135 154 m 378 247 q 379 276 378 263 q 233 269 364 276 q 121 264 176 267 q 82 261 96 263 q 74 261 79 261 q 71 238 72 254 q 84 235 71 238 q 122 229 97 233 q 172 219 160 222 l 378 247 m 381 303 q 385 322 383 315 l 269 311 q 175 326 222 318 q 108 336 125 333 q 86 339 92 339 q 83 340 85 340 q 82 326 83 335 q 75 276 78 307 q 78 276 76 276 q 82 276 81 276 q 119 279 100 278 q 232 285 125 279 q 299 288 265 286 q 355 291 332 290 q 381 292 378 292 q 381 303 381 297 m 390 339 q 404 350 396 346 q 454 360 414 353 q 460 361 457 361 q 290 360 363 361 q 144 356 197 358 q 106 353 121 354 q 108 352 106 353 q 111 351 110 351 q 176 342 125 350 q 271 326 190 339 l 390 339 m 615 140 l 615 140 q 614 140 614 140 q 615 140 615 140 m 643 326 q 642 357 644 342 q 542 342 590 350 q 460 329 490 335 q 417 321 432 325 q 417 319 417 319 q 413 299 414 313 q 408 233 408 275 q 410 149 408 194 q 433 144 418 147 q 508 139 464 140 q 585 138 553 136 q 610 139 600 138 q 611 140 610 139 q 622 181 617 156 q 636 254 629 214 q 643 326 642 296 z "},"/":{"ha":911,"x_min":14,"x_max":900,"o":"m 892 901 l 899 894 l 535 -15 l 533 -18 q 514 -24 526 -24 q 493 -24 506 -25 q 436 -11 471 -19 q 275 38 368 6 q 113 100 182 71 q 54 129 76 117 q 19 154 28 143 l 14 161 l 399 965 l 400 967 q 417 976 404 972 q 436 981 424 979 q 490 983 457 983 q 589 976 539 983 q 694 946 661 967 q 800 938 733 953 q 854 921 831 929 q 892 901 881 911 m 424 946 l 406 908 q 521 896 447 904 q 617 885 576 889 q 649 881 639 882 q 650 881 650 881 q 664 910 658 900 q 667 917 665 913 q 669 924 669 921 q 585 944 639 938 q 490 951 536 951 q 440 949 460 951 q 425 946 431 949 l 424 946 m 399 893 l 376 847 l 442 860 l 614 801 q 618 810 615 804 q 622 818 621 817 q 643 865 642 863 q 615 869 629 867 q 519 879 578 874 q 469 885 494 882 q 424 891 444 889 q 399 893 404 893 m 368 829 l 344 778 q 589 749 418 772 q 607 786 597 765 l 440 843 l 368 829 m 336 763 l 297 681 l 415 679 l 533 626 q 582 735 558 681 q 336 763 404 758 m 289 665 l 263 610 q 304 603 278 608 q 396 588 339 597 q 506 568 440 579 q 526 613 521 601 l 413 664 l 289 665 m 256 594 l 203 482 q 468 485 296 485 q 494 543 481 513 q 499 553 496 547 q 393 572 454 561 q 303 588 340 582 q 256 594 271 593 m 194 467 l 172 419 q 179 418 174 418 q 233 408 201 414 q 289 399 267 401 q 308 396 300 397 l 318 394 q 342 396 322 394 q 383 399 361 397 q 410 400 394 399 q 429 401 426 401 q 461 469 454 454 q 194 467 289 469 m 165 404 l 135 340 q 271 307 178 333 q 374 276 321 293 q 422 385 396 325 q 407 384 421 385 q 385 382 393 383 q 343 381 360 381 q 318 379 322 379 q 307 381 315 379 q 286 383 300 381 q 231 393 267 386 q 176 403 201 397 q 165 404 174 403 m 126 325 l 85 236 q 208 221 143 229 q 307 208 278 213 q 342 206 329 207 q 367 261 354 232 q 265 293 314 279 q 126 325 174 319 m 53 171 l 311 128 q 314 136 313 131 q 325 167 318 147 q 336 190 329 175 q 306 193 321 192 q 206 206 261 199 q 78 221 117 217 l 53 171 m 285 68 q 432 22 368 39 q 414 32 422 28 q 346 74 371 56 q 322 93 331 85 q 308 111 310 104 l 79 150 q 125 129 99 140 q 285 68 193 100 m 514 14 l 861 883 q 843 892 853 888 q 793 907 821 900 q 719 917 753 917 q 700 915 708 917 q 692 897 696 904 q 650 806 681 872 q 522 531 561 613 q 396 250 443 356 q 354 154 368 188 q 343 125 347 136 q 340 118 342 124 q 343 115 342 117 q 364 100 350 108 q 429 60 388 83 q 514 14 468 38 z "},":":{"ha":772,"x_min":40,"x_max":731,"o":"m 674 322 l 676 318 q 682 263 683 301 q 674 185 681 229 q 660 110 668 146 q 644 58 651 72 l 644 57 q 632 47 640 50 q 621 44 628 46 q 593 43 611 43 q 514 43 560 42 q 436 50 468 46 q 407 56 418 53 q 396 58 400 57 q 395 59 396 58 q 393 60 394 60 q 208 58 278 57 q 103 63 140 58 q 67 67 79 64 q 53 72 58 69 q 42 89 43 78 q 43 132 42 99 q 49 201 46 167 q 57 268 53 242 q 63 292 60 283 q 65 301 64 297 q 72 311 68 307 q 86 317 76 314 q 101 319 92 318 q 150 322 119 321 q 296 326 203 325 q 603 329 426 329 q 609 329 606 329 q 615 329 613 329 q 628 329 621 329 q 654 328 643 329 q 669 325 664 328 l 674 322 m 76 160 q 75 140 76 151 l 385 128 q 385 169 385 150 l 186 169 q 183 169 186 169 q 175 169 181 169 q 163 167 169 168 q 149 166 157 167 q 132 165 140 165 q 92 161 107 163 q 76 160 81 160 m 208 89 q 386 92 282 89 q 385 113 385 97 l 74 124 q 74 99 74 108 q 74 97 74 97 q 106 93 85 94 q 208 89 143 90 m 386 185 q 388 213 386 200 q 362 212 383 213 q 306 209 340 211 q 240 206 272 207 q 128 200 185 203 q 89 197 103 199 q 85 197 88 197 q 81 197 82 197 q 78 175 79 182 q 90 176 83 176 q 131 181 104 178 l 185 186 l 186 186 l 386 185 m 390 244 q 393 260 392 253 l 218 244 l 217 244 q 151 261 185 253 q 106 272 121 268 q 90 275 96 274 q 89 263 89 269 q 82 213 85 243 q 89 213 85 213 q 126 215 104 214 q 152 216 138 215 q 179 217 167 217 q 209 219 192 218 q 239 221 226 221 q 282 223 258 222 q 322 225 306 224 q 353 227 338 226 q 377 228 368 228 q 389 229 386 228 q 390 244 389 238 m 397 275 q 414 292 403 289 q 433 297 419 294 l 435 297 q 297 296 360 297 q 151 292 204 294 q 106 288 122 290 q 110 288 108 288 q 156 276 125 283 q 185 269 169 272 q 210 263 201 265 q 219 260 219 260 l 397 275 m 622 76 l 622 76 q 621 76 621 76 q 622 76 622 76 m 650 263 q 649 293 651 278 q 549 282 599 288 q 469 271 501 276 q 439 267 450 268 q 428 264 432 265 q 426 261 426 263 q 421 240 424 254 q 417 174 418 215 q 417 85 415 131 q 440 81 425 83 q 515 74 471 76 q 592 74 560 72 q 617 76 607 75 q 618 76 617 76 q 629 117 624 92 q 643 190 636 150 q 650 263 649 233 m 728 757 q 728 682 729 725 q 721 606 725 639 q 710 553 715 567 l 708 551 l 708 550 q 696 542 704 544 q 685 539 692 540 q 654 538 672 538 q 568 538 618 536 q 482 544 518 540 q 451 550 464 547 q 440 553 444 551 q 436 554 438 554 q 260 554 336 553 q 158 558 194 556 q 125 564 136 561 q 111 569 117 567 q 100 586 101 575 q 100 696 99 622 q 103 761 101 736 q 106 785 104 776 q 108 794 107 790 q 115 806 111 801 q 129 811 119 808 q 144 814 135 813 q 193 817 161 815 q 340 821 247 819 q 646 824 468 824 q 652 824 649 824 q 658 824 656 824 q 662 824 660 824 q 667 824 664 824 q 671 824 669 824 q 699 822 686 824 q 713 819 707 822 l 717 817 l 719 813 q 728 757 726 796 m 138 785 m 131 656 q 131 633 131 644 l 428 622 q 428 665 428 646 l 346 672 q 331 671 346 672 q 287 667 315 669 q 233 664 258 665 q 153 657 172 658 q 131 656 146 656 m 260 585 q 429 586 332 583 q 428 607 428 593 l 131 618 q 132 594 132 601 q 132 594 132 594 q 161 590 142 592 q 260 585 196 586 m 428 681 q 429 708 428 696 q 285 713 417 708 q 174 717 218 715 q 135 717 157 717 q 134 717 135 717 q 132 718 133 717 q 132 694 132 707 q 131 671 131 683 q 151 672 142 672 q 232 679 179 675 l 346 689 l 428 681 m 432 733 q 436 757 433 747 l 257 761 q 135 763 253 761 q 135 760 135 761 q 135 758 135 760 q 132 733 133 749 q 136 733 135 733 q 174 732 154 732 q 285 728 217 731 q 431 724 411 725 q 432 733 431 729 m 443 772 q 454 781 447 778 q 506 792 464 785 q 510 792 508 792 q 340 790 414 792 q 194 786 249 789 q 149 782 165 785 q 138 781 142 782 l 136 779 q 136 778 136 778 l 257 778 l 443 772 m 686 571 l 686 572 q 685 571 686 572 q 686 571 685 571 m 696 683 q 697 756 699 725 q 693 788 696 772 q 592 772 636 779 q 510 760 542 765 q 468 751 482 756 q 467 750 467 751 q 463 729 464 743 q 458 664 460 706 q 460 579 458 626 q 486 575 469 578 q 569 569 521 571 q 653 568 618 567 q 681 571 669 569 q 682 571 681 571 q 690 610 688 586 q 696 683 694 642 z "},";":{"ha":786,"x_min":43,"x_max":742,"o":"m 688 400 q 694 365 692 388 q 697 275 699 329 q 692 183 696 225 q 686 150 689 164 q 682 139 683 143 q 678 129 681 132 q 663 107 674 122 q 635 69 651 90 q 557 -25 599 24 q 476 -110 510 -79 q 444 -136 457 -128 q 431 -143 436 -142 q 410 -142 419 -147 q 301 -156 349 -150 q 235 -161 260 -160 q 210 -160 219 -161 q 190 -154 196 -158 q 183 -146 186 -151 q 179 -136 181 -142 q 176 -114 176 -126 q 176 -71 175 -93 q 188 -29 176 -58 q 210 24 194 -11 q 231 72 225 58 q 235 83 232 74 q 228 83 228 83 q 208 82 219 83 q 185 80 197 81 q 163 78 172 79 q 94 76 118 75 q 68 79 78 76 q 57 85 61 82 q 47 97 49 90 q 46 143 43 110 q 51 207 47 169 q 60 272 56 242 q 69 314 65 303 q 76 322 71 318 q 83 326 79 324 q 100 332 89 329 q 150 344 117 338 q 304 374 206 357 q 615 425 440 399 q 649 429 636 429 q 653 431 651 431 l 656 431 q 660 429 657 431 q 672 424 667 429 q 688 400 682 418 m 399 358 q 325 346 360 353 q 333 346 328 346 q 375 340 353 343 q 381 349 376 344 q 392 356 385 353 q 399 358 396 357 m 97 299 q 97 296 97 297 l 176 304 l 360 281 q 371 325 365 307 q 331 329 351 328 q 263 335 288 335 q 157 314 197 324 q 108 303 125 307 q 97 299 101 300 m 363 157 m 92 267 q 85 224 88 249 l 349 229 q 356 265 351 247 l 176 289 l 93 279 q 92 267 92 274 m 82 204 q 78 163 79 182 q 117 158 100 160 q 151 156 135 157 q 163 154 157 154 q 167 154 165 154 q 168 153 168 153 q 169 154 169 154 q 176 154 172 154 q 199 158 185 156 q 264 169 224 163 q 308 176 282 172 q 340 181 333 181 q 346 214 342 194 l 83 208 q 82 204 82 206 m 225 114 q 247 115 240 115 q 257 114 253 115 q 263 113 260 114 q 310 132 281 119 q 338 143 322 136 q 338 146 338 144 q 338 154 338 150 q 338 165 338 158 q 267 153 293 158 q 201 143 225 146 q 179 139 188 140 q 172 138 175 139 q 168 138 169 138 q 161 138 167 138 q 157 139 161 139 q 150 139 153 139 q 117 143 132 142 q 76 147 97 144 q 76 140 76 146 q 76 110 75 124 q 96 107 83 108 q 160 110 118 107 q 183 111 169 110 q 207 113 196 113 q 225 114 218 114 m 207 -72 q 207 -93 207 -81 q 210 -93 208 -93 q 235 -89 219 -90 q 306 -75 260 -83 q 400 -56 353 -65 q 396 -29 397 -40 l 319 -26 q 264 -50 299 -36 q 224 -65 239 -60 q 208 -71 213 -69 q 207 -71 208 -71 q 207 -72 207 -72 m 299 -124 q 407 -110 347 -119 q 401 -74 404 -89 q 401 -71 401 -72 q 310 -90 349 -82 q 238 -104 265 -99 q 213 -108 221 -107 q 207 -108 210 -108 q 207 -111 207 -110 q 210 -128 208 -122 q 213 -129 211 -129 q 233 -129 221 -129 q 299 -124 258 -129 m 394 11 q 410 67 397 26 q 339 44 376 57 q 272 25 301 33 q 249 18 257 21 q 242 17 244 17 q 240 15 240 17 q 239 13 240 15 q 239 10 239 11 q 217 -40 224 -24 q 213 -53 214 -46 q 218 -51 215 -51 q 258 -35 232 -46 l 315 -12 l 317 -11 l 394 -12 q 394 11 394 3 m 415 89 q 426 129 424 115 l 428 131 l 428 132 q 403 129 419 132 q 371 126 381 126 q 357 126 363 125 q 347 129 350 128 q 317 117 326 122 q 271 99 288 106 q 268 81 271 92 q 260 61 265 72 q 249 35 256 50 q 268 40 256 36 q 333 60 286 46 q 414 85 369 71 q 415 87 414 85 q 415 89 415 89 m 665 275 q 663 363 667 326 q 658 390 661 381 q 656 397 657 397 l 654 399 l 653 399 l 653 399 l 653 394 q 522 364 588 381 q 433 339 465 349 q 407 328 415 332 q 403 326 404 326 q 379 222 392 285 q 369 169 372 190 q 368 157 369 164 q 369 157 369 157 q 399 160 379 157 q 429 164 422 164 q 443 164 438 164 q 450 163 447 164 q 460 151 457 158 q 461 143 461 149 q 460 136 461 140 q 457 121 460 131 q 446 81 454 107 q 426 7 428 18 q 428 -22 425 0 q 433 -69 429 -43 q 438 -101 435 -83 q 454 -87 446 -96 q 533 -4 486 -57 q 611 89 575 43 q 638 125 626 110 q 650 144 647 139 l 651 147 l 653 149 q 653 150 653 149 q 656 157 654 153 q 660 188 658 168 q 665 275 665 226 m 735 813 q 740 757 742 796 q 732 681 739 724 q 718 604 726 639 q 703 553 710 568 l 703 551 q 690 542 699 544 q 679 540 686 540 q 651 538 669 538 q 572 539 618 536 q 494 544 526 540 q 465 550 476 547 q 456 553 460 551 q 451 556 453 554 q 267 553 336 553 q 161 557 200 554 q 125 563 138 558 q 113 567 117 564 q 100 583 101 572 q 101 626 100 594 q 108 696 104 661 q 117 763 113 736 q 121 786 118 778 q 124 796 122 792 q 131 806 126 801 q 144 811 135 810 q 160 814 150 813 q 208 817 176 815 q 356 822 263 819 q 661 824 483 824 q 667 824 664 824 q 674 824 671 824 q 677 824 675 824 q 682 824 679 824 q 686 824 685 824 q 713 824 701 824 q 728 819 722 822 l 732 817 l 735 813 m 135 654 q 133 628 135 640 l 443 622 q 443 658 443 643 l 233 669 q 231 669 233 669 q 223 667 228 668 q 213 666 218 667 q 199 664 207 665 q 185 661 192 663 q 149 657 161 658 q 135 654 139 656 m 268 585 q 444 586 338 583 q 443 607 443 594 l 132 613 q 132 593 132 601 q 164 588 143 590 q 268 585 200 585 m 443 675 q 444 708 443 693 q 426 708 440 708 q 396 709 413 708 q 352 710 379 710 q 301 710 325 710 q 193 711 226 711 q 140 711 142 711 q 139 693 140 707 q 136 671 138 682 q 147 672 142 671 q 183 676 163 674 l 232 685 l 443 675 m 447 733 q 451 757 449 747 l 336 757 q 242 764 289 761 q 175 769 208 767 q 153 771 157 771 q 150 771 151 771 q 147 757 149 765 q 143 728 144 743 q 193 726 147 728 q 303 725 226 726 q 367 725 332 725 q 421 724 401 725 q 446 724 440 724 q 447 733 446 728 m 458 772 q 469 781 463 778 q 521 792 479 785 q 525 792 525 792 q 356 790 429 792 q 210 786 265 789 q 183 785 194 785 q 243 779 203 783 q 338 772 336 772 l 458 772 m 681 572 l 681 572 q 679 571 681 572 l 681 572 m 708 758 q 708 788 710 774 q 607 774 656 781 q 525 761 560 767 q 483 751 497 756 q 482 750 482 751 q 478 729 479 743 q 474 665 474 706 q 475 579 474 625 q 499 576 483 578 q 574 569 529 572 q 650 568 618 568 q 675 571 667 569 q 676 571 675 571 q 688 611 682 586 q 701 685 696 646 q 708 758 707 728 z "},"<":{"ha":788,"x_min":32,"x_max":739,"o":"m 739 640 q 732 611 739 621 l 729 607 l 558 535 q 556 531 557 532 q 554 515 554 524 q 557 500 554 506 q 558 496 557 497 l 704 403 l 706 399 q 699 225 739 343 q 665 147 685 181 q 646 119 656 131 q 624 103 635 106 l 624 103 q 486 88 557 93 q 378 88 422 85 q 297 113 321 93 q 156 257 243 160 q 82 346 110 307 q 42 415 47 392 q 39 494 33 456 q 60 593 40 513 l 61 593 l 61 594 q 171 710 85 650 q 346 807 240 758 q 519 878 431 846 q 624 908 597 906 l 626 908 l 628 907 q 654 890 642 906 q 675 858 664 878 q 711 771 693 824 q 735 678 728 719 q 739 640 739 656 m 360 779 q 315 757 336 768 q 378 756 328 757 q 457 753 425 754 q 467 764 465 763 q 568 861 514 811 q 531 849 550 856 q 360 779 443 818 m 189 683 q 174 674 182 679 q 181 674 176 674 q 189 676 185 675 q 196 678 193 676 l 265 690 l 268 690 l 365 653 q 367 654 365 653 q 442 738 396 690 q 376 740 404 739 q 286 743 318 742 q 189 683 229 713 m 147 653 q 93 590 108 619 q 124 590 104 590 q 214 594 165 592 q 328 599 250 596 q 356 640 336 615 l 267 675 q 200 663 264 674 q 147 653 174 657 m 69 490 q 68 449 67 468 q 119 446 88 444 q 211 451 157 446 q 313 464 260 456 q 311 475 311 469 q 317 563 311 489 q 321 583 317 572 q 215 578 257 581 q 125 575 165 576 q 92 575 103 575 q 90 575 92 575 q 88 575 89 575 q 69 490 72 508 m 107 364 q 118 349 113 357 l 189 376 l 192 376 l 388 347 q 386 349 388 347 q 332 413 340 400 q 315 449 319 429 q 213 436 261 440 q 121 429 158 431 q 71 432 89 429 q 72 422 71 428 q 107 364 76 406 m 179 278 q 204 250 192 264 l 308 272 l 490 238 q 481 247 485 243 q 404 329 435 296 l 193 361 q 129 336 157 346 q 179 278 151 308 m 288 164 l 539 186 q 508 218 528 199 l 308 257 l 217 236 q 288 164 254 196 m 483 119 q 592 131 536 122 q 581 141 588 135 q 567 156 575 147 q 553 172 558 165 l 303 149 q 318 136 313 140 q 381 119 333 124 q 483 119 422 115 m 707 632 q 707 640 707 636 q 704 672 707 653 q 681 761 697 713 q 647 844 665 811 q 631 869 639 861 q 628 872 629 871 q 489 742 556 808 q 392 635 428 679 q 347 560 349 582 q 343 476 342 489 q 357 429 344 449 q 410 369 365 418 q 503 269 449 326 q 624 142 568 200 q 638 163 631 150 q 669 235 656 193 q 687 317 683 278 q 681 381 690 357 l 542 469 q 526 489 532 475 q 523 514 524 500 q 526 539 522 528 q 542 561 531 554 l 542 563 l 707 632 z "},"=":{"ha":1006,"x_min":46,"x_max":965,"o":"m 963 860 q 964 833 965 850 q 956 764 963 806 q 940 694 949 725 q 931 669 935 679 q 917 651 925 656 l 914 650 l 911 650 q 858 644 897 649 q 756 631 818 639 q 646 618 693 624 q 482 601 544 606 q 378 597 404 594 q 374 597 376 597 q 364 601 369 597 q 210 597 279 599 q 118 596 151 596 q 89 597 99 596 q 79 597 82 597 q 74 599 75 599 q 69 601 71 600 q 63 610 64 604 q 63 618 63 614 q 63 626 63 621 q 67 649 64 636 q 78 715 71 679 q 93 786 86 758 q 111 835 103 824 l 111 836 l 113 836 q 124 844 117 842 q 138 847 129 846 q 175 854 151 851 q 279 864 215 860 q 453 872 396 872 l 454 872 l 457 874 l 942 882 l 944 882 l 946 881 q 960 871 954 879 q 963 860 961 865 m 135 815 q 128 794 132 808 l 428 821 l 433 842 q 282 833 364 839 q 179 824 218 829 q 144 818 158 821 q 135 815 139 815 m 372 633 l 376 647 q 246 657 308 653 q 140 663 181 661 q 103 664 117 664 q 101 664 103 664 q 100 664 100 664 q 97 644 97 650 q 94 628 96 638 q 118 628 107 628 q 208 628 150 626 q 372 633 282 629 m 381 663 l 397 717 l 108 711 q 108 710 108 710 q 103 679 106 696 q 140 678 117 679 q 247 672 182 676 q 381 663 311 668 m 111 728 l 401 732 l 424 806 l 124 778 q 111 728 118 757 m 933 835 q 932 850 933 843 l 467 843 l 403 628 q 479 632 433 628 q 643 649 542 638 q 747 661 688 654 q 844 673 806 668 q 901 681 883 678 q 903 682 901 681 q 910 704 906 690 q 925 769 918 732 q 933 835 932 808 m 911 443 q 911 439 911 440 q 911 438 911 439 q 911 435 911 438 q 910 429 911 432 q 907 407 910 421 q 894 335 901 372 q 847 179 871 224 l 843 171 l 318 171 l 317 171 q 283 172 308 171 q 231 176 258 174 q 179 179 203 178 q 104 189 133 183 q 54 206 67 194 l 47 210 l 47 218 q 49 236 47 221 q 53 269 50 246 q 63 365 56 304 l 79 499 l 79 503 l 81 506 q 107 519 88 515 q 142 525 119 524 q 242 529 179 529 q 494 519 388 529 l 494 518 q 663 491 558 508 q 838 463 767 474 l 838 463 q 839 463 838 463 q 846 461 840 463 q 856 460 849 461 q 867 458 864 460 q 888 456 883 457 q 894 454 894 456 q 897 454 896 454 l 897 454 l 899 454 l 899 454 l 899 454 q 910 447 906 453 q 911 443 910 444 m 144 494 q 135 493 139 493 l 356 438 l 357 442 l 763 443 q 638 464 725 450 q 490 488 551 478 q 242 497 385 497 q 144 494 181 497 m 108 483 q 101 422 107 467 l 347 403 l 351 422 l 108 483 m 94 361 q 94 358 94 360 q 93 353 93 356 q 93 350 93 351 q 333 351 107 350 l 343 388 l 100 407 q 94 361 97 392 m 297 203 l 314 274 l 175 258 l 85 283 q 83 267 85 275 q 79 232 81 243 q 79 226 79 231 q 110 219 93 222 q 182 211 138 214 q 297 203 213 208 m 176 275 l 318 290 l 329 335 q 90 333 92 333 q 88 299 88 306 l 176 275 m 876 411 q 876 413 876 413 l 381 411 l 329 201 l 824 203 q 864 342 844 247 q 876 411 871 376 z "},">":{"ha":814,"x_min":51,"x_max":782,"o":"m 779 486 q 778 440 781 460 q 761 404 774 417 q 749 385 758 397 q 725 354 740 372 q 650 269 699 324 q 478 83 479 85 l 471 76 l 461 79 q 454 82 457 81 l 453 83 q 446 85 451 83 q 257 76 329 78 q 146 78 186 75 q 107 83 121 81 q 93 89 99 86 q 81 103 83 93 l 79 104 l 79 107 q 74 392 74 339 q 90 422 74 410 q 124 438 101 431 q 211 457 149 446 q 293 475 274 468 q 315 483 308 479 q 313 485 314 485 q 288 493 304 490 q 203 504 263 499 q 113 515 136 511 q 78 524 92 519 q 54 544 60 532 l 51 549 l 53 554 q 81 681 65 615 q 106 778 94 739 q 129 843 119 828 q 176 868 140 860 q 247 879 203 875 q 406 885 313 885 l 464 883 l 478 883 l 478 875 q 497 864 485 872 q 536 833 513 853 q 630 740 578 796 q 718 638 682 685 q 749 594 738 613 q 764 564 761 575 q 779 486 776 535 m 157 826 q 144 797 153 819 l 414 810 q 432 853 424 835 q 406 853 419 853 q 250 847 313 853 q 183 838 208 844 q 169 833 176 836 q 158 828 161 829 q 157 826 156 826 m 135 769 q 121 714 128 744 q 146 717 131 715 q 225 725 176 721 l 338 736 l 342 736 l 378 708 q 389 743 383 725 q 408 794 399 768 l 139 781 q 135 769 138 778 m 111 674 q 104 646 110 669 q 113 646 108 646 q 144 647 117 646 q 240 653 186 650 q 292 656 265 654 q 339 659 318 658 q 363 661 360 660 q 372 692 367 675 l 336 721 q 228 710 289 717 q 147 701 178 706 q 118 697 129 700 q 117 697 118 697 q 111 674 113 682 m 101 629 q 86 565 93 594 q 240 582 129 568 q 353 597 297 590 q 353 611 353 601 q 358 644 354 625 q 339 644 353 644 q 312 642 325 643 q 279 640 299 640 q 242 638 260 639 q 146 632 221 636 q 113 631 126 631 q 101 629 104 629 m 293 524 q 326 514 314 519 q 404 549 361 532 q 402 550 403 550 q 400 551 401 550 q 360 581 368 568 q 358 581 358 581 q 358 582 358 582 q 243 567 303 575 q 97 550 142 554 q 118 546 106 547 q 206 536 140 542 q 293 524 268 529 m 346 494 l 513 497 q 460 522 497 506 q 422 540 435 533 q 340 503 378 522 q 346 494 343 500 m 517 481 l 347 479 q 344 469 347 474 q 333 458 340 464 q 332 457 332 457 q 381 446 351 453 q 442 433 411 439 q 460 444 451 439 q 513 478 500 469 q 517 481 515 479 m 133 407 q 121 403 126 406 q 154 397 138 400 q 257 382 194 390 q 372 367 314 374 q 383 390 372 378 q 403 407 390 397 q 422 421 411 414 q 378 431 400 425 q 325 443 344 438 q 310 447 317 446 q 301 444 307 446 q 217 426 281 438 q 133 407 157 415 m 104 390 q 107 276 104 365 q 110 278 108 276 q 144 281 126 279 q 244 290 164 282 q 306 297 274 293 q 358 302 338 300 q 381 304 378 304 q 381 308 381 306 q 381 311 381 310 q 374 350 375 338 q 256 367 315 358 q 153 381 193 375 q 104 390 119 386 m 107 261 q 110 175 108 232 l 410 175 q 399 222 404 197 q 385 289 390 256 q 246 275 354 286 q 146 265 196 269 q 111 261 128 263 q 108 261 110 261 q 107 261 107 261 m 256 108 q 429 115 326 110 q 422 133 426 122 q 414 160 418 146 l 110 160 q 111 115 111 117 q 114 114 113 114 q 149 110 126 111 q 256 108 188 107 m 738 425 q 746 445 743 429 q 747 483 749 461 q 735 553 746 528 l 733 554 l 733 556 q 722 578 732 563 q 694 618 713 594 q 607 719 658 664 q 515 810 556 774 q 479 838 494 828 q 465 846 476 840 l 461 844 q 418 732 438 785 q 390 642 399 676 q 385 608 385 621 q 385 600 385 604 q 385 599 385 599 q 415 578 393 590 q 472 551 431 569 q 528 524 513 532 q 547 511 540 517 q 561 490 560 501 q 550 468 561 479 q 531 451 543 461 q 475 418 518 443 q 422 382 438 394 q 407 369 411 375 q 404 365 406 367 q 411 317 404 353 q 429 229 418 275 q 453 143 442 176 q 463 117 457 126 l 465 117 l 465 115 q 557 216 493 147 q 626 292 621 285 q 700 374 675 344 q 724 403 715 392 q 733 418 733 415 l 735 422 l 738 425 z "},"?":{"ha":1074,"x_min":17,"x_max":1050,"o":"m 1006 914 q 1043 803 1038 864 q 1032 699 1049 743 q 890 514 1007 629 q 851 476 878 501 q 815 442 825 451 q 793 417 800 426 q 788 410 786 411 q 782 333 788 399 q 776 322 782 326 q 771 318 775 319 q 763 315 768 317 q 736 310 753 313 q 661 300 704 303 q 582 296 614 294 q 551 297 564 296 q 533 303 538 300 q 440 306 483 303 q 364 314 392 308 q 335 321 346 317 q 315 340 318 328 q 301 406 306 379 q 300 442 299 426 q 310 472 300 463 q 324 485 314 476 q 347 501 333 492 q 411 544 372 518 q 428 556 417 549 q 444 567 439 563 q 350 556 400 561 q 149 532 182 538 q 113 539 136 531 q 69 558 92 546 q 33 585 46 572 q 22 601 25 593 q 21 624 17 613 q 36 665 26 639 q 82 753 46 690 q 165 867 118 817 q 607 1051 338 1051 q 617 1050 610 1051 q 744 1039 679 1050 q 1006 914 931 1035 m 603 1019 q 501 1011 550 1019 q 576 1010 565 1010 q 603 1019 590 1015 m 436 997 q 328 954 379 982 q 351 951 331 953 q 382 947 371 949 q 435 942 432 942 q 461 939 458 939 l 461 936 q 544 996 499 972 q 496 996 521 996 q 436 997 454 997 m 306 940 q 246 899 275 922 q 429 901 365 900 q 449 925 439 914 q 444 925 447 925 q 439 926 442 925 q 433 926 436 926 q 407 929 425 928 q 381 932 389 931 q 306 940 311 940 m 189 846 q 157 810 172 828 q 278 821 199 813 q 382 832 328 826 q 385 838 383 833 q 417 886 400 863 q 228 883 282 883 q 189 846 207 865 m 144 793 q 101 728 121 761 q 143 722 118 725 q 211 714 193 717 l 213 714 q 219 715 217 715 q 238 718 225 717 q 288 729 254 722 q 343 742 319 736 q 374 815 357 781 q 279 806 331 811 q 144 793 181 794 m 93 713 q 53 621 68 664 q 100 622 72 621 q 201 628 139 624 q 321 638 256 632 q 339 724 324 674 q 292 714 308 717 q 240 703 258 707 q 221 700 229 701 q 210 699 213 699 q 142 707 188 701 q 99 711 115 710 q 93 713 99 713 m 57 606 q 85 586 68 596 q 135 593 101 589 q 242 604 176 599 q 339 613 289 608 q 336 614 338 614 q 326 621 331 618 l 326 622 q 203 613 260 617 q 100 607 140 608 q 57 606 72 606 m 346 588 q 396 592 389 592 q 371 599 382 596 q 358 598 367 599 q 343 597 349 597 q 243 589 289 593 q 136 578 178 582 q 108 574 122 576 q 122 568 115 571 q 133 565 128 567 q 141 563 139 564 q 143 563 143 563 q 346 588 179 569 m 428 518 q 497 508 451 515 q 563 497 533 503 q 583 524 574 510 q 572 525 579 524 q 525 532 550 528 q 464 542 500 536 q 428 518 442 526 m 651 646 q 614 647 629 647 q 607 642 607 642 q 563 607 585 626 q 653 619 603 613 q 667 644 661 633 q 651 646 660 644 m 636 663 q 653 661 644 661 q 674 658 665 660 q 681 676 679 669 q 682 682 682 679 q 681 682 681 682 q 661 676 674 681 q 636 663 651 671 m 640 601 q 543 588 574 593 l 542 589 q 533 582 535 583 q 533 581 533 581 q 525 575 531 576 q 515 574 521 574 l 513 574 q 483 554 499 564 q 528 547 500 551 q 574 540 557 543 q 594 538 585 539 q 617 567 606 553 q 640 601 629 585 m 525 335 l 525 367 l 342 361 q 344 351 343 356 q 347 350 346 350 q 369 344 354 347 q 442 336 396 339 q 525 335 479 335 m 525 382 l 526 418 q 524 418 525 418 q 522 418 524 418 q 501 417 513 417 q 438 410 474 414 q 333 403 358 404 q 339 376 336 390 l 525 382 m 526 435 l 526 446 q 436 447 499 446 q 364 449 389 449 q 338 450 346 450 l 332 450 q 331 440 331 444 q 332 418 331 431 q 436 426 357 419 q 500 432 469 429 q 521 433 517 433 q 526 435 524 433 m 533 461 q 551 483 540 468 q 494 493 519 489 q 407 504 432 503 q 365 476 382 488 q 350 465 356 469 q 364 465 356 465 q 436 464 390 464 q 533 461 488 463 m 1001 710 q 1012 800 1017 746 q 979 897 1007 854 q 736 1007 911 1006 q 413 822 517 1008 q 353 640 363 733 q 371 632 358 636 q 433 615 394 624 q 494 606 468 608 q 513 604 506 604 q 588 667 550 639 q 649 704 624 693 q 678 713 665 713 q 706 702 696 714 q 711 668 717 690 q 696 633 707 654 q 642 549 678 599 q 558 442 601 493 l 556 329 l 557 328 q 582 326 567 326 q 658 331 613 326 q 731 340 700 335 q 751 344 744 342 q 756 410 756 385 q 768 436 756 421 q 793 463 776 446 q 814 484 801 472 q 842 510 826 496 q 868 536 857 525 q 1001 710 981 647 m 789 256 l 793 250 l 775 0 l 778 -3 l 775 -11 q 767 -21 774 -17 q 761 -22 764 -22 q 750 -25 757 -25 q 506 -24 690 -32 q 372 -14 424 -19 q 329 -8 344 -11 q 315 -4 321 -7 q 308 0 311 -3 q 301 13 303 6 q 299 88 300 49 q 297 143 297 119 q 299 181 297 172 q 307 194 300 189 q 318 200 311 197 q 346 210 328 206 q 425 226 375 218 q 503 240 463 233 q 531 243 519 242 q 546 244 543 244 l 553 244 l 556 242 q 579 249 564 246 q 632 257 600 253 q 742 265 692 265 q 767 264 757 265 q 778 263 774 263 q 789 256 785 260 m 331 172 l 407 178 l 532 183 q 532 213 532 194 q 508 208 521 211 q 431 196 468 203 q 354 181 382 188 q 331 172 339 176 m 329 118 q 361 121 342 119 q 439 128 393 124 q 531 136 490 132 l 531 140 q 531 168 531 156 l 408 161 l 329 156 q 329 143 329 149 q 329 118 329 135 m 331 88 q 331 79 331 82 q 435 81 338 79 q 532 81 471 81 q 531 121 531 97 q 440 113 478 115 q 363 106 388 107 q 329 103 338 103 q 330 95 329 100 q 331 88 331 90 m 365 28 q 443 42 400 35 q 535 57 476 47 q 533 65 535 61 q 515 65 529 65 q 478 65 501 65 q 435 64 456 65 q 331 64 333 64 q 333 24 332 40 q 335 22 333 24 q 365 28 344 25 m 507 8 q 636 4 572 6 q 588 17 607 11 q 563 25 572 21 q 544 36 549 31 q 539 42 542 39 q 446 26 504 36 q 386 15 421 22 q 507 8 435 11 m 744 14 l 760 233 q 742 233 751 233 q 635 226 694 233 q 586 218 606 222 q 564 211 574 215 q 563 140 563 172 q 564 82 563 103 q 567 61 565 68 q 568 57 567 60 q 574 54 571 56 q 596 47 582 51 q 663 31 621 39 q 744 14 700 22 m 768 232 z "},"@":{"ha":1646,"x_min":38,"x_max":1592,"o":"m 1053 624 l 1096 619 l 1108 618 l 1107 453 l 1093 451 q 1025 457 1060 449 q 976 483 994 465 q 953 543 953 506 q 989 610 953 589 q 1053 624 1014 624 m 1075 482 l 1076 506 q 1056 497 1065 501 q 1029 489 1038 492 l 1031 488 l 1033 488 q 1075 482 1051 482 m 1076 522 l 1076 558 q 1042 558 1057 558 q 985 556 1001 556 q 983 543 983 550 q 997 506 983 519 q 1008 497 1001 501 l 1007 499 q 1050 513 1015 500 q 1076 522 1063 517 m 1076 575 l 1078 592 q 1053 593 1065 593 q 1004 582 1022 593 q 992 572 996 578 q 1042 574 1010 572 q 1076 575 1060 574 m 1590 632 q 1586 392 1592 488 q 1578 307 1583 338 q 1572 278 1575 289 q 1560 258 1568 264 l 1560 257 l 1558 257 q 1519 244 1546 250 q 1463 238 1496 240 q 1315 231 1397 231 q 1172 239 1232 232 q 1119 247 1140 242 q 1086 264 1094 253 l 1083 268 l 1083 274 q 1083 300 1083 288 q 915 288 1007 263 l 915 286 l 750 294 q 828 236 781 258 q 984 200 888 207 q 1181 201 1081 193 l 1188 201 l 1192 197 q 1197 186 1196 193 q 1199 178 1199 183 q 1199 158 1199 171 q 1197 103 1199 133 q 1190 47 1194 69 q 1185 26 1188 33 q 1172 8 1181 13 l 1169 6 l 1165 6 q 261 157 536 -18 q 46 581 39 300 q 85 769 44 682 q 197 921 126 857 q 369 1032 268 985 q 999 1153 621 1151 q 1061 1153 1026 1153 q 1088 1154 1081 1154 l 1088 1151 q 1094 1151 1090 1151 q 1101 1151 1099 1151 l 1100 1151 q 1253 1124 1172 1151 q 1404 1040 1335 1097 q 1590 632 1581 899 m 846 1115 q 563 1069 693 1103 q 642 1076 594 1072 q 772 1090 692 1082 q 846 1115 808 1104 m 382 1004 q 339 982 361 994 l 576 975 q 725 1069 643 1031 q 643 1061 661 1064 q 485 1046 525 1049 q 382 1004 429 1026 m 313 968 q 236 913 271 942 l 371 915 l 372 915 l 481 872 q 560 960 515 919 l 313 968 m 217 897 q 132 793 165 850 q 178 796 147 794 q 293 799 222 797 q 438 803 364 801 q 472 860 453 832 l 369 899 q 358 899 369 899 q 329 899 346 899 q 293 898 313 899 q 253 897 274 897 q 217 897 232 897 m 122 778 q 88 682 99 732 q 122 683 100 682 q 240 688 172 685 q 394 693 299 689 q 429 788 407 742 q 293 783 360 785 q 179 781 222 782 q 122 778 142 779 m 85 665 q 78 615 79 640 q 104 621 92 618 q 207 635 160 633 q 243 635 225 635 q 381 625 307 635 q 390 678 385 651 q 240 672 306 674 q 122 667 165 669 q 85 665 99 667 m 78 579 q 78 558 76 569 q 117 560 90 558 q 235 564 186 561 q 376 569 286 565 q 378 601 376 588 q 379 607 378 603 q 379 610 379 608 q 208 619 282 622 q 107 606 161 617 q 78 599 94 603 q 78 581 78 589 l 78 579 m 78 542 q 82 483 78 511 q 88 483 86 483 q 147 481 107 483 q 257 471 190 478 q 385 460 317 467 q 376 553 376 507 q 236 547 296 550 q 117 543 185 546 q 78 542 89 543 m 85 468 q 103 396 92 431 q 138 397 124 397 q 172 399 153 399 q 216 401 190 400 q 256 403 242 401 q 399 407 319 404 q 389 444 393 426 q 256 456 318 450 q 146 465 188 463 q 85 468 104 468 m 169 279 q 208 283 186 281 q 318 296 254 288 q 439 310 375 301 q 403 392 418 349 q 257 386 296 388 q 217 385 242 386 q 172 384 192 385 q 138 382 153 383 q 108 381 126 382 q 169 279 131 325 m 182 265 q 239 213 207 236 l 492 231 q 447 294 467 261 q 319 279 378 286 q 211 268 250 272 q 182 265 193 267 m 347 146 q 353 150 350 147 q 374 165 361 156 l 400 182 l 403 185 l 544 174 q 504 215 522 194 l 258 197 q 279 183 269 190 q 347 146 310 164 m 363 139 q 407 121 383 129 q 614 118 456 119 q 564 156 588 136 l 407 168 q 382 151 397 163 q 363 139 369 143 m 453 104 q 646 60 539 76 q 686 75 664 67 q 639 101 661 88 q 453 104 510 103 m 678 56 q 753 46 715 50 q 707 65 729 56 q 678 56 692 60 m 1167 179 q 1167 178 1167 179 q 1167 179 1167 179 m 726 326 l 840 321 q 781 386 804 347 l 699 386 q 726 326 711 353 m 886 881 q 840 872 858 875 q 824 871 829 871 q 794 842 808 857 q 860 846 821 843 q 1057 853 939 849 q 1321 863 1182 858 q 1292 892 1308 879 q 1200 939 1256 922 l 1200 938 q 1018 904 1110 921 q 886 881 936 889 m 850 890 q 885 896 864 893 q 1015 919 933 904 q 1163 946 1082 932 q 1053 954 1114 956 q 850 890 935 949 m 861 829 q 794 826 817 828 q 779 826 785 826 q 764 806 771 815 q 749 783 757 796 q 761 786 754 785 q 826 794 785 790 q 888 800 846 796 q 922 803 917 801 l 922 800 q 943 804 933 803 q 1081 803 1008 814 q 1128 792 1107 797 q 1140 788 1133 789 l 1156 807 q 1174 819 1160 815 q 1196 824 1182 822 q 1254 825 1219 826 q 1313 821 1288 824 q 1333 817 1325 818 q 1342 814 1339 815 q 1351 806 1349 811 q 1356 796 1354 803 q 1356 788 1356 793 q 1358 761 1357 778 l 1369 758 q 1332 847 1358 810 q 1057 838 1194 843 q 861 829 940 833 m 1379 658 l 1379 658 q 1379 665 1379 661 q 1379 668 1379 668 q 1360 661 1369 665 q 1361 596 1361 628 q 1382 597 1369 597 q 1379 658 1382 628 m 1361 540 l 1382 542 q 1382 582 1382 561 q 1361 581 1369 581 q 1361 540 1361 557 m 1381 525 l 1361 525 q 1361 465 1361 494 l 1375 465 q 1381 525 1379 492 m 1360 678 q 1379 685 1369 682 q 1372 743 1378 715 l 1358 744 q 1360 678 1360 718 m 1329 785 m 1324 790 l 1324 792 q 1324 790 1324 790 m 767 754 q 731 744 738 750 l 729 749 q 710 707 718 728 q 747 711 721 707 q 782 714 764 713 q 804 742 792 729 q 832 764 817 753 q 830 763 831 763 q 829 763 829 763 q 767 754 790 758 m 711 690 q 703 690 707 690 q 675 576 683 636 q 676 577 675 576 q 678 578 678 578 q 707 585 689 581 q 739 592 722 588 q 771 697 744 653 q 750 694 763 696 q 711 690 729 693 m 682 563 q 674 560 676 561 q 671 540 672 550 q 678 478 674 507 q 722 475 685 478 q 746 474 742 474 q 738 565 736 517 q 738 575 738 568 q 711 569 724 572 q 682 563 693 565 m 722 460 q 681 463 694 461 q 694 401 686 429 l 771 401 q 749 458 757 428 q 722 460 735 458 m 1556 393 q 1558 631 1560 488 q 1385 1017 1549 883 q 1244 1094 1321 1069 q 1100 1121 1167 1119 q 1061 1121 1086 1121 q 835 1080 939 1113 q 656 997 731 1047 q 528 882 582 947 q 444 746 474 817 q 410 599 415 675 q 465 325 397 456 q 672 117 533 194 l 675 117 l 675 115 q 931 35 786 54 q 1156 36 1036 32 q 1158 53 1157 43 q 1165 106 1163 74 q 1168 158 1168 135 q 1168 169 1168 163 q 975 169 1072 163 q 814 207 878 176 q 640 540 656 283 l 640 542 q 739 825 654 708 q 1051 985 850 976 l 1053 985 q 1313 917 1224 989 q 1411 660 1410 836 q 1404 446 1418 532 l 1401 432 l 1329 436 l 1329 451 q 1329 676 1331 571 q 1326 760 1328 729 q 1325 785 1326 776 q 1325 786 1325 786 q 1308 789 1318 788 q 1254 794 1285 793 q 1200 793 1221 794 q 1183 790 1189 792 l 1181 789 l 1146 742 l 1135 756 l 1133 756 q 1132 757 1133 757 q 1119 761 1126 758 q 1075 771 1100 767 q 949 774 1008 782 q 826 718 871 763 q 768 564 771 665 q 893 328 764 383 q 1000 311 947 307 q 1085 338 1053 315 q 1103 339 1093 344 q 1110 331 1107 336 q 1113 321 1111 328 q 1114 301 1114 314 q 1114 282 1114 293 q 1128 278 1121 279 q 1175 269 1146 272 q 1315 263 1232 263 q 1460 268 1396 263 q 1514 275 1493 271 q 1540 282 1531 278 q 1543 288 1542 285 q 1547 311 1544 296 q 1556 393 1553 342 z "},"A":{"ha":1063,"x_min":15,"x_max":1029,"o":"m 350 910 m 1026 17 l 1029 0 l 1013 0 q 886 -3 949 -1 q 799 -3 829 -3 q 768 0 779 -1 q 758 1 761 0 q 753 3 754 3 q 746 8 749 6 l 624 25 l 622 18 l 325 6 l 308 4 l 308 7 q 182 28 242 17 q 79 56 118 42 q 42 75 56 65 q 21 103 24 88 q 22 171 15 124 q 44 275 29 213 q 126 547 74 389 q 222 811 175 693 q 260 904 244 868 q 288 954 278 943 q 317 967 294 963 q 357 971 332 969 q 408 972 379 972 q 422 972 418 972 q 467 972 440 972 l 618 967 l 618 965 q 679 971 638 971 q 778 964 724 971 q 869 949 832 958 q 903 939 890 943 q 925 921 919 932 q 928 913 926 918 q 929 903 928 910 q 935 871 932 890 q 947 765 940 832 q 982 457 961 651 l 1026 17 m 310 932 q 303 919 307 928 q 315 917 314 917 q 338 913 329 914 q 344 911 343 911 q 350 910 349 910 l 350 910 l 350 910 q 351 910 351 910 q 360 908 354 908 q 385 904 369 907 q 461 894 418 900 q 561 882 517 888 q 574 911 568 900 q 586 936 581 928 q 465 940 519 940 q 422 942 443 942 q 358 940 385 942 q 322 936 335 939 q 316 935 319 936 q 311 933 313 933 q 310 932 310 932 m 289 892 q 268 844 279 872 q 272 844 269 844 q 274 844 274 844 q 293 840 286 842 q 300 840 297 840 q 304 838 303 839 q 307 838 306 838 q 315 836 308 838 q 343 833 325 835 q 426 825 381 829 q 535 813 475 819 q 554 867 546 843 q 460 879 526 871 q 383 889 407 886 q 357 893 367 892 q 349 894 350 894 q 347 894 347 894 q 343 896 344 894 l 344 896 l 342 896 q 335 897 339 897 q 313 901 328 899 q 294 904 311 901 q 289 892 292 899 m 250 800 q 224 729 238 767 q 274 717 246 724 q 319 704 299 710 q 335 700 331 701 q 340 699 338 699 q 342 699 342 699 l 342 699 l 342 699 l 342 697 q 343 697 342 697 q 349 697 344 697 q 368 697 356 697 q 426 697 392 697 q 496 699 453 699 q 529 797 514 754 q 425 808 458 806 q 340 818 368 815 q 313 821 322 819 q 304 822 307 822 q 301 822 303 822 q 300 824 301 822 q 299 824 300 824 l 297 824 q 290 825 294 825 q 271 829 283 826 q 267 829 269 829 q 263 829 264 829 q 250 800 257 817 m 218 714 q 186 625 201 671 q 196 622 192 624 q 214 617 207 619 q 221 615 218 615 q 225 614 225 614 q 226 613 225 614 q 235 611 229 613 q 264 607 247 610 q 350 594 300 601 q 458 579 399 588 q 490 683 475 635 q 426 682 457 682 q 368 682 390 682 q 347 682 353 682 q 342 682 343 682 q 341 682 342 682 q 339 682 340 682 q 336 683 338 683 l 335 683 q 331 685 333 685 q 315 689 326 686 q 269 701 294 694 q 218 714 238 710 m 157 538 q 149 515 151 524 q 192 506 169 511 q 232 494 217 499 q 247 490 242 492 q 251 490 250 490 q 253 489 253 489 l 254 489 q 256 488 254 488 q 254 489 254 489 l 256 489 q 261 488 257 488 q 283 485 268 486 q 347 479 310 482 q 426 472 393 475 q 436 506 432 494 q 454 564 444 533 q 347 579 410 569 q 261 592 288 588 q 233 596 243 594 q 224 597 226 597 q 221 599 224 597 l 221 599 q 218 599 219 599 l 217 600 q 210 603 211 601 q 192 608 201 604 q 188 608 190 608 q 181 611 183 610 q 157 538 168 572 m 144 501 q 114 403 128 450 q 154 400 139 401 q 194 396 178 397 q 208 394 203 394 q 213 393 213 393 q 215 393 214 393 q 217 392 217 393 q 218 392 218 392 q 225 390 221 392 q 247 386 232 389 q 311 374 274 381 q 393 358 350 367 q 421 457 407 408 q 346 463 379 460 q 282 469 306 467 q 260 472 269 471 q 253 472 254 472 q 250 474 251 474 q 246 475 247 474 q 243 476 244 475 q 229 479 239 476 q 188 490 215 483 q 144 501 169 494 m 108 388 q 82 292 93 335 q 98 285 85 290 q 119 278 111 281 q 156 264 147 267 q 168 258 165 260 q 172 257 171 258 q 174 257 174 257 l 174 256 l 174 256 q 175 256 175 256 q 175 256 175 256 q 182 256 178 256 q 206 253 190 254 q 275 249 232 251 q 361 244 304 247 q 389 343 374 290 q 308 358 346 351 q 243 371 264 367 q 222 375 232 372 q 215 376 218 376 q 213 378 214 376 q 211 378 211 378 q 207 379 210 378 q 193 381 203 379 q 153 385 178 382 q 108 388 133 386 m 319 82 q 328 117 324 96 q 310 122 324 118 q 286 126 296 125 q 247 136 260 133 q 238 138 243 138 q 229 140 232 139 q 226 140 226 140 l 225 140 l 225 142 q 224 142 225 142 q 218 143 224 142 q 196 146 208 144 q 131 156 171 150 q 53 165 92 161 q 51 110 47 125 l 51 108 q 60 100 51 106 q 90 85 71 93 q 189 58 126 71 q 311 39 244 47 q 319 82 313 51 m 290 142 q 332 132 311 136 q 347 194 339 158 q 357 229 353 213 q 275 233 311 232 q 204 238 229 236 q 181 240 189 239 q 174 240 176 240 q 171 240 172 240 q 167 242 168 242 l 167 243 q 163 244 164 243 q 150 249 160 246 q 114 263 133 256 q 78 276 103 267 q 76 272 76 275 q 75 268 75 268 q 56 182 63 217 q 132 171 131 171 q 199 161 175 165 q 221 158 211 160 q 226 157 225 157 q 229 156 228 157 q 231 156 231 156 q 251 151 235 156 q 290 142 269 147 m 628 56 l 739 40 q 739 46 739 42 q 738 51 739 50 q 732 101 738 60 l 633 96 q 628 56 632 83 m 726 157 l 643 160 q 636 119 640 140 q 635 111 636 113 l 731 117 q 731 119 731 119 q 728 140 729 128 q 726 157 726 151 m 646 175 l 725 172 q 722 191 724 181 q 721 204 721 201 q 688 210 703 208 q 661 213 672 213 q 658 213 660 213 q 653 213 656 213 q 651 207 651 208 q 647 183 650 197 q 646 175 647 183 m 800 29 q 885 28 831 28 q 994 31 940 29 q 950 454 972 246 q 917 761 929 651 q 903 867 908 832 q 899 897 901 886 q 897 906 897 903 q 890 910 893 908 q 863 918 881 914 q 774 933 826 926 q 679 939 721 939 q 622 935 639 940 q 621 933 622 933 q 615 926 618 929 q 601 899 610 917 q 563 799 585 863 q 465 496 521 681 q 378 186 415 329 q 350 75 360 118 q 343 38 346 56 l 594 49 q 606 125 600 83 q 617 189 611 164 q 621 213 618 204 q 625 229 624 225 q 642 242 631 238 q 657 243 649 243 q 693 240 671 244 l 739 232 l 750 229 l 750 219 q 761 124 756 172 q 769 56 767 79 q 772 32 771 42 q 772 31 772 31 q 800 29 782 29 m 740 614 l 746 610 l 765 374 l 749 374 q 697 376 740 374 q 650 375 654 379 l 625 368 l 683 621 l 690 624 q 706 628 697 628 q 707 628 707 628 q 721 626 714 628 q 740 614 728 624 m 710 596 l 696 535 l 721 519 l 715 593 q 710 596 713 596 m 692 519 l 676 450 l 726 457 l 724 501 l 692 519 m 667 408 q 731 406 682 410 l 728 442 l 672 433 l 667 408 z "},"B":{"ha":1076,"x_min":49,"x_max":1057,"o":"m 938 547 q 1043 308 1056 472 q 953 119 1039 193 q 761 31 882 60 q 558 6 668 7 q 436 11 482 4 q 294 0 367 1 q 182 8 228 -1 q 97 50 121 21 q 69 111 79 68 q 56 208 60 149 q 57 468 49 313 q 78 724 64 601 q 92 815 85 778 q 104 868 99 856 q 171 914 117 894 q 275 938 211 926 q 406 951 336 947 l 410 953 q 611 981 504 981 q 618 981 615 981 q 779 960 706 981 q 928 883 874 935 q 993 743 990 826 q 908 596 997 653 q 874 578 893 586 q 938 547 908 567 m 132 856 q 131 849 132 853 q 143 847 132 849 q 165 844 157 846 q 176 843 175 843 l 178 843 l 176 843 l 178 843 l 178 843 l 179 843 q 188 843 182 843 q 214 844 199 843 q 293 846 246 844 q 393 850 339 847 q 397 919 394 883 q 279 906 335 915 q 181 883 219 897 q 132 856 139 869 m 122 810 q 113 751 118 785 q 144 743 140 744 q 175 736 153 742 q 190 733 188 733 q 193 733 192 733 q 200 733 193 733 q 224 735 208 733 q 294 739 236 735 q 386 746 344 743 q 392 833 389 794 q 293 831 336 832 q 214 828 246 829 q 188 828 199 828 q 179 828 182 828 q 176 828 179 828 q 175 828 175 828 q 174 828 175 828 q 169 828 172 828 q 164 829 165 829 q 142 832 143 832 q 135 833 140 832 q 126 833 129 833 q 122 810 124 822 m 110 719 q 100 633 104 679 q 156 636 118 633 q 206 638 186 638 q 222 638 218 638 q 228 639 226 639 q 229 639 228 639 q 232 638 231 639 l 233 638 q 235 638 233 638 q 239 638 238 638 q 258 638 254 638 q 315 635 271 636 q 353 634 331 635 q 382 633 375 633 q 386 731 383 679 q 296 724 342 728 q 225 719 250 721 q 200 718 206 718 q 194 717 196 717 q 190 717 192 717 q 189 717 189 717 q 172 721 186 718 q 156 725 167 722 q 140 728 144 728 q 111 735 128 731 q 110 719 110 729 m 99 617 q 92 529 94 575 q 100 528 94 529 q 110 526 106 528 q 132 525 128 525 q 143 524 142 524 q 144 524 144 524 q 143 524 143 524 q 146 524 144 524 q 154 524 147 524 q 183 525 161 524 q 269 531 218 528 q 378 538 317 533 q 381 618 379 581 q 315 619 343 619 q 258 621 269 621 q 239 622 254 621 q 232 622 233 622 q 229 622 229 622 l 228 622 q 224 622 225 622 q 206 622 218 622 q 156 619 186 621 q 99 617 143 619 m 88 467 q 86 417 88 443 q 136 415 117 417 q 183 414 168 414 q 200 413 196 414 q 204 413 204 413 q 208 413 207 413 l 208 413 l 208 413 q 210 413 210 413 q 217 411 214 411 q 238 410 221 411 q 300 407 263 408 q 375 404 347 406 q 376 489 375 443 q 378 522 376 504 q 271 515 333 519 q 185 510 218 511 q 156 508 167 508 q 146 508 150 508 q 144 508 144 508 q 142 508 142 508 q 140 508 142 508 q 135 508 139 508 q 129 510 132 508 q 108 511 125 510 q 90 514 99 513 q 88 467 89 489 m 85 401 q 85 304 83 351 q 136 301 117 303 q 182 299 164 300 q 197 297 192 299 q 203 297 201 297 q 206 297 204 297 q 207 297 206 297 q 213 297 208 297 q 232 297 222 297 q 290 301 253 299 l 375 306 q 375 389 374 344 q 300 392 324 390 q 236 394 260 393 q 215 396 226 396 q 208 396 210 396 q 207 397 208 396 q 204 397 206 397 l 203 397 q 199 397 201 397 q 183 399 194 397 q 136 400 168 399 q 85 401 111 401 m 88 211 q 89 186 89 197 q 118 192 107 190 q 151 199 139 196 q 164 200 160 199 q 168 200 164 200 q 169 200 168 200 q 172 200 169 200 l 171 200 l 172 200 q 174 200 172 200 q 181 199 179 199 q 207 196 190 199 q 282 190 240 193 q 379 182 321 186 q 375 290 375 229 q 370 290 375 290 q 357 290 365 290 q 339 288 349 289 q 316 287 329 288 q 292 285 303 286 q 233 282 254 283 q 213 281 222 282 q 207 281 208 281 q 204 281 206 281 q 201 282 203 281 l 203 282 l 201 282 q 196 282 199 282 q 181 283 190 282 q 135 286 165 285 q 85 289 108 288 q 88 211 85 246 m 100 118 q 113 83 104 97 q 122 83 115 83 q 137 81 129 82 q 151 81 144 81 q 188 78 176 78 q 200 76 197 76 q 204 75 201 76 q 206 75 204 75 q 208 75 207 75 q 215 76 208 75 q 240 76 235 76 q 310 79 275 78 q 389 82 364 82 q 379 167 383 115 q 281 175 319 171 q 206 181 222 179 q 179 183 185 183 q 172 185 174 183 q 169 185 169 185 l 168 185 l 168 185 q 165 185 167 185 q 154 182 161 183 q 121 176 142 181 q 90 171 110 175 q 100 118 94 140 m 293 31 q 401 39 346 32 q 393 67 397 50 q 358 65 386 67 q 310 64 331 64 q 240 61 267 63 q 217 60 224 61 q 210 60 213 60 q 207 60 207 60 l 204 60 l 203 60 q 199 60 201 60 q 186 61 196 61 q 150 65 178 63 q 125 67 126 67 q 188 39 143 49 q 293 31 231 31 m 1011 310 q 921 521 1024 456 q 872 545 899 536 q 831 557 846 554 l 817 558 l 814 589 q 892 622 853 599 q 963 742 965 669 q 907 861 960 811 q 772 929 857 907 q 618 949 701 949 q 611 949 615 949 q 429 925 515 949 q 408 489 413 704 q 410 178 403 292 q 422 75 414 111 q 432 49 428 57 q 436 43 433 44 q 558 36 478 35 q 753 60 664 39 q 932 143 867 88 q 1011 310 1008 208 m 786 364 q 815 319 814 347 q 793 265 818 289 q 743 239 775 250 q 722 233 733 236 q 703 228 711 231 q 688 226 694 226 q 676 225 681 225 l 672 224 l 656 224 l 658 368 l 660 382 l 674 383 l 689 383 q 693 383 692 383 q 739 379 718 383 q 786 364 768 375 m 690 353 l 689 329 q 697 331 694 331 q 739 336 714 332 q 764 340 744 338 q 733 349 751 346 q 693 353 715 351 l 692 353 q 690 353 692 353 m 772 289 q 775 292 774 290 q 742 289 774 292 q 689 285 708 286 l 688 258 q 733 268 713 261 q 772 289 758 278 m 783 308 q 783 317 785 313 l 783 318 q 781 326 783 324 q 740 321 756 322 q 699 315 715 317 q 689 314 692 314 l 689 300 q 740 304 697 301 q 783 308 771 307 m 725 654 q 699 651 713 651 q 679 650 686 650 l 672 650 l 657 650 l 661 772 l 661 788 l 676 788 q 732 779 704 786 q 774 760 758 772 q 793 715 796 742 l 793 714 q 767 672 789 688 q 725 654 750 660 m 692 754 l 690 739 l 744 742 q 724 749 735 746 q 692 754 710 753 m 690 722 l 690 715 l 749 697 q 763 718 760 706 q 761 726 763 722 l 690 722 m 689 699 l 689 681 q 718 685 706 682 q 726 688 722 686 l 689 699 z "},"C":{"ha":1082,"x_min":26,"x_max":1047,"o":"m 1046 265 q 1044 224 1047 242 q 1033 193 1042 203 q 1015 171 1028 183 q 957 126 993 147 q 875 69 928 96 q 582 1 757 10 q 468 -1 524 0 q 349 11 413 -1 q 235 50 285 24 q 29 443 44 147 q 36 542 28 494 q 63 628 44 589 q 104 703 81 668 q 159 767 128 738 q 222 819 190 796 q 289 863 253 842 q 557 963 417 935 q 701 985 624 985 q 708 985 703 985 q 785 976 747 983 q 884 940 839 965 q 969 867 929 915 q 1026 750 1008 818 l 1026 749 q 1024 733 1028 740 q 1015 724 1021 728 q 993 710 1007 717 q 928 683 967 696 q 861 665 890 669 q 835 663 846 663 q 824 665 828 664 q 811 676 814 669 q 779 715 799 699 q 743 733 761 731 q 699 725 721 738 l 697 724 q 668 689 679 717 q 654 622 656 660 q 665 558 654 589 l 943 528 l 943 524 q 975 507 960 522 q 999 471 988 493 q 1032 371 1018 432 q 1046 265 1044 314 m 889 503 l 679 525 q 688 513 683 518 q 714 511 696 511 q 790 506 739 510 q 885 501 819 504 q 889 503 885 501 m 846 488 q 819 489 838 488 q 789 490 800 490 q 713 494 746 493 q 701 496 707 496 q 715 483 708 489 l 800 475 q 843 486 819 479 q 844 487 843 486 q 846 488 846 488 m 454 901 q 313 839 378 875 l 318 839 l 403 831 q 454 901 425 872 m 288 825 q 210 769 244 799 q 222 772 214 771 q 235 772 231 772 q 282 776 264 775 q 299 778 293 778 q 303 778 303 778 q 306 778 304 778 q 308 778 307 778 q 307 778 308 778 l 308 778 q 311 778 310 778 q 321 776 319 776 q 350 775 335 775 q 375 772 375 772 q 394 817 385 796 l 318 824 l 288 825 m 190 753 q 132 688 157 722 l 149 686 l 354 704 q 369 757 361 732 q 350 758 361 758 q 319 761 335 760 q 310 763 313 761 q 306 763 308 763 q 304 763 304 763 q 300 763 301 763 q 283 761 294 763 q 236 757 274 760 q 213 755 229 757 q 190 753 197 753 m 121 672 q 94 624 106 649 q 143 626 115 625 q 194 629 167 628 q 211 629 207 629 q 217 629 215 629 q 218 629 217 629 q 221 629 219 629 l 222 629 q 226 629 224 629 q 243 628 229 628 q 289 625 268 626 q 338 624 321 624 q 350 689 342 657 l 149 671 l 121 672 m 88 608 q 67 539 74 575 q 163 538 115 538 q 240 536 201 538 q 267 536 250 536 q 275 536 272 536 q 278 536 276 536 q 279 536 279 536 q 293 532 282 536 q 315 526 303 531 q 329 522 325 524 q 335 607 331 565 q 288 610 321 608 q 242 613 264 611 q 226 613 233 613 q 221 614 222 613 q 218 614 218 614 l 217 614 q 215 614 217 614 q 211 614 213 614 q 194 613 208 614 q 143 611 179 613 q 88 608 106 608 m 61 446 q 63 417 61 431 q 86 419 67 417 q 115 424 103 422 q 125 425 121 425 q 128 425 128 425 q 129 425 129 425 q 132 425 131 425 q 133 425 132 425 q 135 425 133 425 q 142 424 138 425 q 167 422 153 424 q 242 418 213 419 q 333 413 260 417 q 329 464 331 438 q 329 507 328 486 q 311 511 325 508 q 289 518 294 517 q 283 519 286 518 q 279 520 281 519 q 276 521 278 521 q 275 521 275 521 q 267 521 271 521 q 240 521 263 521 q 161 522 215 521 q 104 522 138 522 q 64 522 71 522 q 61 446 58 485 m 64 401 q 75 328 68 363 q 174 325 115 326 q 253 324 221 324 q 281 322 264 322 q 288 322 286 322 q 290 322 290 322 q 292 322 290 322 q 293 322 293 322 q 301 324 297 322 q 324 329 308 326 q 344 336 332 332 q 335 397 339 365 q 295 399 328 397 q 240 403 263 401 q 165 407 186 406 q 140 408 147 408 q 133 410 138 408 q 131 410 132 410 q 129 410 129 410 q 126 410 128 410 q 117 408 124 408 q 89 404 107 407 q 76 403 83 404 q 64 401 68 401 m 79 313 q 108 228 90 265 l 169 218 l 369 253 q 349 321 357 285 q 328 315 339 318 q 306 308 314 311 q 297 307 300 307 q 293 306 294 307 q 290 306 292 306 l 289 306 q 288 307 289 306 q 279 307 285 307 q 253 307 264 307 q 174 310 221 308 q 119 310 151 310 q 79 313 88 311 m 117 210 q 169 136 139 168 l 194 150 l 426 149 q 403 182 414 164 q 375 238 388 208 l 169 201 l 117 210 m 249 78 q 276 65 263 71 q 400 67 363 61 l 401 67 q 403 67 401 67 q 410 67 408 67 q 429 68 415 67 q 486 72 451 69 q 517 75 506 75 q 440 132 474 96 l 199 135 l 181 125 q 249 78 211 97 m 581 32 q 793 69 700 39 q 614 54 713 54 q 551 63 582 54 q 488 57 522 60 q 431 53 451 54 q 410 51 414 51 q 404 51 406 51 q 402 51 403 51 q 401 51 401 51 q 329 47 375 47 q 581 32 421 24 m 1014 228 q 1015 265 1015 243 q 1001 364 1013 310 q 971 457 989 421 q 953 485 961 475 q 943 492 947 490 q 851 457 899 471 q 771 440 806 442 q 699 457 724 438 q 624 622 624 515 q 639 701 624 667 q 683 753 656 740 q 749 764 717 771 q 799 740 775 760 q 836 694 821 721 l 838 694 q 857 696 844 694 q 919 713 883 700 q 978 738 956 725 q 994 747 989 743 q 778 946 947 913 q 707 953 744 953 q 700 953 706 953 q 536 921 603 953 l 535 921 q 401 751 450 886 q 361 465 354 622 q 431 199 368 301 q 614 86 499 85 q 936 150 821 86 q 993 193 971 169 l 1007 210 l 1008 211 l 1008 213 q 1014 228 1011 215 z "},"D":{"ha":1101,"x_min":49,"x_max":1075,"o":"m 1075 435 l 1075 435 q 1029 266 1072 346 q 909 124 986 186 q 712 25 832 61 q 447 -7 592 -11 l 446 -7 q 300 -15 375 -17 q 183 -4 231 -15 q 97 39 121 8 q 69 100 79 56 q 56 197 60 138 q 57 456 49 301 q 78 711 64 589 q 92 804 85 767 q 104 856 99 843 q 133 885 111 871 q 179 906 151 894 q 301 936 226 921 q 464 963 379 951 q 469 964 467 963 l 471 964 q 531 965 501 965 q 939 807 794 967 q 1075 435 1068 664 m 132 843 q 131 836 132 842 q 143 835 138 836 q 155 834 147 835 q 165 833 163 833 q 178 832 176 832 l 178 832 l 179 832 q 188 832 182 832 q 214 832 193 832 q 293 835 243 833 q 394 838 365 838 q 417 908 404 881 q 425 925 421 918 q 307 906 361 917 q 190 875 235 892 q 149 858 164 867 q 132 843 135 850 m 122 799 q 114 744 118 776 q 118 746 115 746 q 122 746 121 746 q 142 749 133 747 q 150 750 146 750 q 151 750 150 750 q 156 750 154 750 q 157 750 156 750 q 161 749 158 750 q 165 749 164 749 q 193 749 176 749 q 275 746 214 747 q 378 743 344 744 q 386 799 381 772 q 390 822 389 810 q 355 821 390 822 q 293 819 319 819 q 214 817 243 817 q 188 815 199 817 q 179 815 182 815 l 176 815 q 175 817 175 815 q 174 817 175 817 q 169 817 172 817 q 164 818 165 817 q 142 819 149 819 q 126 821 132 821 q 122 799 124 811 m 110 708 q 100 621 104 668 q 156 624 122 622 q 206 626 186 625 q 222 626 218 626 q 228 626 226 626 q 229 626 228 626 q 232 626 231 626 l 233 626 q 239 626 238 626 q 256 625 247 625 q 307 624 282 624 q 365 621 328 622 q 375 728 369 678 q 275 731 329 729 q 193 732 214 732 q 165 733 176 733 q 157 733 160 733 q 154 735 157 733 q 153 735 153 735 l 150 735 q 144 733 147 733 q 125 731 135 732 q 111 729 115 729 q 110 708 111 724 m 99 606 q 92 517 94 561 q 99 516 93 517 q 110 515 106 515 q 132 513 126 514 q 144 511 142 511 q 146 511 144 511 q 149 511 147 511 q 154 511 151 511 q 181 513 165 513 q 260 515 203 513 q 360 518 310 517 q 364 606 361 563 q 307 607 332 607 q 256 610 282 608 q 249 610 253 610 q 242 610 244 610 q 238 610 240 610 q 232 611 235 610 q 229 611 229 611 l 229 611 l 228 611 q 224 611 228 611 q 206 610 215 611 q 156 608 186 610 q 122 606 142 607 q 99 606 103 606 m 88 454 q 86 406 88 432 q 136 404 114 404 q 183 401 167 403 q 200 401 196 401 q 204 401 200 401 q 207 400 207 400 l 208 400 q 208 400 208 400 q 208 400 208 400 q 210 400 208 400 q 215 400 210 400 q 235 401 224 400 q 292 403 260 401 q 358 407 321 404 q 358 476 357 440 q 358 503 358 489 q 260 499 318 501 q 181 497 203 497 q 154 496 164 496 q 146 496 149 496 l 143 496 q 142 496 142 496 q 140 496 142 496 q 135 497 139 496 q 129 497 132 497 q 108 500 125 497 q 90 501 96 501 q 88 454 89 475 m 85 390 q 85 294 83 339 q 132 296 108 296 q 176 297 165 297 q 192 299 188 299 q 197 297 194 299 q 198 298 197 297 q 199 299 199 299 q 200 297 199 299 q 202 297 201 297 q 208 297 203 297 q 229 297 214 297 q 289 296 244 296 q 361 294 331 294 q 358 390 358 342 q 293 388 314 389 q 235 385 261 386 q 215 385 224 385 q 208 385 210 385 q 207 385 207 385 q 204 385 206 385 l 203 385 q 199 386 201 385 q 182 386 190 386 q 136 388 169 388 q 85 390 96 389 m 88 199 q 90 169 89 185 q 135 164 119 165 q 178 158 169 160 q 193 156 189 157 q 197 156 194 156 q 199 156 197 156 l 199 156 l 200 156 q 200 154 200 154 q 200 156 200 154 q 207 156 203 156 q 229 157 217 156 q 294 161 249 158 q 372 168 313 163 q 363 279 365 218 q 289 279 311 279 q 228 281 244 281 q 207 282 214 282 q 203 282 206 282 q 201 282 201 282 q 199 282 199 282 q 197 282 197 282 l 196 282 q 192 282 194 282 q 176 282 188 282 q 133 281 165 282 q 85 279 108 279 q 88 199 85 233 m 100 107 q 111 72 104 86 q 189 75 136 74 q 251 75 231 75 q 272 75 263 75 q 279 75 278 75 q 281 75 281 75 l 282 75 q 289 75 283 75 q 304 75 299 75 q 349 74 321 75 q 390 72 354 74 q 375 153 381 106 q 296 146 325 149 q 231 142 253 143 q 208 139 215 140 q 203 139 206 139 l 201 139 l 199 139 q 196 140 197 139 l 194 140 q 192 140 194 140 q 190 140 190 140 q 175 143 185 142 q 133 149 158 144 q 92 153 119 150 q 100 107 94 126 m 300 15 q 411 21 351 15 q 399 46 404 31 q 394 56 397 50 q 347 58 375 57 q 304 60 319 58 q 289 60 297 60 q 283 60 286 60 l 282 60 l 281 60 q 279 60 279 60 q 272 60 275 60 q 251 60 268 60 q 189 58 225 60 q 122 57 178 58 q 189 26 140 36 q 300 15 233 17 m 449 24 q 703 55 589 21 q 890 147 818 89 q 1002 280 963 206 q 1043 435 1042 354 q 915 786 1038 651 q 531 935 781 935 q 474 932 503 935 q 472 932 474 932 l 471 932 q 446 896 458 925 q 417 792 429 860 q 389 476 393 664 q 404 161 386 292 q 428 57 414 94 q 442 31 435 39 q 449 24 446 25 m 742 646 q 810 532 807 606 q 747 433 811 472 q 672 406 708 411 q 658 408 665 404 q 653 415 656 411 q 650 426 651 419 q 649 454 649 436 q 649 535 647 485 l 656 653 l 656 658 l 660 663 q 671 668 664 667 q 675 668 674 668 q 679 668 676 668 q 696 665 686 668 q 742 646 719 658 m 685 635 q 683 604 685 619 l 733 614 q 725 619 729 617 q 689 635 707 631 q 687 635 688 635 q 685 635 686 635 m 681 439 q 728 458 707 447 l 679 464 q 679 460 679 463 q 679 456 679 457 q 681 439 679 447 m 778 531 q 778 540 778 536 l 681 533 q 679 479 679 503 l 747 472 q 778 531 779 497 m 681 549 l 774 557 q 749 600 768 582 l 682 589 q 681 549 682 568 z "},"E":{"ha":1100,"x_min":56,"x_max":1054,"o":"m 1046 250 q 1053 161 1054 211 q 1014 -6 1051 44 l 1011 -10 l 1004 -11 q 908 -12 981 -17 q 525 0 718 -7 q 257 11 358 6 q 164 17 197 14 q 136 19 147 18 q 126 21 131 21 q 117 25 121 22 l 115 25 l 115 26 q 85 89 96 43 q 68 189 74 128 q 57 456 56 296 q 67 719 58 596 q 76 815 71 778 q 88 869 82 856 q 119 897 94 885 q 171 918 139 908 q 307 949 222 933 q 347 955 326 951 q 385 961 368 958 q 420 966 403 964 q 450 969 438 968 q 473 972 463 971 q 489 974 483 974 l 493 975 l 494 972 q 704 989 568 989 q 714 989 708 989 q 786 988 750 989 q 928 981 865 986 q 976 975 957 978 q 1006 967 997 971 q 1040 908 1029 951 q 1047 831 1049 875 q 1036 756 1046 789 q 1007 708 1025 717 l 1003 706 l 999 707 q 942 709 989 707 q 868 713 896 711 q 790 714 819 714 q 751 713 767 714 q 733 647 739 668 q 761 649 743 649 q 837 653 794 651 q 910 654 879 654 q 938 654 926 654 q 956 651 950 653 l 961 650 l 964 647 q 989 588 981 629 q 996 513 994 556 q 990 446 996 475 q 985 422 989 431 q 981 413 983 417 q 967 404 975 404 l 965 403 l 964 404 q 821 403 936 406 q 731 400 767 403 q 699 399 711 400 q 693 399 696 399 q 689 365 690 381 q 690 332 688 349 q 769 327 708 331 q 858 322 831 324 q 957 317 915 318 q 1010 314 1001 314 l 1015 314 l 1019 310 q 1046 250 1038 294 m 117 856 q 128 853 119 854 q 144 851 136 853 q 176 847 163 850 q 188 846 183 847 q 190 846 189 846 q 192 846 192 846 q 194 846 193 846 q 193 846 193 846 l 193 846 q 196 846 194 846 q 204 846 199 846 q 233 850 213 847 q 321 858 260 853 q 433 871 394 867 q 443 901 439 888 q 458 939 451 925 q 311 918 379 929 q 179 888 229 904 q 135 869 151 879 q 117 856 119 863 m 107 811 q 101 751 104 786 q 110 749 106 750 q 126 744 121 746 q 133 743 129 743 l 135 742 q 138 742 136 742 q 147 742 143 742 q 181 740 160 742 q 278 738 228 739 q 406 735 358 736 q 415 790 410 765 q 429 856 422 826 q 322 843 363 847 q 235 833 274 838 q 206 831 217 832 q 197 831 200 831 q 194 830 196 831 q 190 831 192 829 q 186 831 190 831 q 175 832 185 831 q 142 836 163 833 q 113 840 126 838 q 107 811 110 826 m 99 718 q 93 628 94 675 q 133 621 107 626 q 174 615 147 619 q 192 613 190 613 l 193 613 q 194 613 194 613 q 201 613 197 613 q 226 613 211 613 q 300 617 260 614 q 390 621 361 619 q 403 719 396 672 q 276 722 360 719 q 179 725 228 724 q 147 726 160 725 q 138 726 139 726 q 135 726 136 726 q 132 726 133 726 q 122 729 131 728 q 106 733 117 731 q 103 735 104 735 q 100 736 101 735 q 99 718 99 725 m 92 613 q 89 518 90 565 q 120 517 94 518 q 167 514 146 515 q 229 511 208 513 q 251 510 238 511 q 258 510 254 510 q 261 510 260 510 l 261 510 l 261 510 q 263 510 261 510 q 267 510 264 510 q 282 511 275 511 q 328 517 300 513 q 381 522 332 517 q 388 606 383 565 q 300 601 322 601 q 228 597 264 599 q 203 597 207 597 q 194 596 197 596 q 193 596 194 596 q 190 597 192 596 q 188 597 190 597 q 181 598 186 597 q 171 600 175 599 q 132 606 149 603 q 92 613 117 608 m 89 456 q 89 417 88 436 q 146 416 111 417 q 197 415 181 415 q 215 415 210 415 q 218 415 217 415 l 221 415 q 222 415 222 415 q 223 415 222 415 q 224 414 224 414 l 224 414 q 225 414 224 414 q 231 414 228 414 q 250 415 239 414 q 306 417 269 415 q 372 419 349 418 q 378 493 375 458 q 379 507 378 499 q 329 501 340 501 q 283 496 301 497 q 268 494 274 494 q 263 494 265 494 q 261 494 263 494 q 258 494 260 494 l 257 494 q 250 494 254 494 q 229 496 246 494 q 165 499 204 497 q 89 501 113 501 q 89 456 89 479 m 89 401 q 90 308 89 353 q 97 308 93 308 q 106 307 101 307 q 115 307 111 307 q 142 304 132 306 q 151 303 149 304 q 157 303 156 303 l 157 303 q 158 303 158 303 q 158 303 158 303 q 160 303 157 303 l 167 303 q 194 303 178 303 q 275 306 225 304 q 368 307 324 306 q 372 403 369 353 q 306 401 349 403 q 250 399 271 400 q 231 399 242 399 q 225 399 226 399 q 222 399 224 399 q 221 399 221 399 q 219 399 221 399 q 214 400 217 400 q 197 400 207 400 q 146 401 181 400 q 89 401 138 401 m 92 292 q 99 193 94 238 q 121 200 110 197 q 149 208 139 206 q 160 211 156 211 q 164 213 161 213 q 165 213 165 213 q 167 213 167 213 l 168 213 l 168 213 l 168 213 q 169 213 169 213 q 176 211 172 211 q 203 211 183 211 q 276 208 226 210 q 369 207 325 208 q 368 292 368 246 q 275 289 332 290 q 194 288 225 288 q 167 288 178 288 q 160 288 163 288 q 158 288 158 288 q 157 288 157 288 q 154 288 154 288 l 153 288 q 150 288 151 288 q 140 289 147 288 q 114 290 129 290 q 92 292 110 292 m 115 96 q 118 86 115 92 q 199 88 172 88 q 265 89 239 89 q 288 89 283 89 q 294 89 293 89 q 297 89 296 89 q 299 89 297 89 q 304 90 301 89 q 317 90 314 90 q 353 92 325 90 q 382 93 372 92 q 379 107 381 99 q 371 192 374 139 q 276 193 306 193 q 201 196 226 194 q 176 196 183 196 q 169 196 174 196 q 167 196 168 196 q 167 196 167 196 q 165 197 165 197 q 163 196 164 196 q 153 194 160 196 q 126 186 143 190 q 100 178 111 181 q 115 96 106 128 m 258 42 q 507 32 351 38 q 410 51 439 42 l 408 51 q 389 74 396 57 q 388 76 389 75 q 353 76 358 76 q 317 74 326 75 q 304 74 308 74 l 299 74 l 297 74 l 296 74 q 294 74 294 74 q 288 74 293 74 q 265 74 282 74 q 199 72 240 74 q 124 71 157 71 q 133 51 129 57 q 140 50 136 51 q 167 47 150 49 q 258 42 200 44 m 1021 163 q 1015 243 1022 208 q 1001 283 1011 269 q 956 285 989 283 q 857 290 908 288 q 756 297 819 293 q 676 301 692 301 l 668 303 l 664 310 q 658 367 656 326 q 664 417 660 399 l 667 425 l 675 426 q 696 431 681 429 q 729 432 710 431 q 819 435 765 433 q 957 435 918 436 q 960 450 958 442 q 964 513 964 476 q 958 582 964 553 q 944 622 953 608 q 936 622 940 622 q 910 624 926 624 q 838 622 879 624 q 763 618 796 621 q 719 614 728 615 l 699 608 l 700 629 q 724 731 701 653 l 726 739 l 735 742 q 790 746 750 746 q 869 744 821 746 q 942 740 899 743 q 993 738 985 738 q 1007 765 1003 750 q 1017 832 1015 794 q 1010 901 1018 872 q 989 939 1003 931 q 987 940 989 939 q 980 942 985 940 q 971 943 975 943 q 925 949 953 947 q 785 957 864 956 q 725 958 754 958 q 704 958 719 958 q 497 942 567 957 q 472 890 485 926 q 446 785 458 850 q 408 490 421 660 q 401 207 396 326 q 410 113 403 147 q 417 86 414 96 q 421 81 418 83 q 719 35 493 60 q 896 19 821 24 q 993 18 963 15 q 1021 163 1019 65 z "},"F":{"ha":1036,"x_min":53,"x_max":1013,"o":"m 1010 793 q 1007 722 1013 751 q 1000 694 1006 706 q 983 674 993 679 l 979 671 l 975 672 q 829 675 854 674 q 740 674 774 675 q 696 671 715 672 q 689 621 694 661 q 719 621 697 621 q 804 622 756 622 q 886 619 850 621 q 915 618 904 619 q 935 615 929 617 l 939 614 l 942 611 q 965 554 958 593 q 972 483 972 524 q 968 421 972 449 q 963 400 965 408 q 958 390 961 394 q 944 382 953 383 l 946 382 q 889 378 933 379 q 799 375 853 375 q 675 375 722 374 q 674 315 674 353 q 674 263 674 310 q 674 189 674 215 q 671 63 672 108 q 667 18 669 35 q 660 -11 665 -4 l 657 -17 l 651 -18 q 640 -19 647 -19 q 629 -19 636 -19 q 626 -19 629 -19 q 381 -19 499 -21 q 204 -18 271 -19 q 143 -15 165 -17 q 122 -12 129 -14 q 107 -8 111 -11 l 106 -7 l 104 -6 q 75 58 86 11 q 61 165 65 100 q 60 450 53 278 q 79 732 65 599 q 92 833 86 793 q 104 889 99 876 q 135 917 111 906 q 181 933 151 926 q 300 953 226 946 q 458 963 376 961 q 542 968 486 968 q 578 967 557 968 q 746 956 649 964 q 899 938 826 947 q 951 931 931 933 q 967 927 960 929 q 979 924 975 925 l 983 922 l 986 918 q 1001 867 996 904 q 1010 793 1008 832 m 122 829 q 122 828 122 828 q 144 822 136 824 q 169 817 154 819 q 176 815 172 815 q 181 813 179 814 q 183 813 182 813 q 183 813 183 813 q 185 814 183 813 q 193 814 186 814 q 221 818 201 815 q 306 829 254 822 q 410 843 358 836 q 422 894 417 872 q 435 931 429 918 q 303 922 364 928 q 188 903 232 914 q 149 889 163 897 q 133 876 136 882 q 122 829 129 867 m 111 729 q 110 722 110 726 q 110 717 110 717 q 119 711 117 713 q 124 710 124 710 l 125 710 q 128 710 126 710 q 136 710 129 710 q 169 708 149 708 q 267 706 217 707 q 382 703 314 704 q 397 786 390 749 q 406 828 401 808 q 307 814 347 819 q 224 803 253 806 q 194 799 206 800 q 186 797 192 799 q 183 797 185 797 q 181 797 182 797 q 167 801 178 799 q 140 807 147 806 q 121 813 129 810 q 111 729 115 776 m 107 700 q 99 586 103 647 q 103 586 101 586 q 133 582 114 585 q 165 581 147 582 q 176 581 165 581 q 183 579 182 579 l 182 579 q 185 579 183 579 q 192 579 186 579 q 215 581 201 581 q 286 583 238 582 q 365 588 325 586 q 381 686 372 640 q 267 690 303 689 q 169 693 217 692 q 136 693 149 693 q 126 694 129 694 q 125 694 126 694 q 124 694 124 694 q 121 694 122 694 q 113 697 119 694 q 107 700 111 699 m 97 571 q 93 485 94 526 q 158 481 157 481 q 215 476 193 478 q 235 475 228 476 q 242 475 240 475 q 244 475 244 475 q 246 475 244 475 q 250 475 247 475 q 265 476 256 475 q 311 482 283 478 q 353 486 329 483 q 353 488 353 486 q 353 489 353 489 q 364 572 358 529 q 288 568 322 569 q 215 565 243 567 q 192 564 203 564 q 185 564 186 564 q 182 564 183 564 q 179 564 181 564 q 175 564 176 564 q 165 565 174 564 q 133 567 144 567 q 100 571 113 568 q 98 571 99 571 q 97 571 97 571 m 92 449 q 90 401 90 428 q 140 406 115 404 q 188 410 168 408 q 203 410 196 410 q 208 411 207 411 q 211 411 208 411 q 213 410 211 411 l 213 410 q 214 410 213 410 q 213 410 213 410 q 214 410 213 410 q 219 410 215 410 q 238 411 228 411 q 292 415 261 413 q 346 418 315 417 q 351 471 349 444 q 313 467 335 468 q 267 461 285 463 q 251 460 257 460 q 246 460 249 460 q 244 460 244 460 q 242 460 243 460 l 240 460 q 237 460 239 460 q 235 460 235 460 q 214 461 225 461 q 157 465 200 463 q 92 469 128 467 q 92 460 92 468 q 92 449 92 453 m 89 386 q 89 329 89 356 q 171 325 126 328 q 240 322 218 324 q 264 321 253 321 q 271 319 268 319 q 274 319 272 319 q 288 322 279 321 q 318 329 300 325 q 339 335 326 332 q 344 403 342 367 q 292 399 315 400 q 238 396 257 397 q 219 394 225 394 q 214 394 215 394 q 212 394 213 394 q 210 394 211 394 l 208 394 q 204 394 207 394 q 188 393 200 394 q 142 390 174 393 q 89 386 118 388 m 89 314 q 89 276 88 294 q 107 274 99 275 q 132 272 124 272 q 142 271 139 271 q 146 271 146 271 l 147 269 l 147 269 q 149 269 149 269 q 156 269 151 269 q 181 271 165 269 q 256 271 210 271 q 335 274 293 272 q 338 318 336 294 q 321 315 326 315 q 292 307 297 308 q 275 304 276 304 l 272 304 q 269 304 271 304 q 263 304 267 304 q 239 306 256 306 q 171 310 215 307 q 89 314 128 313 m 92 167 q 92 165 92 167 q 93 163 93 164 q 113 169 103 165 q 139 176 129 174 q 149 179 146 178 q 153 179 151 179 q 153 180 153 179 q 154 181 154 181 q 158 179 156 181 l 157 179 l 157 179 q 158 179 157 179 q 165 179 164 179 q 189 178 174 179 q 260 176 213 178 q 333 175 288 176 q 333 199 332 188 q 335 257 333 225 q 256 256 288 257 q 181 254 210 256 q 156 254 165 254 q 149 254 151 254 q 146 254 147 254 q 143 256 144 254 q 140 256 143 256 q 131 257 135 256 q 106 258 122 257 q 89 260 99 260 q 92 167 89 208 m 94 147 q 99 107 96 125 q 181 107 147 107 q 251 108 226 108 q 275 108 264 108 q 282 108 279 108 q 285 108 283 108 q 285 108 285 108 q 300 110 289 108 q 326 111 313 110 l 328 111 l 329 111 l 332 111 l 333 111 l 335 111 l 336 111 q 333 160 333 132 q 258 161 293 160 q 189 163 213 163 q 165 164 174 164 q 158 164 160 164 q 156 164 157 164 q 154 164 154 164 q 153 164 153 164 q 143 161 149 163 q 117 154 133 158 q 94 147 107 151 m 121 24 q 196 38 157 31 q 251 47 231 43 q 271 50 264 49 q 278 50 275 50 q 279 50 278 50 q 281 50 279 50 q 347 58 289 51 q 344 65 346 61 q 338 96 340 78 q 328 96 336 96 q 300 93 306 94 q 286 93 289 93 l 285 92 l 283 93 q 282 93 283 93 q 275 93 279 93 q 251 93 264 93 q 182 92 226 93 q 100 90 150 92 q 106 65 103 76 q 121 24 111 39 m 381 11 q 474 11 424 11 q 418 25 444 18 q 363 43 375 38 q 362 44 363 43 q 361 44 361 44 q 282 35 288 36 l 281 35 l 279 35 q 274 35 276 35 q 254 31 267 33 q 199 21 235 28 q 163 15 182 18 q 206 14 181 14 q 381 11 271 11 m 976 728 q 979 792 981 753 q 971 861 976 829 q 963 896 968 882 l 961 896 q 946 899 957 897 q 894 907 926 903 q 742 924 824 917 q 576 936 646 933 q 542 936 557 936 q 471 933 494 936 q 453 886 463 917 q 428 779 440 846 q 385 485 403 651 q 364 199 365 315 q 368 103 364 138 q 374 76 371 86 q 376 72 375 74 l 376 71 q 426 56 385 67 q 515 33 467 44 q 601 17 565 22 q 628 13 618 14 l 629 13 q 632 13 632 13 q 633 13 632 13 q 635 13 635 13 q 636 21 636 17 q 639 64 638 38 q 642 189 642 108 q 642 263 642 215 q 642 315 642 310 q 644 392 643 379 l 646 407 l 660 406 q 799 406 690 404 q 888 408 851 407 q 933 413 918 410 q 938 426 936 418 q 942 483 942 451 q 935 549 940 519 q 922 586 931 572 q 914 588 917 586 q 885 589 903 588 q 803 590 849 590 q 721 590 754 592 q 675 588 683 589 l 651 582 l 656 606 q 660 640 657 611 q 668 689 664 669 l 671 697 l 679 700 q 739 704 694 703 q 829 706 775 706 q 969 703 878 706 q 971 707 971 704 q 976 728 975 714 z "},"G":{"ha":1067,"x_min":17,"x_max":1018,"o":"m 1011 318 q 1015 131 1017 208 q 1013 64 1015 89 q 1008 40 1011 50 q 999 22 1006 28 l 997 21 l 994 19 q 941 6 972 10 q 876 1 910 1 q 821 4 844 1 q 801 8 810 6 q 797 8 799 8 l 796 8 l 672 25 l 674 26 q 469 7 594 11 q 293 35 376 4 q 150 132 210 67 q 33 528 18 275 q 67 683 39 613 q 140 801 94 753 q 236 881 185 849 q 349 936 288 914 q 688 992 476 982 l 740 997 l 740 994 l 749 994 l 749 993 q 909 928 839 992 q 985 751 979 864 l 985 753 q 981 738 986 746 q 972 729 978 733 q 950 714 965 722 q 885 688 924 701 q 818 671 847 675 q 792 668 801 668 q 779 671 785 668 q 775 674 778 672 l 657 676 l 657 675 q 653 663 654 669 l 967 604 l 965 603 q 968 601 967 601 q 978 593 974 599 q 981 585 979 590 q 986 565 983 578 q 996 503 992 543 q 1011 318 1006 425 m 957 572 l 956 572 q 957 572 957 572 m 817 600 l 646 632 q 642 592 643 613 l 713 583 q 715 585 714 585 q 725 589 719 588 q 754 594 736 592 q 817 600 778 597 m 785 433 l 782 433 q 771 436 775 435 q 742 438 764 436 q 714 439 722 438 q 701 442 706 440 q 694 447 697 444 q 692 451 693 449 l 656 451 q 656 451 656 451 q 657 450 657 450 q 731 390 674 404 q 793 408 781 386 q 785 433 801 425 m 642 576 q 643 568 643 569 q 644 517 643 535 q 699 529 667 522 l 704 569 l 642 576 m 696 513 q 646 501 665 506 q 651 467 647 482 l 690 467 l 696 513 m 675 707 l 760 704 q 757 711 758 708 l 756 713 l 686 718 q 675 707 681 713 m 710 732 l 743 729 q 726 736 735 735 q 710 732 718 735 m 360 907 q 343 901 353 904 q 347 901 346 901 q 360 903 356 903 q 364 903 363 903 q 365 903 365 903 q 367 903 367 903 q 368 903 368 903 q 372 903 369 903 q 389 903 379 903 q 435 904 408 903 q 482 906 454 904 q 531 938 504 922 q 556 950 543 944 q 360 907 444 938 m 290 878 q 207 824 243 854 q 231 825 218 825 q 275 828 258 826 q 289 829 283 829 q 294 829 290 829 q 296 829 294 829 l 296 829 l 297 829 l 297 829 l 299 829 q 301 829 299 829 q 315 828 310 828 q 357 828 336 828 q 404 826 374 828 q 461 889 429 861 q 435 889 442 889 q 389 888 413 888 q 372 888 378 888 q 370 888 372 888 q 368 888 368 888 q 367 888 368 888 q 365 888 367 888 l 365 888 q 364 888 365 888 q 361 888 363 888 q 349 886 358 888 q 313 881 339 885 q 290 878 304 879 m 188 807 q 128 735 153 775 q 153 738 139 736 q 189 742 178 740 q 200 743 197 743 q 204 743 203 743 q 206 743 204 743 l 207 743 q 208 743 207 743 q 210 743 208 743 q 212 742 210 743 q 215 742 214 742 q 232 739 225 740 q 285 732 254 736 q 349 722 321 726 q 393 811 367 771 q 357 811 376 811 q 315 813 331 813 q 301 813 308 813 q 297 813 297 813 q 296 814 296 813 l 294 814 l 294 814 q 292 814 293 814 q 290 814 290 814 q 275 813 285 813 q 232 810 258 811 q 188 807 214 808 m 118 718 q 83 635 96 679 q 142 639 113 638 q 193 643 178 642 q 211 644 204 644 q 217 644 214 644 q 218 644 217 644 q 221 644 219 644 q 226 644 224 644 q 231 643 229 643 q 237 642 233 643 q 242 642 240 642 q 286 636 253 640 q 326 632 301 635 q 344 707 332 671 q 282 717 313 711 q 231 724 249 721 q 213 726 222 725 q 207 728 210 726 q 206 728 206 728 l 206 728 l 206 728 q 201 728 204 728 q 190 726 197 726 q 154 722 181 725 q 118 718 133 721 m 79 618 q 67 553 71 588 q 94 550 83 551 q 128 547 121 547 q 139 546 131 547 q 146 546 144 546 l 147 544 q 154 544 149 544 q 176 542 165 543 q 240 536 206 539 q 318 529 268 533 q 318 533 318 531 q 318 536 318 535 q 324 615 318 578 q 303 619 317 617 q 285 621 289 621 q 260 624 275 622 q 240 626 244 626 q 225 628 231 628 q 218 629 219 629 l 218 629 q 217 629 217 629 q 211 629 215 629 q 194 628 206 629 q 142 624 171 626 q 79 618 111 621 m 65 525 q 65 433 61 478 q 86 436 76 435 q 114 439 104 439 q 124 440 121 440 q 128 440 128 440 q 129 440 129 440 q 132 440 131 440 l 135 440 q 142 439 136 440 q 153 438 144 439 q 167 436 161 438 q 183 434 174 435 q 200 432 192 433 q 219 429 208 431 q 239 428 231 428 q 322 417 303 419 q 318 514 318 460 q 239 521 271 518 q 174 526 190 525 q 167 527 171 526 q 162 528 164 528 q 157 528 160 528 q 153 529 154 529 q 149 529 151 529 q 146 529 146 529 q 142 531 143 531 q 138 531 142 531 q 126 532 136 531 q 93 535 114 533 q 65 538 78 536 q 65 525 65 526 m 65 417 q 78 342 69 378 q 93 339 82 340 q 111 336 104 338 q 131 333 118 335 q 147 331 143 332 q 158 329 150 331 q 164 329 163 329 q 167 329 165 329 q 172 329 171 329 q 194 331 181 329 q 261 336 221 333 q 335 343 292 339 q 324 401 328 371 q 302 403 318 401 q 269 408 286 406 q 238 411 253 410 q 196 417 222 414 q 164 421 169 421 q 139 424 140 424 q 132 425 135 425 q 129 425 129 425 l 129 425 q 126 425 126 425 q 117 424 122 425 q 89 421 107 422 q 65 417 78 419 m 82 325 q 101 268 90 296 l 271 286 l 360 267 q 338 328 347 294 q 263 321 292 324 q 196 315 222 317 q 174 314 183 314 q 167 313 169 313 q 165 313 165 313 q 162 313 163 313 q 157 314 161 314 q 151 315 156 314 q 144 315 146 315 q 108 321 115 319 q 82 325 90 324 m 107 253 q 172 154 133 197 l 290 161 l 428 175 q 393 211 408 193 q 369 249 381 228 l 269 269 l 107 253 m 186 139 q 244 94 213 114 q 322 96 283 96 q 390 96 361 96 q 413 96 404 96 q 419 96 415 96 q 422 96 421 96 q 424 96 422 96 q 425 96 424 96 q 431 97 426 96 q 453 99 436 97 q 517 103 479 100 q 549 107 518 104 q 444 161 488 128 l 292 146 l 186 139 m 718 69 q 726 72 722 71 q 589 94 650 79 q 518 88 546 90 q 454 82 474 83 q 432 81 438 81 q 425 81 426 81 q 424 81 424 81 q 421 81 422 81 l 421 81 l 421 81 q 419 81 421 81 q 413 81 415 81 q 390 81 404 81 q 322 81 372 81 q 271 79 300 81 q 468 39 360 35 q 718 69 639 44 m 746 47 l 772 43 l 767 57 q 746 47 758 51 m 985 131 q 979 317 986 207 q 965 499 974 424 q 956 558 960 538 q 953 574 954 568 q 950 574 951 574 q 949 574 949 574 q 921 574 938 574 q 838 571 882 572 q 758 564 789 567 q 735 560 743 561 l 722 469 q 743 468 731 469 q 774 467 769 467 q 799 461 792 465 q 824 431 818 451 q 819 393 831 411 q 726 360 797 353 l 725 360 q 628 439 651 378 q 611 568 614 475 l 611 567 q 628 686 608 638 q 722 768 656 756 l 725 768 l 726 768 q 783 726 763 765 q 794 700 790 714 q 813 701 801 700 q 875 717 839 706 q 936 742 911 729 q 953 753 947 749 q 954 753 953 753 q 917 869 949 821 q 841 940 885 918 q 747 963 797 963 q 735 963 742 963 l 718 961 q 692 960 710 961 q 546 910 613 947 q 349 536 351 803 q 363 357 349 431 q 418 231 378 283 q 772 101 511 111 l 772 99 l 782 104 l 808 39 q 810 38 808 38 q 825 35 815 36 q 875 33 846 32 q 978 46 939 33 q 978 49 978 49 q 982 67 981 56 q 985 131 983 90 z "},"H":{"ha":1146,"x_min":51,"x_max":1088,"o":"m 1086 169 q 1085 67 1086 104 q 1082 35 1083 46 q 1081 24 1082 29 q 1075 13 1079 17 l 1072 10 l 1068 8 q 1046 6 1061 6 q 1014 7 1033 6 q 931 15 976 8 q 846 29 881 21 q 815 39 828 33 q 801 44 806 42 q 757 47 772 47 q 724 50 738 49 q 713 51 719 50 q 706 51 707 51 q 701 52 706 51 q 691 54 697 53 q 679 56 685 56 q 672 57 676 57 l 671 57 l 669 58 q 668 53 668 54 q 653 29 663 36 q 592 11 636 19 q 506 1 553 4 q 424 1 458 -1 q 393 4 406 1 q 376 8 381 6 q 247 22 310 15 q 149 35 186 29 q 113 42 126 39 q 88 50 94 46 l 85 51 l 83 54 q 64 117 71 72 q 56 217 58 156 q 60 479 51 324 q 79 738 67 619 q 92 831 86 794 q 104 883 99 871 q 129 904 110 896 q 165 917 143 911 q 264 933 203 926 q 399 944 331 940 q 416 948 403 946 q 449 951 429 950 q 533 956 485 956 q 617 956 582 957 q 647 953 636 954 q 657 951 654 953 q 669 946 665 950 l 674 942 l 674 931 q 675 931 675 931 q 676 931 675 931 q 678 932 676 932 q 681 932 679 932 q 685 932 682 932 q 758 932 693 932 q 779 944 764 939 q 811 951 792 949 q 894 958 844 957 q 915 958 906 958 q 976 956 949 957 q 1008 953 996 954 q 1029 947 1024 950 l 1032 946 l 1035 944 q 1044 922 1040 939 q 1051 888 1047 910 q 1063 782 1057 849 q 1079 475 1072 657 q 1086 169 1086 301 m 769 639 q 768 653 769 643 q 738 654 751 654 q 704 657 718 656 q 692 658 699 657 q 686 658 686 658 l 688 658 l 685 658 q 678 654 682 657 l 678 644 q 726 639 704 640 q 765 638 751 636 q 769 639 767 638 m 767 689 q 761 747 765 707 q 749 746 753 746 q 728 744 736 744 q 720 744 724 744 q 714 744 717 743 q 706 744 714 744 q 688 746 700 746 q 676 747 681 747 l 678 672 l 679 672 q 685 675 683 674 q 689 674 688 675 l 690 674 l 693 674 q 706 672 699 674 q 738 671 718 672 q 768 668 756 669 q 767 689 768 679 m 758 781 q 754 826 756 807 q 744 824 749 825 q 739 822 740 822 q 733 822 736 822 q 731 824 733 822 q 721 824 726 824 q 696 826 710 825 q 675 828 688 826 l 676 763 q 682 763 678 763 q 688 763 686 763 q 707 761 701 761 q 718 760 715 760 l 719 760 q 726 760 724 760 q 747 761 735 760 q 760 763 754 763 q 759 772 760 765 q 758 781 758 778 m 679 900 q 675 900 678 900 l 675 843 q 696 842 692 842 q 722 839 711 840 q 732 839 729 839 q 738 838 736 838 q 740 839 739 839 q 751 842 744 840 q 753 843 751 842 q 751 871 753 858 q 751 900 751 888 q 726 900 743 900 q 697 900 708 900 q 683 900 686 900 l 682 900 l 681 900 l 681 900 l 679 900 m 90 464 q 88 396 89 429 q 140 400 118 399 q 186 404 168 403 q 203 404 196 404 q 208 404 207 404 q 210 404 208 404 q 213 404 211 404 l 213 404 q 213 404 213 404 q 218 404 215 404 q 238 406 226 404 q 290 408 260 407 q 358 414 319 411 q 360 465 360 438 q 313 460 332 463 q 267 456 283 457 q 251 454 257 454 q 246 453 249 454 q 244 453 244 453 q 242 454 243 453 l 240 454 q 237 454 239 454 q 233 454 235 454 q 214 456 225 454 q 157 460 200 457 q 90 464 124 461 m 86 379 q 86 324 86 351 q 117 321 103 322 q 150 318 136 319 q 161 317 158 317 q 165 315 164 315 q 165 315 165 315 q 176 317 168 315 q 200 317 178 317 q 269 319 231 318 q 357 324 314 322 q 358 397 357 360 q 292 393 322 396 q 238 390 261 392 q 219 389 224 389 q 213 389 215 389 q 211 389 211 389 q 210 389 210 389 l 208 389 q 204 389 207 389 q 188 388 200 389 q 140 385 175 388 q 86 379 113 382 m 86 307 q 86 271 85 290 q 149 267 119 268 q 203 263 185 264 q 221 261 213 263 q 226 261 225 261 q 229 260 228 261 q 231 260 229 260 q 235 260 233 260 q 251 261 242 261 q 301 264 268 261 q 356 267 325 265 q 357 308 356 288 q 271 304 317 307 q 200 301 218 303 q 176 300 192 301 q 168 300 174 300 l 167 300 l 165 300 l 163 300 q 159 301 161 300 q 149 301 157 301 q 115 306 140 303 q 86 307 96 307 m 86 256 q 87 217 86 233 q 89 185 88 201 q 114 182 100 183 q 142 176 131 179 q 151 175 146 176 q 156 174 156 174 q 157 174 157 174 l 157 174 q 158 174 157 174 q 165 174 163 174 q 190 172 175 174 q 264 172 211 172 q 356 171 303 171 q 356 172 356 171 q 356 251 356 208 q 303 249 326 250 q 253 246 268 246 q 236 244 242 244 q 231 244 232 244 q 228 244 229 244 q 225 244 226 244 l 226 244 l 225 244 q 222 246 224 246 q 219 246 221 246 q 201 247 211 246 q 147 251 174 249 q 86 256 124 253 m 89 169 q 92 142 90 154 q 154 136 125 139 q 207 132 189 133 q 225 131 217 131 q 229 129 228 131 q 231 129 231 129 q 233 129 233 129 q 234 129 233 129 q 236 129 235 129 q 242 129 238 129 q 258 128 247 129 q 306 124 279 126 q 356 119 329 122 q 356 156 356 136 q 264 157 301 156 q 190 157 221 157 q 165 158 175 157 q 158 158 163 158 l 157 158 l 156 158 q 153 158 154 158 q 149 159 153 158 q 139 161 144 160 q 111 165 126 164 q 89 169 103 167 m 103 83 q 201 78 144 82 q 274 74 247 75 q 297 71 288 72 q 300 71 299 71 l 304 71 q 306 71 304 71 q 307 71 307 71 l 307 69 q 313 69 310 71 q 322 68 317 69 q 346 63 332 65 q 358 58 353 61 q 358 68 358 64 q 357 104 357 83 q 304 108 325 107 q 257 113 276 111 q 240 114 246 113 q 235 114 238 114 l 233 114 l 232 114 l 231 114 l 229 114 q 224 115 228 114 q 206 117 219 115 q 154 121 185 118 q 94 125 121 124 q 94 124 94 125 q 94 122 94 122 q 103 83 99 100 m 251 53 q 361 42 301 47 q 361 42 361 42 q 342 47 350 44 q 318 53 326 51 q 310 54 315 53 l 308 54 l 306 54 l 304 54 q 303 55 304 54 q 303 56 303 56 q 296 56 299 56 q 272 57 286 57 q 201 63 242 60 q 164 64 182 64 q 251 53 199 60 m 361 482 q 364 568 363 524 q 286 574 326 571 q 221 579 235 578 q 210 580 218 579 q 199 581 201 581 q 192 581 197 581 q 188 582 189 582 q 189 582 189 582 q 185 581 188 582 q 174 579 179 581 q 139 572 150 575 q 103 568 115 569 q 96 568 100 568 q 90 479 93 522 q 157 475 146 475 q 215 471 189 472 q 235 469 228 471 q 242 469 240 469 q 244 469 243 469 q 244 469 244 469 q 250 469 247 469 q 265 471 256 469 q 311 476 283 472 q 361 482 329 478 m 364 583 q 368 682 367 636 q 256 685 310 683 q 165 688 199 686 q 135 688 138 688 q 126 689 129 688 q 124 689 125 689 q 121 689 122 689 q 113 692 118 689 q 107 694 111 693 q 97 583 101 642 q 101 583 100 583 q 136 589 114 585 q 171 594 146 590 q 183 596 176 596 q 186 597 185 597 q 188 597 188 597 q 189 597 188 597 q 192 597 189 597 l 193 597 q 200 596 196 596 q 222 594 200 596 q 288 589 238 593 q 364 583 319 588 m 374 782 q 376 819 375 801 q 339 824 351 822 q 300 826 304 826 q 288 828 292 828 q 282 829 282 829 q 281 829 281 829 q 280 829 281 829 q 274 828 279 829 q 253 826 267 828 q 193 819 226 824 q 121 811 157 815 q 111 735 115 779 q 108 711 110 724 l 108 710 q 119 706 117 707 q 124 704 124 704 q 126 704 125 704 q 126 704 126 704 q 135 703 132 704 q 165 703 139 703 q 256 700 200 701 q 369 699 297 700 q 374 782 371 743 m 381 886 q 383 913 382 901 q 268 901 321 908 q 174 886 208 894 q 142 876 153 882 q 133 871 138 875 l 132 871 q 122 828 129 863 q 192 835 156 831 q 251 842 229 839 q 272 843 264 843 q 278 844 278 844 q 281 844 279 844 q 283 844 282 844 l 285 844 q 289 843 288 843 q 301 842 293 843 q 340 839 315 840 q 376 835 354 838 q 381 886 379 865 m 760 79 q 786 76 761 79 l 782 114 q 747 117 763 115 q 714 119 722 119 q 696 121 697 121 l 694 121 q 690 119 693 121 q 681 117 686 118 q 678 115 678 115 q 675 89 676 100 q 685 88 679 88 q 711 82 708 83 q 712 83 710 83 q 715 82 714 82 q 726 82 719 82 q 760 79 740 81 m 733 186 l 736 186 q 743 186 739 186 q 763 188 751 186 q 771 188 764 188 l 765 228 q 753 226 758 226 q 732 224 739 225 q 724 224 728 224 q 718 224 719 222 q 708 225 717 224 q 689 228 693 226 q 685 228 688 228 q 679 228 682 228 q 679 189 681 208 q 696 189 689 189 q 719 186 710 188 q 729 186 724 186 q 733 186 732 186 m 751 242 q 764 243 757 242 q 757 243 761 243 q 724 246 743 243 q 679 253 699 247 q 679 244 679 246 q 685 244 681 244 q 692 243 689 243 q 710 240 703 242 q 721 239 719 239 l 724 239 q 731 239 725 239 q 751 242 738 240 m 679 164 q 678 132 679 150 q 686 135 683 135 q 691 136 689 136 q 693 136 693 136 q 696 136 694 136 q 714 135 699 136 q 749 132 721 135 q 779 131 763 132 l 774 172 q 769 172 772 172 q 764 172 767 172 q 744 171 753 171 q 736 169 739 169 q 731 171 732 169 q 728 171 731 171 q 719 171 724 171 q 694 172 713 172 q 679 174 688 174 q 679 164 679 168 m 1054 68 q 1056 169 1056 104 q 1047 474 1054 301 q 1031 779 1040 657 q 1019 883 1025 846 q 1014 914 1017 903 q 1013 919 1014 917 q 1004 921 1007 921 q 975 925 993 924 q 915 926 947 926 q 894 926 903 926 q 815 921 846 926 q 790 915 799 918 q 783 913 786 914 q 782 903 782 906 q 783 872 782 892 q 789 783 785 843 q 797 690 797 707 q 800 632 801 646 q 800 631 800 632 q 788 613 799 618 q 768 607 781 608 q 724 607 753 604 l 660 617 l 647 619 l 643 922 q 615 925 633 924 q 534 925 582 926 q 451 921 486 924 q 421 918 433 919 q 415 917 421 917 q 415 913 415 913 q 411 883 414 901 q 404 781 408 846 q 392 476 397 643 q 386 174 386 293 q 389 71 388 107 q 392 40 390 51 q 393 36 393 39 q 399 35 396 35 q 425 32 408 33 q 503 33 458 31 q 586 42 550 36 q 635 56 621 49 l 638 63 q 643 89 642 72 q 649 165 647 117 l 647 272 l 646 296 l 668 288 q 726 276 688 281 q 757 275 744 275 q 771 275 768 275 l 789 285 l 819 71 q 826 68 822 69 q 854 60 836 64 q 935 46 886 53 q 1017 38 978 40 q 1046 38 1033 38 q 1051 38 1047 38 q 1051 39 1051 38 q 1054 68 1053 49 z "},"I":{"ha":764,"x_min":49,"x_max":719,"o":"m 718 935 q 719 904 719 924 q 714 803 718 868 q 692 496 707 678 q 663 189 676 318 q 650 83 656 121 q 646 51 647 64 q 643 40 644 46 q 639 32 642 35 l 636 28 l 632 25 q 569 13 607 18 q 488 7 531 8 q 418 8 447 6 q 392 12 403 10 q 378 15 382 14 q 281 13 326 14 q 196 13 229 11 q 164 15 176 14 q 140 21 147 17 l 138 24 l 136 25 q 113 88 124 43 q 93 185 103 125 q 64 447 76 294 q 50 704 53 590 q 51 797 50 761 q 58 849 53 836 q 64 857 60 853 q 68 860 65 858 q 76 864 71 863 q 97 869 83 867 q 169 883 124 875 q 388 918 249 899 q 646 956 506 936 q 682 961 668 960 q 694 963 689 963 l 701 963 l 703 961 q 708 960 706 961 l 710 958 q 717 950 714 956 q 718 944 718 947 q 718 935 718 942 m 175 853 q 149 849 161 850 q 161 849 154 849 q 221 847 206 847 q 242 846 231 847 q 247 846 246 846 q 251 846 250 846 q 256 846 253 846 q 269 849 261 847 q 310 854 283 850 q 360 863 335 858 q 383 879 367 869 q 410 890 394 885 q 392 888 404 889 q 175 853 256 867 m 82 794 q 82 726 81 767 q 107 736 96 732 q 133 746 124 742 q 143 749 139 747 q 146 749 144 749 q 147 749 147 749 q 149 750 147 750 q 151 750 149 750 q 154 749 151 749 l 161 747 q 186 742 176 744 q 219 734 193 740 q 260 725 244 728 q 346 704 296 717 q 346 717 346 713 q 350 810 347 775 q 351 839 351 828 q 353 846 353 843 q 313 839 328 842 q 271 833 286 835 q 257 831 261 832 q 253 831 254 831 q 249 831 250 831 l 247 831 q 242 831 244 831 q 221 832 231 831 q 161 832 206 832 q 88 833 124 833 q 82 794 83 818 m 82 704 q 85 593 82 654 q 93 593 89 593 q 124 597 99 594 q 154 600 147 600 q 165 601 164 601 q 169 601 167 601 q 171 601 169 601 q 172 601 171 601 l 175 601 q 181 601 181 601 q 203 599 196 600 q 269 594 213 599 q 344 589 307 592 q 346 689 346 640 q 324 694 338 690 q 290 702 310 697 q 256 710 269 707 q 183 726 210 719 q 158 732 163 731 q 150 733 154 733 q 149 733 149 733 q 147 733 149 733 q 139 731 144 732 q 113 721 129 728 q 82 710 99 715 q 82 707 82 708 q 82 704 82 706 m 86 578 q 92 499 89 538 q 150 494 121 496 q 197 490 182 492 q 214 489 210 489 q 217 489 215 489 q 219 489 219 489 q 222 489 221 489 q 228 489 225 489 q 243 490 233 489 q 292 496 261 493 q 344 504 318 500 q 344 572 344 536 q 313 576 342 574 q 268 578 285 578 q 203 583 211 583 q 179 585 200 583 q 174 586 178 585 q 169 586 169 586 q 167 586 168 586 q 157 585 164 586 q 126 582 144 583 q 94 578 111 581 q 86 578 90 578 m 94 450 q 99 401 96 429 q 156 399 136 400 q 203 396 183 397 q 219 394 211 396 q 224 394 222 394 q 225 394 224 394 q 226 394 226 394 q 232 394 228 394 q 247 397 236 396 q 294 406 265 400 q 346 415 318 410 q 346 442 346 433 q 344 488 344 464 q 293 481 317 485 q 246 475 261 476 q 229 474 235 474 q 224 472 226 472 q 222 472 222 472 q 219 472 221 472 l 218 474 q 216 474 218 474 q 213 474 214 474 q 196 475 203 474 q 149 478 176 476 q 92 482 118 481 q 94 450 93 463 m 100 386 q 106 332 103 360 q 122 326 114 329 q 133 324 128 325 q 142 322 139 322 q 147 319 146 321 q 157 321 150 321 q 183 322 174 322 q 257 328 192 324 q 290 331 272 329 q 324 333 307 332 q 347 335 340 333 q 346 400 346 367 q 297 390 317 394 q 250 382 268 385 q 233 379 242 381 q 228 379 231 379 q 226 378 226 378 q 224 379 225 378 l 222 379 q 218 379 221 379 q 201 381 214 379 q 154 383 185 382 q 100 386 126 385 m 107 315 q 115 253 111 283 q 160 253 142 253 q 200 251 190 251 q 214 251 213 251 q 219 251 219 251 q 221 251 221 251 q 349 271 228 251 q 347 318 347 293 q 258 313 303 315 q 185 307 211 310 q 158 306 174 307 q 147 304 154 306 l 146 304 l 144 304 q 140 306 144 306 q 130 308 136 307 q 118 311 124 310 q 107 315 110 314 m 124 190 q 124 185 124 189 q 125 181 125 182 q 138 179 135 179 l 138 178 q 139 178 138 178 l 139 178 q 140 178 140 178 q 147 178 142 178 q 174 178 158 178 q 253 179 207 178 q 351 179 294 179 q 349 256 350 214 q 222 235 225 236 l 219 235 l 219 235 l 218 236 q 214 236 215 236 q 200 236 213 236 q 158 238 186 236 q 117 238 140 238 q 124 190 121 211 m 133 140 q 179 135 156 138 q 221 131 203 132 q 235 129 229 129 q 239 128 238 128 q 240 128 240 128 q 249 128 243 128 q 264 128 254 128 q 307 125 281 126 q 354 122 331 124 q 351 164 353 142 q 253 163 294 163 q 174 163 197 163 q 147 163 160 163 q 140 163 142 163 q 138 163 139 163 q 135 164 136 163 q 128 164 133 164 q 133 140 131 151 m 143 94 q 149 76 146 85 q 222 79 186 78 q 276 81 253 81 q 296 82 288 82 q 301 82 299 82 q 304 82 303 82 q 318 82 307 82 q 342 85 329 83 q 357 85 350 85 q 356 107 356 94 q 307 110 335 108 q 263 111 276 111 q 247 113 254 113 q 242 113 246 113 l 240 113 l 239 113 l 238 113 q 233 114 235 113 q 230 114 232 114 q 224 115 228 114 q 219 115 221 115 q 178 119 199 117 q 136 124 163 121 q 143 94 139 107 m 279 43 q 363 46 318 44 q 358 69 360 56 q 343 68 347 68 q 318 67 329 68 q 304 65 307 67 l 303 65 q 302 66 303 65 q 301 67 301 67 l 296 67 q 278 65 288 65 q 224 64 254 65 q 153 61 190 63 q 160 47 157 53 q 168 46 164 46 q 197 44 179 44 q 279 43 229 43 m 688 906 q 688 929 688 919 q 650 925 663 926 q 649 924 650 925 q 649 924 649 924 q 543 900 601 915 q 436 867 479 883 q 399 851 413 858 q 383 842 390 846 q 383 835 383 838 q 381 808 382 826 q 378 715 379 774 q 376 442 375 596 q 383 168 378 275 q 389 75 386 110 q 393 49 392 57 q 394 43 394 46 q 399 42 397 43 q 419 39 407 40 q 486 39 447 38 q 614 53 567 42 q 615 55 614 54 q 615 57 615 56 q 619 88 617 68 q 632 192 625 126 q 660 499 646 321 q 683 804 675 679 q 688 906 686 869 z "},"J":{"ha":1001,"x_min":10,"x_max":971,"o":"m 961 889 q 932 444 971 667 q 829 136 897 249 q 733 30 789 68 q 606 -10 676 -8 q 449 -25 521 -28 q 321 -8 376 -22 q 220 34 265 6 q 144 94 175 63 q 89 165 113 126 q 36 284 56 219 q 14 386 17 349 l 11 424 l 11 425 l 11 426 q 19 439 13 433 q 29 444 22 443 q 50 450 36 447 q 111 458 71 454 q 175 465 174 465 q 213 472 206 469 l 214 471 q 221 476 217 474 q 250 492 232 483 q 336 522 285 506 q 424 544 386 538 q 456 550 443 549 q 460 550 456 550 q 469 564 465 554 q 481 604 476 578 q 483 724 488 649 q 476 803 481 761 q 468 869 472 846 l 464 893 l 465 892 q 467 907 463 900 q 475 917 469 913 q 494 926 482 922 q 547 942 513 933 q 582 950 563 946 q 617 957 601 954 q 642 963 633 960 q 654 968 646 965 q 668 969 660 969 q 706 967 683 969 q 806 949 746 963 q 903 924 860 936 q 936 911 924 917 q 949 906 944 908 q 958 896 956 900 l 961 892 l 961 889 m 506 897 q 496 893 500 896 q 501 860 499 878 q 536 863 518 861 q 572 865 557 865 q 585 867 581 867 q 589 867 586 867 q 590 867 589 867 q 593 867 592 867 q 624 860 594 867 q 628 859 625 860 q 633 857 631 858 q 635 928 633 901 q 599 921 628 926 q 554 911 571 915 q 506 897 522 904 m 607 582 q 611 582 610 582 q 622 586 614 583 q 625 617 624 601 q 628 664 626 639 q 592 671 614 667 q 554 676 581 672 q 536 681 539 679 q 531 681 536 681 q 521 679 528 681 q 518 679 519 679 q 515 679 517 679 q 511 599 517 632 q 508 582 510 590 q 546 582 529 582 q 586 582 569 582 q 600 582 596 582 q 604 582 604 582 q 607 582 607 582 m 593 686 q 628 679 621 681 q 631 747 629 711 q 586 749 608 747 q 544 750 560 749 q 529 750 535 750 q 524 750 526 750 q 522 750 522 750 q 514 754 519 751 q 513 754 514 754 q 514 725 514 739 q 515 694 515 710 q 519 696 518 696 q 531 696 526 696 q 535 696 535 696 q 539 696 538 696 q 557 692 540 696 q 593 686 585 688 m 588 764 q 631 763 590 764 q 632 842 631 785 q 621 844 631 842 q 590 851 594 850 q 590 851 590 851 q 588 851 589 851 q 586 851 586 851 q 574 850 578 850 q 538 847 558 849 q 503 844 521 846 q 511 772 508 808 q 521 768 515 769 q 524 767 522 767 q 525 765 525 765 q 526 765 525 765 q 531 765 528 765 q 544 765 536 765 q 588 764 561 764 m 499 550 q 488 533 493 540 q 490 513 489 524 q 513 506 508 507 q 517 506 514 506 q 531 506 525 506 q 572 507 549 506 q 613 507 589 507 q 621 569 617 535 q 615 568 618 568 q 610 567 611 567 q 604 567 607 565 l 604 567 q 601 567 603 567 q 600 567 600 567 q 586 567 593 567 q 546 567 571 567 q 504 565 521 565 q 499 550 501 557 m 610 492 q 572 490 588 492 q 531 490 549 490 q 517 490 522 490 q 513 490 514 490 q 508 490 510 490 q 496 494 506 492 q 504 474 499 483 q 576 414 529 418 q 590 429 583 418 q 606 472 599 444 q 610 492 607 481 m 465 519 q 464 519 464 519 l 465 519 m 43 417 q 43 410 43 414 q 50 408 47 408 q 65 404 63 406 q 72 403 69 403 q 74 403 72 403 q 81 403 78 403 q 99 404 83 403 q 150 407 114 404 q 207 410 179 408 q 204 438 206 424 q 179 435 197 436 q 114 428 176 433 q 57 419 75 424 q 43 417 49 418 m 44 393 q 57 324 49 358 q 96 324 79 324 q 136 322 119 322 q 150 321 146 322 q 154 321 153 321 q 157 321 156 321 q 161 321 160 321 q 172 321 164 321 q 203 321 181 321 q 226 321 213 321 q 210 394 217 357 q 151 390 174 392 q 99 388 114 389 q 81 388 85 388 q 71 388 72 388 l 69 388 q 61 389 68 388 q 46 393 56 390 q 44 393 44 393 m 61 308 q 92 224 74 264 q 106 222 99 224 q 124 219 117 221 q 133 218 132 218 l 133 218 l 135 218 q 140 218 136 218 q 157 218 146 218 q 210 219 179 218 q 263 222 235 221 q 231 306 244 261 q 203 306 214 306 q 172 306 181 306 q 161 306 164 306 q 158 306 160 306 l 157 306 l 156 306 l 154 306 q 153 306 154 306 q 151 306 153 306 q 149 306 150 306 q 136 307 147 306 q 96 307 117 307 q 61 308 78 308 m 115 182 q 151 132 132 154 q 192 131 172 131 q 229 129 219 129 q 242 128 235 129 q 246 128 244 128 q 247 128 246 128 q 293 135 253 128 q 298 136 294 136 q 303 137 301 136 q 308 138 306 138 q 313 139 310 139 q 290 171 300 154 q 271 207 281 188 q 210 204 239 206 q 158 203 179 203 q 140 203 147 203 q 134 203 136 203 q 132 203 132 203 q 129 203 131 203 q 121 204 128 203 q 103 207 117 206 q 102 207 103 207 q 100 207 101 207 q 115 182 108 192 m 271 42 q 278 43 275 42 q 314 49 293 44 q 349 53 336 51 q 361 54 356 54 q 365 54 364 54 q 367 54 367 54 q 368 54 368 54 q 373 54 369 54 q 383 54 376 54 q 400 53 390 53 q 324 125 357 82 q 296 119 304 121 q 249 113 253 113 l 246 111 l 246 113 l 244 113 q 240 113 242 113 q 228 114 231 113 q 192 115 219 114 q 165 115 181 115 q 271 42 211 68 m 299 31 q 492 7 383 0 q 429 33 458 18 q 411 36 421 35 q 382 39 393 38 q 372 39 378 39 q 368 39 369 39 l 367 39 l 365 39 q 363 39 365 39 q 350 38 356 38 q 315 33 340 36 q 299 31 310 32 m 900 450 q 931 879 938 661 q 925 882 926 882 q 893 893 913 888 q 799 918 851 906 q 701 936 740 931 q 669 938 682 939 q 667 938 669 938 q 663 799 665 919 q 656 614 660 678 q 636 465 649 518 q 617 414 628 433 q 583 383 603 389 l 581 382 l 578 382 q 475 460 508 385 q 458 519 463 488 q 431 514 447 518 q 346 492 394 507 q 263 463 296 476 q 238 450 246 456 q 235 447 236 449 q 317 186 247 301 q 601 22 418 22 q 803 151 724 22 q 900 450 868 260 z "},"K":{"ha":1128,"x_min":51,"x_max":1097,"o":"m 1076 892 q 1019 788 1063 865 q 881 522 921 613 q 890 517 885 519 q 942 492 906 508 q 996 467 983 472 q 1015 456 1008 460 q 1024 449 1021 451 q 1031 438 1029 444 q 1082 179 1067 268 q 1092 111 1089 135 q 1092 92 1092 99 q 1090 83 1092 86 q 1086 76 1089 79 q 1067 61 1082 69 q 1032 47 1053 54 q 936 21 992 33 q 901 14 918 17 q 868 8 885 11 q 838 4 851 6 q 801 4 815 3 q 783 7 788 4 l 783 6 q 728 18 756 13 q 663 35 671 32 l 661 35 q 635 46 649 39 q 628 39 632 42 l 628 39 q 567 21 611 28 q 481 11 529 14 q 399 10 433 8 q 369 13 381 11 q 353 17 357 15 q 215 38 282 26 q 118 56 153 47 q 85 65 97 61 q 72 71 76 68 q 63 83 64 76 q 54 138 57 97 q 53 236 53 176 q 65 513 54 358 q 94 793 78 676 q 113 897 103 857 q 136 961 125 944 l 139 964 l 142 965 q 164 972 149 969 q 196 974 176 974 q 233 975 213 975 q 275 974 251 975 l 382 969 l 382 968 q 394 971 385 969 q 425 974 406 972 q 510 977 463 976 q 593 975 558 978 q 622 972 611 975 q 633 971 628 972 q 644 965 640 969 l 649 961 l 649 946 q 661 944 654 944 q 667 944 663 944 q 674 944 671 944 q 683 944 681 944 q 686 944 683 944 q 692 943 689 943 q 700 943 696 943 q 733 940 711 942 q 772 938 757 939 q 789 944 778 942 q 826 954 804 950 q 925 964 865 960 q 1024 965 978 967 q 1061 964 1046 965 q 1085 960 1078 963 l 1088 958 l 1089 956 q 1094 938 1096 949 q 1092 925 1094 932 q 1076 892 1086 913 m 661 914 q 650 914 656 914 l 650 878 q 663 881 660 881 l 664 881 l 665 881 q 713 874 669 881 q 738 868 729 869 q 754 908 746 890 q 731 910 740 908 q 697 911 710 911 q 679 914 682 913 l 676 914 q 674 914 676 914 q 670 914 672 914 q 666 914 668 914 q 661 914 664 914 m 669 660 q 685 699 676 674 q 690 715 688 706 q 669 717 675 715 q 663 716 667 717 q 653 715 658 715 l 653 660 q 660 660 657 660 q 669 660 667 660 m 671 661 l 672 661 q 671 661 672 661 m 671 732 q 693 731 674 732 q 696 731 693 731 q 708 775 700 744 q 711 783 711 782 q 700 782 704 783 q 663 779 667 781 l 660 779 l 658 781 q 651 783 657 782 l 653 731 q 663 732 658 731 q 667 732 664 732 l 668 732 l 671 732 m 699 797 q 715 799 707 799 q 733 854 725 832 q 710 857 719 856 q 665 865 672 864 q 650 863 661 864 l 651 800 q 663 796 658 797 q 699 797 671 796 m 93 453 q 90 396 90 421 q 92 396 90 396 q 99 399 96 399 q 100 400 100 400 q 101 400 101 400 l 104 400 q 113 399 107 400 q 142 397 124 399 q 228 393 179 396 q 333 386 276 390 q 335 444 335 413 q 283 453 307 449 q 238 458 251 457 q 222 461 228 460 q 218 461 218 461 q 217 461 217 461 q 217 461 217 461 l 217 461 q 214 461 215 461 q 210 461 210 461 q 193 460 204 460 q 144 456 175 458 q 93 453 119 454 m 89 378 q 86 311 88 344 q 128 307 110 308 q 168 304 150 306 q 182 303 178 303 q 186 303 185 303 q 188 303 186 303 l 189 303 l 192 303 q 197 303 192 303 q 215 303 208 303 q 269 303 232 303 q 332 304 297 303 q 333 371 332 336 q 226 378 278 375 q 142 382 172 381 q 113 383 119 383 q 104 383 108 383 q 101 383 103 383 q 97 382 100 383 q 89 378 93 381 m 86 296 q 85 256 85 276 q 92 258 89 258 q 94 260 93 260 q 94 258 94 260 q 97 258 96 258 q 107 258 103 258 q 135 257 117 258 q 221 253 158 256 q 331 246 271 250 q 332 288 331 269 q 269 288 296 288 q 215 286 233 288 l 197 286 q 194 288 196 288 q 191 288 192 288 q 189 288 190 288 q 186 288 188 288 q 182 288 183 288 q 167 288 176 288 q 126 292 153 289 q 86 296 106 293 m 85 192 q 194 182 163 182 q 331 186 217 182 q 331 231 331 206 q 221 238 272 233 q 135 242 163 240 q 106 243 117 243 q 97 243 101 243 q 96 243 96 243 q 85 239 93 243 q 85 238 85 239 q 85 236 85 236 q 85 192 83 213 m 86 139 q 88 113 86 125 q 197 101 165 103 q 332 106 218 103 q 331 169 331 133 q 196 165 215 167 l 194 165 q 85 176 161 167 q 86 139 85 156 m 92 94 l 92 93 q 92 94 92 93 m 221 68 q 336 50 274 60 q 333 78 335 61 q 332 90 333 83 q 197 86 218 88 q 90 96 165 88 q 94 94 93 94 q 125 86 104 90 q 221 68 160 78 m 336 493 q 338 502 338 497 q 338 511 338 507 q 338 518 338 515 q 281 522 307 521 q 231 526 246 525 q 214 526 222 526 q 211 526 213 526 q 210 526 210 526 l 208 526 l 208 526 l 208 526 q 206 526 207 526 q 204 526 204 526 q 200 526 201 526 q 186 526 196 526 q 143 526 172 526 q 97 526 126 526 q 97 521 97 524 q 97 515 97 518 q 97 510 97 513 q 93 468 96 492 q 143 471 117 469 q 192 475 171 474 q 208 476 193 475 q 210 476 208 476 q 213 476 213 476 l 214 476 q 217 476 215 478 q 219 476 218 476 q 224 476 219 476 q 240 475 229 476 q 286 468 254 472 q 336 460 310 464 q 336 493 336 479 m 338 535 q 342 615 340 576 q 251 621 306 618 q 178 626 186 626 q 153 629 168 628 q 143 629 144 629 q 137 628 140 629 q 128 626 133 628 q 118 624 122 624 q 106 619 113 621 q 99 542 103 582 q 143 542 128 542 q 186 542 169 542 q 200 542 196 542 q 204 543 203 542 l 206 543 q 207 543 207 543 l 210 543 q 215 543 211 543 q 232 542 218 542 q 282 538 246 540 q 338 535 308 536 m 342 631 q 344 696 343 663 q 303 704 322 700 q 263 711 279 708 q 249 713 254 713 q 244 714 246 714 q 242 714 243 714 q 236 713 239 713 q 219 711 231 713 q 171 708 203 711 q 114 706 143 707 q 107 636 111 672 q 114 639 110 636 q 126 642 119 640 q 135 644 132 643 q 139 644 139 644 l 142 646 l 143 646 q 154 644 144 644 q 179 643 168 643 q 253 638 210 640 q 342 631 290 635 m 346 711 q 349 768 347 740 q 331 772 340 771 q 307 778 315 776 q 300 779 301 779 q 297 781 299 781 l 297 781 l 297 781 q 297 781 297 781 q 295 780 296 781 q 294 779 294 779 q 288 779 293 779 q 265 779 278 779 q 200 778 239 778 q 124 776 168 776 q 117 721 119 749 q 169 724 147 724 q 218 728 201 726 q 235 728 229 728 q 240 729 238 729 q 242 729 242 729 q 243 729 242 729 q 244 729 243 729 q 246 729 244 729 q 251 729 249 729 q 265 726 257 728 q 306 719 282 724 q 346 711 325 715 m 350 803 q 353 843 351 824 q 301 853 326 849 q 256 861 269 858 q 240 864 246 863 q 236 864 238 864 q 233 864 235 864 q 229 864 232 864 q 215 863 224 864 q 176 861 206 863 q 138 861 156 861 q 125 792 131 831 q 200 793 164 792 q 265 794 239 793 q 288 794 275 794 q 293 796 290 796 q 294 796 294 796 l 294 796 q 297 796 296 796 q 299 796 297 796 q 303 796 300 796 q 311 793 306 794 q 335 788 319 792 q 350 783 340 786 q 350 803 350 799 m 354 858 q 358 906 356 886 q 281 914 300 913 q 217 921 253 917 q 186 924 190 924 q 163 917 174 921 q 150 913 157 915 q 143 890 146 901 q 140 876 142 885 q 176 878 160 876 q 215 879 204 878 q 228 879 224 879 q 232 879 232 879 q 235 881 233 879 q 235 880 235 881 q 238 879 236 879 q 243 879 240 879 q 258 876 249 878 q 304 868 278 874 q 354 858 328 864 m 360 922 q 361 939 361 932 q 274 943 314 942 q 196 943 226 944 q 168 942 179 943 q 160 939 164 940 q 156 931 158 936 q 158 931 157 931 q 158 932 158 932 q 167 935 163 933 q 174 937 171 936 q 181 938 178 938 q 183 939 183 939 l 185 940 l 186 939 q 218 936 189 939 q 245 933 221 936 q 282 929 269 931 q 360 922 310 926 m 735 49 q 767 42 749 46 l 760 108 q 728 106 743 107 q 697 104 708 104 q 686 103 690 103 q 682 103 685 103 l 681 103 q 676 101 679 103 q 671 101 672 101 q 653 101 665 101 q 649 101 650 101 q 644 76 647 86 q 671 64 660 68 q 735 49 681 61 m 735 329 q 728 333 732 331 q 697 350 715 342 q 661 364 678 360 q 651 365 657 365 q 653 303 653 336 q 661 300 657 301 q 672 297 669 297 q 676 296 675 296 q 682 296 678 296 q 692 296 685 296 q 718 296 701 296 q 739 296 726 296 l 735 329 m 735 332 q 735 329 735 331 l 735 332 m 735 329 l 736 328 q 735 329 736 328 m 682 190 l 685 190 q 700 193 688 192 q 708 194 703 193 q 718 195 713 194 q 728 197 724 196 q 749 200 731 197 l 740 281 q 718 281 724 281 q 692 281 706 281 q 682 281 688 281 q 678 281 681 281 q 674 281 676 281 q 668 282 671 281 q 656 286 664 283 q 655 286 656 286 q 653 286 654 286 q 653 224 653 256 q 653 190 653 207 q 660 190 656 190 q 676 190 672 190 q 682 190 681 190 m 653 174 q 650 117 651 142 q 653 117 651 117 q 669 118 665 117 q 676 118 674 118 l 678 118 q 685 118 679 118 q 696 119 688 118 q 728 121 701 119 q 757 124 744 122 l 751 185 q 729 181 749 183 q 701 178 701 178 q 695 176 699 176 q 690 176 692 176 q 688 175 688 175 q 683 175 686 175 q 676 175 681 175 q 660 174 668 175 q 653 174 656 174 m 849 526 q 992 803 889 619 q 1049 906 1035 881 q 1061 932 1056 921 q 1059 932 1060 932 q 1058 932 1058 932 q 1024 935 1044 933 q 926 932 979 935 q 831 922 868 929 q 800 915 811 919 q 792 911 796 914 l 790 911 q 739 765 772 879 q 715 689 722 710 q 692 638 701 650 q 675 629 686 631 q 661 629 671 629 q 650 628 653 628 q 646 628 649 628 l 647 628 l 622 611 l 618 942 q 590 944 608 943 q 510 946 557 946 q 428 943 463 946 q 399 940 410 942 q 393 939 396 939 l 393 938 l 392 935 q 389 904 390 924 q 382 801 386 867 q 368 493 374 664 q 363 183 361 307 q 364 79 363 118 q 367 50 365 60 q 368 44 368 49 q 374 43 371 44 q 400 40 383 42 q 478 42 433 39 q 561 51 525 44 q 610 64 596 57 q 613 75 611 68 q 618 113 615 89 q 622 224 621 154 l 619 382 l 619 394 l 632 397 q 669 394 646 400 q 711 379 689 389 q 746 360 731 369 q 757 351 753 356 q 765 335 765 343 l 799 36 q 803 35 801 35 q 835 36 815 33 q 929 51 875 39 q 1022 76 983 64 q 1051 89 1040 83 q 1060 92 1058 90 l 1061 94 q 1060 108 1061 100 q 1051 174 1058 131 q 1000 428 1036 261 q 999 429 999 429 q 982 439 993 433 q 929 464 969 444 q 876 489 892 481 q 857 501 864 496 q 850 508 853 506 q 849 526 844 518 z "}}}
